<svg width="160" height="160" viewBox="0 0 160 160" fill="none" xmlns="http://www.w3.org/2000/svg">
<g clip-path="url(#clip0_1_290)">
<path d="M123.466 88.6149C119.279 132.647 59.656 158.2 31.937 108.249C25.73 97.2769 22.41 87.0269 21.11 77.9319C21.11 77.6429 20.965 77.3549 20.965 77.0659C20.965 76.7769 20.821 76.4879 20.821 76.1999C19.089 61.7629 22.409 49.9249 27.606 41.4069C27.751 41.2629 27.896 40.9739 28.039 40.8299C28.184 40.6849 28.329 40.3969 28.473 40.2519C34.536 31.0119 42.765 25.9599 48.828 25.5269C63.987 24.6609 80.3 50.5019 80.3 50.5019C83.043 53.6779 86.22 55.8439 89.54 57.5759C90.262 58.0099 91.128 58.2979 91.994 58.7309C93.004 59.1639 94.015 59.5979 95.026 59.8859C97.2927 60.7388 99.6061 61.4619 101.955 62.0519C102.244 62.0519 102.388 62.1959 102.677 62.1959C102.966 62.3409 103.11 62.3409 103.399 62.3409C115.093 65.8049 125.343 69.1259 123.466 88.6149Z" fill="#20BEFF"/>
<path d="M102.822 60.175L102.533 62.196L97.48 91.936C63.41 95.689 21.254 77.21 21.254 77.21L20.821 76.922C18.223 62.052 22.121 49.203 27.895 40.686C30.638 42.418 36.557 45.306 47.529 49.059C60.089 53.245 79.579 56.71 91.705 58.587C95.4052 59.1544 99.111 59.6837 102.822 60.175Z" fill="white"/>
<path d="M102.822 59.4529C102.677 59.4529 97.192 58.7309 89.251 57.4329C77.124 55.4109 59.367 52.2349 47.818 48.3369C36.99 44.7269 31.071 41.6969 28.328 40.1079C28.184 40.2519 28.04 40.5409 27.895 40.6859C27.751 40.8299 27.606 41.1189 27.462 41.2629C30.349 42.9949 36.268 45.8829 47.24 49.6359C60.955 54.2559 83.043 58.0089 94.593 59.7419C98.057 60.3189 100.512 60.6079 101.811 60.7519L101.667 61.9069L96.614 91.2139C63.698 94.5339 22.987 77.0659 21.399 76.4889L20.532 76.0549C20.532 76.3449 20.532 76.6329 20.677 76.9219C20.677 77.2099 20.821 77.4989 20.821 77.7879C22.265 78.3649 56.624 93.0909 87.807 93.0909C90.984 93.0909 94.159 92.9459 97.191 92.6579H97.769L102.966 62.3399L103.399 59.5979L102.822 59.4529Z" fill="#0A1411"/>
<path d="M124.188 40.9741L71.061 30.5801C69.473 30.2911 68.462 28.7031 68.751 27.1151C69.04 25.5271 70.628 24.5161 72.216 24.8051L125.343 35.2001C126.931 35.4881 127.942 37.0761 127.653 38.6641C127.364 40.2521 125.776 41.2631 124.188 40.9741Z" fill="white"/>
<path d="M124.765 41.6959H124.044L70.917 31.3019C68.895 30.8689 67.597 28.9919 68.029 26.9709C68.462 24.9499 70.339 23.6509 72.36 24.0829L125.487 34.4779C127.508 34.9109 128.808 36.7879 128.375 38.8079C127.942 40.5409 126.498 41.6959 124.765 41.6959ZM124.332 40.2519C125.632 40.5419 126.787 39.6749 126.931 38.5199C127.22 37.3649 126.353 36.0659 125.199 35.9209L72.072 25.3829C70.772 25.0929 69.617 25.9599 69.472 27.1149C69.184 28.2699 70.05 29.5689 71.205 29.7139L124.332 40.2519Z" fill="#0A1411"/>
<path d="M76.691 25.671C76.691 25.671 74.381 25.383 74.67 27.259C75.536 31.59 90.406 33.756 90.406 33.756L70.916 30.724C70.916 30.724 67.596 29.136 68.606 27.259C69.617 25.383 69.906 24.372 72.071 24.805L76.691 25.671Z" fill="#20BEFF"/>
<path d="M98.924 95.1119C93.727 90.4919 91.705 83.4179 92.86 76.6319C92.86 76.3439 93.005 76.0549 93.005 75.7669C93.2889 74.1084 93.6746 72.469 94.16 70.8579C95.459 65.5169 99.501 61.1859 104.843 59.5979C113.361 56.9979 120.146 49.9249 122.023 40.6849L73.227 31.0129C71.35 40.2529 75.103 49.3469 81.888 54.9779C86.219 58.4429 88.241 64.0729 87.518 69.5579C87.23 71.1469 87.086 72.7349 86.653 74.4679C86.653 74.7559 86.508 75.0449 86.508 75.3339C85.065 82.1189 80.445 87.8939 73.948 90.2039C66.008 93.0909 59.8 99.8759 58.068 108.827L106.864 118.355C108.452 109.549 105.276 100.887 98.924 95.1119Z" fill="white"/>
<path d="M107.297 119.221L106.575 119.077L57.057 109.404L57.202 108.682C58.934 99.876 64.998 92.658 73.515 89.626C79.579 87.46 84.198 81.974 85.642 75.334C85.642 75.044 85.786 74.756 85.786 74.467C86.076 72.879 86.364 71.147 86.653 69.559C87.374 64.217 85.353 59.02 81.311 55.699C73.948 49.781 70.628 40.252 72.361 31.013L72.505 30.291L73.226 30.435L122.744 40.108L122.6 40.83C120.868 49.925 114.082 57.432 104.987 60.175C100.079 61.619 96.181 65.805 94.882 71.003C94.448 72.591 94.16 74.323 93.726 75.911L93.582 76.777C92.282 83.418 94.592 90.347 99.357 94.679C105.998 100.598 109.029 109.837 107.297 118.644V119.221ZM58.79 108.249L106.142 117.489C107.441 109.404 104.554 101.175 98.491 95.689C93.293 91.069 90.984 83.707 92.283 76.489L92.427 75.622C92.716 74.034 93.149 72.302 93.582 70.714C95.026 65.084 99.357 60.464 104.698 58.876C113.072 56.277 119.279 49.636 121.156 41.119L73.804 31.879C72.36 40.397 75.68 48.914 82.322 54.4C86.797 58.01 88.962 63.784 88.096 69.559C87.808 71.147 87.519 72.879 87.23 74.612C87.23 74.9 87.086 75.189 87.086 75.478C85.642 82.552 80.589 88.471 74.093 90.925C66.297 93.813 60.666 100.309 58.79 108.249Z" fill="#0A1411"/>
<path d="M78.568 32.0229C78.568 32.0229 73.804 45.1609 81.888 54.9779C81.888 54.9779 70.339 46.3159 73.226 31.0129L78.568 32.0229Z" fill="#20BEFF"/>
<path d="M105.276 48.1929C105.276 48.1929 100.801 51.3689 94.593 49.2029C88.385 46.8929 80.589 46.6039 82.177 49.0589C84.631 52.8119 96.037 56.4219 99.646 54.2559C103.399 51.9459 105.276 48.1929 105.276 48.1929Z" fill="#F8DB5E"/>
<path d="M87.808 94.8229C88.674 107.961 99.646 115.035 106.864 118.355L74.093 111.425C85.786 101.608 87.519 87.4599 88.529 82.6959C88.385 82.5519 87.519 90.0589 87.808 94.8229Z" fill="#20BEFF"/>
<path d="M108.885 118.788L55.758 108.394C54.17 108.105 52.582 109.115 52.293 110.703C52.005 112.292 53.015 113.88 54.603 114.168L107.73 124.563C109.318 124.851 110.906 123.841 111.195 122.253C111.628 120.809 110.473 119.221 108.885 118.788Z" fill="white"/>
<path d="M108.308 125.429H107.586L54.459 115.034C52.438 114.601 51.139 112.725 51.571 110.703C52.005 108.682 53.881 107.383 55.902 107.816L109.029 118.211C111.051 118.644 112.35 120.52 111.917 122.542C111.628 124.274 110.04 125.429 108.308 125.429ZM55.181 109.115C54.17 109.115 53.159 109.837 53.015 110.992C52.726 112.147 53.593 113.446 54.748 113.591L107.875 123.985C109.174 124.274 110.329 123.408 110.473 122.253C110.762 121.098 109.896 119.799 108.741 119.654L55.614 109.115H55.181Z" fill="#0A1411"/>
<path d="M91.994 66.3831C91.994 62.1961 90.694 60.6081 89.54 58.4431C88.385 56.4221 84.776 52.8131 82.033 48.9141C85.353 53.2451 96.903 52.5241 101.089 50.2141C104.265 48.4811 104.554 48.0481 106.431 47.1821C108.308 46.3161 110.906 46.0271 113.216 46.4601C111.917 53.3901 100.079 57.2881 97.047 59.8861C95.17 61.4741 93.871 62.6291 91.994 66.3831ZM77.702 88.6151C77.702 88.6151 71.494 92.8021 67.885 99.2991C63.843 106.517 63.698 109.982 63.698 109.982L57.924 108.827C57.924 108.827 59.944 97.7101 68.462 92.9471C74.237 89.7701 74.959 90.2031 77.702 88.6151Z" fill="#20BEFF"/>
<path d="M107.297 119.221L106.575 119.077L57.057 109.404L57.202 108.682C58.934 99.876 64.998 92.658 73.515 89.626C79.579 87.46 84.198 81.974 85.642 75.334C85.642 75.044 85.786 74.756 85.786 74.467C86.076 72.879 86.364 71.147 86.653 69.559C87.374 64.217 85.353 59.02 81.311 55.699C73.948 49.781 70.628 40.252 72.361 31.013L72.505 30.291L73.226 30.435L122.744 40.108L122.6 40.83C120.868 49.925 114.082 57.432 104.987 60.175C100.079 61.619 96.181 65.805 94.882 71.003C94.448 72.591 94.16 74.323 93.726 75.911L93.582 76.777C92.282 83.418 94.592 90.347 99.357 94.679C105.998 100.598 109.029 109.837 107.297 118.644V119.221ZM58.79 108.249L106.142 117.489C107.441 109.404 104.554 101.175 98.491 95.689C93.293 91.069 90.984 83.707 92.283 76.489L92.427 75.622C92.716 74.034 93.149 72.302 93.582 70.714C95.026 65.084 99.357 60.464 104.698 58.876C113.072 56.277 119.279 49.636 121.156 41.119L73.804 31.879C72.36 40.397 75.68 48.914 82.322 54.4C86.797 58.01 88.962 63.784 88.096 69.559C87.808 71.147 87.519 72.879 87.23 74.612C87.23 74.9 87.086 75.189 87.086 75.478C85.642 82.552 80.589 88.471 74.093 90.925C66.297 93.813 60.666 100.309 58.79 108.249Z" fill="#0A1411"/>
<path d="M124.765 41.6959H124.044L70.917 31.3019C68.895 30.8689 67.597 28.9919 68.029 26.9709C68.462 24.9499 70.339 23.6509 72.36 24.0829L125.487 34.4779C127.508 34.9109 128.808 36.7879 128.375 38.8079C127.942 40.5409 126.498 41.6959 124.765 41.6959ZM124.332 40.2519C125.632 40.5419 126.787 39.6749 126.931 38.5199C127.22 37.3649 126.353 36.0659 125.199 35.9209L72.072 25.3829C70.772 25.0929 69.617 25.9599 69.472 27.1149C69.184 28.2699 70.05 29.5689 71.205 29.7139L124.332 40.2519Z" fill="#0A1411"/>
<path d="M97.48 86.305C97.48 86.305 89.829 87.749 89.829 90.203C89.829 92.657 96.903 92.657 99.213 91.213C101.955 89.482 99.934 86.883 98.202 85.439" fill="white"/>
<path d="M94.448 92.9461C92.86 92.9461 91.272 92.6581 90.262 92.0801C89.252 91.5031 89.107 90.7801 89.107 90.2031C89.107 87.3161 96.037 85.8731 97.336 85.5831L97.624 87.0271C94.159 87.6051 90.55 89.0481 90.55 90.2031C90.55 90.3481 90.55 90.4931 90.984 90.7811C92.716 91.7911 97.191 91.5031 98.779 90.6361C99.357 90.2031 99.789 89.7701 99.789 89.3371C99.934 88.3271 98.779 86.8831 97.624 86.0171L98.491 84.8621C99.357 85.5841 101.378 87.4601 101.234 89.4821C101.234 90.2031 100.8 91.2141 99.501 91.9361C98.346 92.5131 96.325 92.9461 94.448 92.9461Z" fill="#0A1411"/>
<path d="M97.335 81.108C97.335 81.108 88.24 83.418 89.54 86.305C90.839 89.193 101.089 86.305 103.399 83.707C106.431 80.531 101.955 78.221 98.49 77.21" fill="white"/>
<path d="M92.716 88.327C92.283 88.327 91.85 88.327 91.416 88.182C90.117 88.038 89.396 87.46 88.962 86.594C88.8195 86.3017 88.7455 85.9808 88.7455 85.6555C88.7455 85.3303 88.8195 85.0094 88.962 84.717C90.117 82.119 96.469 80.531 97.192 80.387L97.48 81.83C95.026 82.408 90.84 83.996 90.262 85.44C90.117 85.728 90.117 85.872 90.262 86.017C90.406 86.45 91.128 86.594 91.561 86.739C94.737 87.316 101.234 85.006 102.966 83.274C103.543 82.552 103.832 81.974 103.688 81.397C103.399 80.242 101.378 78.798 98.346 77.932L98.779 76.488C100.512 76.922 104.41 78.365 105.131 80.964C105.42 82.119 104.987 83.129 104.121 84.14C102.244 86.161 96.614 88.327 92.716 88.327Z" fill="#0A1411"/>
<path d="M97.48 74.1791C97.48 74.1791 86.22 78.3651 88.53 81.5411C90.84 84.7181 103.11 79.5211 105.709 76.2001C108.885 72.1571 102.822 70.1361 98.202 69.5591" fill="white"/>
<path d="M91.272 83.2741H91.128C89.684 83.2741 88.529 82.8411 87.952 81.9741C87.519 81.3971 87.374 80.6751 87.663 79.9541C88.529 76.7771 96.325 73.8901 97.191 73.4571L97.624 74.7571C94.593 75.9111 89.396 78.3651 88.962 80.2421C88.818 80.5311 88.962 80.6751 89.107 80.9641C89.54 81.5411 90.407 81.6861 91.127 81.6861H91.272C95.603 81.6861 103.255 78.0761 105.131 75.6221C105.853 74.7561 105.998 74.0341 105.709 73.3121C105.131 71.8691 102.1 70.5701 98.058 70.1361L98.202 68.6931C100.512 68.9811 105.853 69.9921 107.008 72.7351C107.441 73.8901 107.153 75.1891 106.142 76.4891C104.121 79.5201 96.036 83.2741 91.272 83.2741Z" fill="#0A1411"/>
<path d="M99.501 67.9699C99.501 67.9699 88.096 72.0129 89.684 74.7559C91.416 77.9319 102.533 73.1679 104.843 69.9919C107.874 66.2379 102.966 64.2169 98.779 63.6399" fill="white"/>
<path d="M92.283 76.4889H91.85C90.55 76.3439 89.684 75.9109 89.251 75.0449C88.962 74.6119 88.962 74.0349 89.107 73.4569C90.117 70.5699 98.49 67.5369 99.357 67.2489L99.79 68.5489C96.47 69.7029 90.984 72.1569 90.406 73.8889C90.262 74.0339 90.406 74.1789 90.406 74.3229C90.55 74.7559 91.128 74.9009 91.85 74.9009C95.459 75.1889 102.533 71.7239 104.41 69.4149C105.131 68.5479 105.276 67.6819 105.131 67.1049C104.554 65.8049 102.1 64.6499 98.779 64.2169L98.924 62.7739C100.8 63.0619 105.276 63.9289 106.431 66.5269C106.864 67.6819 106.575 68.9809 105.565 70.2809C103.543 73.0239 96.469 76.4889 92.283 76.4889Z" fill="#0A1411"/>
<path d="M31.649 42.562C31.649 42.562 47.385 51.08 93.871 58.442C125.198 63.352 90.551 67.538 90.551 67.538C90.551 67.538 82.177 80.675 71.061 81.686" fill="white"/>
<path d="M70.916 82.4079L70.772 80.9639C81.455 80.0979 89.684 67.3939 89.828 67.2489L89.973 66.9599H90.262C98.49 65.9499 106.142 63.9289 106.142 62.7739C106.142 62.7739 105.998 61.1859 93.726 59.1639C47.673 51.9459 31.937 43.5729 31.36 43.2839L32.082 41.9839C32.226 42.1289 48.251 50.5019 94.015 57.7209C106.142 59.5979 107.73 61.3299 107.73 62.7739C107.73 65.8049 96.18 67.5379 90.983 68.2599C89.54 70.2799 81.455 81.5409 70.916 82.4079Z" fill="#0A1411"/>
<path d="M54.314 50.7909L46.518 86.0169L56.48 88.4709L64.709 53.3899L54.314 50.7909ZM139.467 31.2319L133.328 34.1219L133.943 35.4289L140.082 32.5389L139.467 31.2319ZM134.427 39.1399L134.245 40.5719L140.976 41.4299L141.158 39.9979L134.427 39.1399ZM133.277 44.8139L132.492 46.0249L138.185 49.7159L138.971 48.5049L133.277 44.8139Z" fill="#0A1411"/>
<path d="M130.973 85.4401C125.776 85.4401 121.445 80.6751 121.445 74.6121C121.445 80.5311 117.258 85.4391 111.917 85.4391C117.114 85.4391 121.445 90.2031 121.445 96.2671C121.589 90.3471 125.776 85.4401 130.973 85.4401Z" fill="#F8DB5E"/>
<path d="M121.589 96.9889C121.156 96.9889 120.867 96.6989 120.867 96.2669C120.867 90.7809 116.969 86.1609 112.061 86.1609C111.628 86.1609 111.339 85.8719 111.339 85.4389C111.339 85.0059 111.628 84.7169 112.061 84.7169C116.825 84.7169 120.867 80.2419 120.867 74.6119C120.867 74.1789 121.156 73.8899 121.589 73.8899C122.022 73.8899 122.311 74.1789 122.311 74.6119C122.311 80.0979 126.209 84.7169 131.117 84.7169C131.551 84.7169 131.839 85.0069 131.839 85.4389C131.839 85.8719 131.551 86.1609 131.117 86.1609C126.353 86.1609 122.311 90.6359 122.311 96.2669C122.311 96.6999 121.878 96.9889 121.589 96.9889ZM115.67 85.4389C118.413 86.5939 120.579 88.9039 121.589 91.9359C122.6 88.9039 124.765 86.5939 127.508 85.4389C124.765 84.2839 122.6 81.9739 121.589 78.9429C120.434 81.9739 118.269 84.2839 115.67 85.4389Z" fill="#0A1411"/>
</g>
<defs>
<clipPath id="clip0_1_290">
<rect width="160" height="160" fill="white"/>
</clipPath>
</defs>
</svg>
