<svg width="160" height="160" viewBox="0 0 160 160" fill="none" xmlns="http://www.w3.org/2000/svg">
<g clip-path="url(#clip0_1_385)">
<path d="M131.751 92.8772C129.938 96.156 127.912 99.3123 125.686 102.326C114.953 116.324 98.2714 128.106 83.3414 129.272C65.3771 130.672 46.9457 113.407 41.58 98.7101C41.4768 98.2653 41.3204 97.8346 41.1143 97.4272C40.2971 94.6272 39.9471 91.9444 40.18 89.4944C42.63 64.5315 100.606 49.8329 115.537 46.9172C117.87 46.4501 120.203 47.1501 122.769 47.8501C124.169 48.2001 125.451 48.5501 126.969 48.7829H127.086C134.2 52.7487 136.65 64.1815 137.234 72.6972C137.584 78.8787 135.484 85.9944 131.751 92.8772Z" fill="#0EB770"/>
<path d="M131.751 92.8772C129.938 96.156 127.912 99.3123 125.686 102.326L121.836 101.276L109.121 112.476L126.5 48.7815H126.967L131.75 92.8758L131.751 92.8772Z" fill="black"/>
<path d="M112.504 99.06C92.44 103.843 59.8943 100.81 41.4643 97.8928L108.771 112.007C108.771 112.007 111.104 103.843 112.504 99.06Z" fill="white"/>
<path d="M126.969 48.6672C125.451 48.4329 124.053 48.0829 122.769 47.7329C124.169 48.3172 125.219 48.7829 125.801 49.0172C118.336 76.6629 109.587 106.991 108.304 111.307L41.23 97.3101C41.3471 97.7758 41.4643 98.1272 41.6971 98.5929L108.654 112.591H108.771C109.004 112.591 109.237 112.357 109.354 112.124C109.471 111.774 119.036 78.6458 127.086 48.7829L126.969 48.6672C127.086 48.7829 127.086 48.6672 126.969 48.6672Z" fill="black"/>
<path d="M122.186 60.0986L50.0957 44C50.0957 44 37.4972 77.3629 24.7815 74.5629C19.4172 73.28 76.2243 93.3443 91.74 93.5771C117.52 93.9271 119.969 67.33 122.186 60.0986Z" fill="white"/>
<path d="M92.3229 94.16H91.74C83.8072 94.0428 66.0772 89.0271 52.5457 84.7114C44.6129 82.2614 24.3172 75.6128 23.9657 74.68C23.85 74.4457 23.85 74.2128 24.0829 74.0957C24.3157 73.7471 24.6657 73.8628 25.0157 73.98C36.9143 76.5457 49.3957 44.1171 49.5129 43.7671C49.6286 43.5343 49.8629 43.3014 50.2129 43.4171L122.303 59.6314C122.419 59.6314 122.653 59.7485 122.653 59.8657C122.709 59.9302 122.74 60.0129 122.74 60.0985C122.74 60.1842 122.709 60.2669 122.653 60.3314C122.419 61.1485 122.069 62.3143 121.836 63.7143C119.62 73.6285 114.836 94.16 92.3229 94.16ZM27.4657 75.1457C38.5472 79.2285 78.9086 92.8771 91.74 92.9943H92.2072C113.904 92.9943 118.453 73.0471 120.67 63.3657C120.903 62.3143 121.136 61.2657 121.37 60.5657L50.4457 44.5843C48.93 48.55 38.7815 73.3957 27.4657 75.1457Z" fill="black"/>
<path d="M56.5114 53.9158C56.5114 53.9158 52.8957 60.7986 50.6786 63.5986L64.6786 66.7472C64.6786 66.7472 67.9429 61.9643 70.2772 57.0658L56.5114 53.9158Z" fill="#0EB770"/>
<path d="M64.6772 67.3313H64.56L50.5629 64.1813C50.33 64.1813 50.2129 63.9485 50.0957 63.8313C49.98 63.5985 50.0957 63.4813 50.2129 63.247C52.3129 60.447 55.9272 53.7985 55.9272 53.6828C56.0457 53.4485 56.2786 53.3328 56.6272 53.3328L70.51 56.4828C70.6257 56.4828 70.86 56.5985 70.86 56.8328C70.86 57.0656 70.9772 57.1813 70.86 57.2985C68.5272 62.1985 65.26 66.9799 65.1443 66.9799C65.1443 67.2142 64.91 67.3313 64.6772 67.3313ZM51.7286 63.2485L64.56 66.1628C65.26 65.1142 67.71 61.3813 69.5772 57.5313L56.7443 54.6156C56.0443 56.0156 53.5957 60.5642 51.73 63.247L51.7286 63.2485Z" fill="black"/>
<path d="M75.9928 58.3486C75.9928 58.3486 72.3757 65.2315 70.16 68.0301L84.1571 71.1801C84.1571 71.1801 87.6571 66.5143 89.4071 61.3815L75.9928 58.3486Z" fill="#0EB770"/>
<path d="M84.2743 71.7628H84.1571L70.16 68.6142C69.9271 68.6142 69.81 68.3799 69.6929 68.2642C69.5771 68.0299 69.6929 67.9142 69.81 67.6799C71.91 64.8799 75.5243 58.2313 75.5243 58.1156C75.6429 57.8813 75.8757 57.7656 76.2243 57.7656L89.7571 60.7985C89.8729 60.7985 90.1071 60.9142 90.1071 61.0313C90.1071 61.1485 90.2229 61.3813 90.1071 61.4985C88.3571 66.6313 84.8571 71.1799 84.7414 71.4128C84.6243 71.6471 84.5071 71.7628 84.2743 71.7628ZM71.21 67.5628L84.0414 70.4799C84.7414 69.4299 87.3071 65.8142 88.8243 61.7313L76.3429 58.9313C75.6429 60.3313 73.0757 64.8799 71.21 67.5628Z" fill="black"/>
<path d="M67.36 72.1142C67.36 72.1142 63.9772 78.7628 60.5943 81.0956L73.8929 83.8957C73.8929 83.8957 79.1414 80.1628 81.0072 75.0299L67.36 72.1142Z" fill="#0EB770"/>
<path d="M73.7757 84.5957H73.66L60.36 81.7957C60.1271 81.7957 60.0114 81.5615 59.8943 81.3286C59.8943 81.0957 59.8943 80.8615 60.1271 80.7457C63.3943 78.5286 66.66 71.9972 66.7771 71.88C66.8929 71.6472 67.1271 71.53 67.4771 71.53L81.0086 74.5629C81.1243 74.5629 81.3586 74.68 81.3586 74.7957C81.3586 74.9129 81.4743 75.1457 81.3586 75.2629C79.4914 80.3957 74.2429 84.2457 74.0086 84.3629C74.0043 84.4232 73.9783 84.48 73.9356 84.5227C73.8928 84.5655 73.8361 84.5914 73.7757 84.5957ZM61.8771 80.8615L73.66 83.4286C74.5929 82.7286 78.4414 79.6957 80.0743 75.6129L67.5929 72.8129C66.8929 74.0957 64.4429 78.4129 61.8771 80.8615Z" fill="black"/>
<path d="M96.29 62.8987C96.29 62.8987 92.6729 69.7801 90.4572 72.5801L104.454 75.7301C104.454 75.7301 107.954 71.063 109.704 65.9301L96.29 62.8987Z" fill="#0EB770"/>
<path d="M104.456 76.3128H104.339L90.34 73.1628C90.1072 73.1628 89.99 72.9299 89.8743 72.8128C89.7572 72.5799 89.8743 72.4628 89.99 72.2299C92.09 69.5471 95.7057 62.7814 95.7057 62.6642C95.8229 62.4314 96.0557 62.3142 96.4057 62.3142L109.937 65.3471C110.054 65.3471 110.287 65.4642 110.287 65.5814C110.287 65.6971 110.404 65.9314 110.287 66.0471C108.539 71.1799 105.039 75.7299 104.921 75.9628C104.921 76.1956 104.689 76.3128 104.456 76.3128ZM91.5072 72.1128L104.339 75.0299C105.039 73.9799 107.604 70.3628 109.121 66.2814L96.64 63.4814C95.8229 64.8814 93.3729 69.4299 91.5072 72.1128Z" fill="black"/>
<path d="M47.6457 67.6799C47.6457 67.6799 42.5143 74.2142 40.4143 77.0142L54.4115 80.1642C54.4115 80.1642 58.4943 75.6142 61.1772 70.7156L47.6457 67.6799Z" fill="#0EB770"/>
<path d="M54.4115 80.7457H54.2957L40.2972 77.5957C40.0643 77.5957 39.9472 77.3629 39.8315 77.2457C39.7143 77.0129 39.8315 76.8957 39.9472 76.6629C42.1643 73.8629 47.18 67.3315 47.18 67.3315C47.2957 67.0972 47.53 67.0972 47.7629 67.0972L61.2943 70.13C61.5272 70.13 61.6443 70.2472 61.6443 70.48C61.701 70.5446 61.7322 70.6277 61.7322 70.7136C61.7322 70.7995 61.701 70.8825 61.6443 70.9472C58.9615 75.8472 54.8786 80.3957 54.8786 80.5129C54.7615 80.7457 54.6457 80.7457 54.4115 80.7457ZM41.4643 76.6629L54.2957 79.5786C55.1115 78.6457 58.1443 75.03 60.3615 71.18L47.9957 68.38C46.9457 69.5472 43.4472 73.98 41.4643 76.6629Z" fill="black"/>
<path d="M88.1243 76.78C88.1243 76.78 84.0414 84.5943 76.11 85.2943L88.8243 87.6272C94.6571 88.9115 97.8057 86.1115 100.956 80.9786C101.189 80.6286 101.423 80.2786 101.539 79.9286L88.1243 76.78Z" fill="#0EB770"/>
<path d="M91.5071 88.5615C90.69 88.5615 89.7571 88.4444 88.7071 88.2115L75.9928 85.8787C75.7586 85.8787 75.5257 85.5287 75.5257 85.2944C75.5257 85.0615 75.7586 84.7115 76.1086 84.7115C83.5743 84.0115 87.54 76.5458 87.6571 76.5458C87.7743 76.3129 88.0071 76.1958 88.3571 76.1958L101.889 79.2287C102.121 79.2287 102.239 79.3458 102.239 79.5787C102.295 79.6433 102.326 79.7263 102.326 79.8122C102.326 79.8982 102.295 79.9812 102.239 80.0458C102.006 80.3958 101.773 80.7458 101.656 81.0958C98.8557 85.6444 96.0557 88.5615 91.5071 88.5615ZM79.1414 85.2944L88.9414 87.0444C94.54 88.3272 97.4557 85.5287 100.489 80.6301C100.606 80.5115 100.606 80.3958 100.723 80.2787L88.3571 77.4787C87.54 78.8787 84.3914 83.5458 79.1428 85.2944H79.1414Z" fill="black"/>
<path d="M122.303 60.2143C123.703 56.7143 125.219 52.8657 126.619 48.7829L54.5286 32.5686C54.5286 32.5686 53.0114 37.4686 50.0957 44.2343L122.303 60.2143Z" fill="#0EB770"/>
<path d="M122.303 60.7985H122.186L49.98 44.6999C49.8629 44.6999 49.63 44.5842 49.63 44.3499C49.5737 44.2854 49.5427 44.2027 49.5427 44.1171C49.5427 44.0314 49.5737 43.9487 49.63 43.8842C52.43 37.2342 54.0614 32.3356 54.0614 32.3356C54.1786 32.1013 54.4114 31.8685 54.7614 31.9856L126.851 48.1999C126.969 48.1999 127.201 48.3171 127.201 48.4328C127.258 48.4974 127.289 48.5804 127.289 48.6663C127.289 48.7523 127.258 48.8353 127.201 48.8999C125.919 52.9828 124.401 56.8328 122.887 60.4485C122.653 60.6813 122.537 60.7985 122.303 60.7985ZM50.9129 43.7671L121.953 59.5156C123.353 56.2485 124.636 52.7499 125.801 49.1328L54.8786 33.1513C54.4114 34.5513 53.0129 38.6342 50.9129 43.7671Z" fill="black"/>
<path d="M98.0386 42.717C98.8557 38.9842 97.1057 35.3685 94.0728 34.6685C91.04 33.9685 87.7728 36.4185 86.9586 40.2685C86.1414 44.117 87.89 47.617 90.9243 48.317L91.39 46.3327C89.1743 45.867 87.89 43.3013 88.59 40.6185C89.1743 37.9342 91.5071 36.1842 93.6071 36.6513C95.8228 37.1185 97.1071 39.6842 96.4071 42.367L98.0386 42.717ZM77.8586 38.1685C78.6757 34.4356 76.9257 30.8185 73.8928 30.1185C70.86 29.4185 67.5928 31.8685 66.7771 35.7185C65.96 39.4513 67.71 43.067 70.7428 43.767L71.21 41.7842C68.9928 41.317 67.71 38.7513 68.41 36.0685C68.9928 33.3856 71.3257 31.6356 73.4257 32.1027C75.6428 32.5685 76.9257 35.1356 76.2257 37.817L77.8586 38.1685Z" fill="#060606"/>
<path d="M85.3243 93.6942C91.5072 94.5099 96.0557 93.6942 97.8057 93.2271C91.8572 93.5771 85.9072 90.6599 82.7586 80.9785L20.4672 73.9785C20.4672 73.9785 21.2829 80.1628 30.9657 82.7285C36.0986 84.1285 85.3243 93.6942 85.3243 93.6942Z" fill="white"/>
<path d="M88.24 89.8444C88.24 89.8444 89.29 92.9944 97.8057 93.2272C97.8057 93.2272 90.1057 94.6272 87.6571 94.0444C75.7586 91.5944 41.23 85.0615 41.23 85.0615L88.24 89.8444Z" fill="#0EB770"/>
<path d="M90.34 94.5101C88.6235 94.4981 86.9094 94.3812 85.2071 94.1601C83.2243 93.8101 35.8643 84.5944 30.8486 83.1958C20.9343 80.5115 20 74.2129 20 73.9801C20 73.7472 20 73.6301 20.1171 73.5129C20.2329 73.3958 20.4671 73.2801 20.5829 73.3958L82.8743 80.3958C83.1086 80.3958 83.3414 80.6287 83.3414 80.7458C86.0243 88.9115 90.8071 92.8772 97.8057 92.5272C98.0386 92.5272 98.3886 92.7601 98.3886 92.9944C98.3886 93.3444 98.2729 93.5772 97.9229 93.6944C96.7557 94.0444 94.19 94.5101 90.34 94.5101ZM85.44 93.1101C88.0346 93.4067 90.6495 93.485 93.2571 93.3444C89.1743 92.2944 84.9743 89.1444 82.4086 81.5615L21.2829 74.7958C21.8671 76.4301 23.85 80.3958 31.0829 82.2615C36.0971 83.5458 84.1586 92.8772 85.44 93.1101Z" fill="black"/>
<path d="M47.7628 99.2928C43.5628 99.2928 40.0628 95.4428 40.0628 90.5442C40.0628 95.327 36.6814 99.2928 32.3643 99.2928C36.5643 99.2928 40.0643 103.143 40.0643 108.041C40.18 103.258 43.5643 99.2928 47.7628 99.2928Z" fill="#FAE041"/>
<path d="M40.18 108.624C39.83 108.624 39.5972 108.391 39.5972 108.041C39.5972 103.609 36.4472 99.8757 32.4829 99.8757C32.1314 99.8757 31.8972 99.6429 31.8972 99.2929C31.8972 98.9429 32.1314 98.71 32.4829 98.71C36.3314 98.71 39.5972 95.0943 39.5972 90.5443C39.5972 90.1943 39.83 89.9614 40.18 89.9614C40.53 89.9614 40.7643 90.1943 40.7643 90.5443C40.7643 94.9771 43.9129 98.71 47.8786 98.71C48.2286 98.71 48.4629 98.9429 48.4629 99.2929C48.4629 99.6429 48.23 99.8757 47.88 99.8757C44.03 99.8757 40.7643 103.493 40.7643 108.041C40.7643 108.391 40.53 108.624 40.18 108.624ZM35.3972 99.2929C37.6143 100.226 39.3643 102.093 40.18 104.543C40.9972 102.093 42.7472 100.226 44.9629 99.2929C42.7472 98.36 40.9972 96.4929 40.18 94.0443C39.3643 96.4929 37.6143 98.3586 35.3972 99.2929Z" fill="#060606"/>
<path d="M124.636 66.0472C133.074 66.0472 139.917 59.2058 139.917 50.7658C139.917 42.3272 133.074 35.4844 124.636 35.4844C116.196 35.4844 109.354 42.3272 109.354 50.7658C109.354 59.2058 116.197 66.0472 124.636 66.0472Z" fill="white"/>
<path d="M124.636 66.6314C115.887 66.6314 108.771 59.5157 108.771 50.7657C108.771 42.0171 115.886 34.9014 124.636 34.9014C133.384 34.9014 140.5 42.0171 140.5 50.7657C140.5 59.5157 133.384 66.6299 124.636 66.6299V66.6314ZM124.636 36.0685C116.587 36.0685 109.937 42.7171 109.937 50.7657C109.937 58.8157 116.587 65.4642 124.636 65.4642C132.684 65.4642 139.333 58.9314 139.333 50.7657C139.333 42.5999 132.684 36.0685 124.636 36.0685Z" fill="#060606"/>
<path d="M121.836 65.9313C121.836 65.9313 142.133 62.6642 136.184 40.8513C136.184 40.8513 145.166 51.3499 135.367 61.3813C129.651 67.3313 121.836 65.9313 121.836 65.9313Z" fill="#0EB770"/>
<path d="M124.636 66.6314C115.887 66.6314 108.771 59.5157 108.771 50.7657C108.771 42.0171 115.886 34.9014 124.636 34.9014C133.384 34.9014 140.5 42.0171 140.5 50.7657C140.5 59.5157 133.384 66.6299 124.636 66.6299V66.6314ZM124.636 36.0685C116.587 36.0685 109.937 42.7171 109.937 50.7657C109.937 58.8157 116.587 65.4642 124.636 65.4642C132.684 65.4642 139.333 58.9314 139.333 50.7657C139.333 42.5999 132.684 36.0685 124.636 36.0685Z" fill="#060606"/>
<path d="M126.036 53.2157C124.986 53.2157 123.936 52.75 123.236 51.8157C123.003 51.5828 123.119 51.2328 123.353 51C123.586 50.7657 123.936 50.8828 124.169 51.1157C124.986 52.1657 126.386 52.4 127.436 51.5828L129.069 50.3C129.534 49.95 129.884 49.3657 130.001 48.7828C130.119 48.2 129.884 47.5 129.534 47.0328C128.719 45.9828 127.319 45.75 126.269 46.5671L124.636 47.85C124.403 48.0828 124.053 47.9671 123.819 47.7328C123.586 47.5 123.703 47.15 123.936 46.9171L125.569 45.6342C127.086 44.4671 129.301 44.8171 130.469 46.3342C131.051 47.0342 131.284 47.9671 131.169 48.9C131.114 49.3659 130.961 49.8148 130.72 50.217C130.478 50.6192 130.154 50.9655 129.769 51.2328L128.136 52.5157C127.436 52.9828 126.736 53.2157 126.036 53.2157Z" fill="#060606"/>
<path d="M121.486 56.6001H121.019C120.553 56.5454 120.104 56.3924 119.702 56.151C119.299 55.9096 118.953 55.5855 118.686 55.2001C117.52 53.683 117.87 51.4658 119.386 50.3001L121.02 49.0172C121.72 48.433 122.653 48.2001 123.586 48.3172C124.052 48.3718 124.501 48.5249 124.903 48.7662C125.305 49.0076 125.651 49.3318 125.919 49.7172C126.151 49.9501 126.036 50.3001 125.801 50.533C125.569 50.7658 125.219 50.6501 124.986 50.4158C124.606 49.9355 124.069 49.605 123.469 49.483C122.886 49.3672 122.186 49.6001 121.719 49.9501L120.086 51.233C119.605 51.6127 119.275 52.1501 119.153 52.7501C119.036 53.333 119.27 54.033 119.62 54.4987C119.97 54.9658 120.553 55.3158 121.136 55.433C121.719 55.5487 122.419 55.3158 122.886 54.9658L124.519 53.683C124.751 53.4487 125.103 53.5658 125.336 53.7987C125.569 54.033 125.451 54.383 125.219 54.6158L123.586 55.8987C123.003 56.3658 122.303 56.6001 121.486 56.6001Z" fill="#060606"/>
</g>
<defs>
<clipPath id="clip0_1_385">
<rect width="160" height="160" fill="white"/>
</clipPath>
</defs>
</svg>
