<svg width="200" height="130" viewBox="0 0 200 130" fill="none" xmlns="http://www.w3.org/2000/svg">
<g clip-path="url(#clip0_1_470)">
<path d="M105.7 40.5726C107.316 40.4716 109.033 41.2797 110.548 40.6736C111.962 40.0676 113.275 38.9565 114.588 37.9465C117.215 36.0273 119.942 34.2092 122.467 32.2901C126.103 29.4619 130.144 28.5528 134.588 29.6639C135.8 29.9669 136.608 29.7649 137.315 28.8558C137.517 28.5528 137.82 28.3508 138.123 28.0478C139.436 26.4316 141.153 26.2296 143.072 26.4316C144.184 26.6337 145.295 26.9367 146.305 27.5427C150.244 29.8659 152.87 33.3001 153.88 37.8454C154.385 40.1686 153.981 42.1888 152.466 44.0069C152.264 44.3099 151.961 44.6129 151.759 44.9159C150.547 46.128 150.143 47.5421 150.345 49.3603C150.749 53.0975 149.84 56.4308 147.82 59.663C141.456 69.6627 135.295 79.6624 129.032 89.6621C126.103 94.3084 123.174 99.0557 119.74 103.399C116.407 107.742 112.063 110.874 106.912 112.49C97.9223 115.318 89.7407 113.5 82.5692 107.54C77.3168 103.197 74.0846 97.5406 72.6705 90.8742C70.8524 82.4906 72.2665 74.612 76.8118 67.3395C78.6299 64.4103 81.0541 61.8851 83.7813 59.865C84.2863 59.461 84.8924 59.0569 85.3974 58.6529C85.5994 58.5519 85.3974 57.6428 85.0944 57.6428L80.5491 57.0368C79.943 56.9358 79.438 57.3398 79.034 57.7438C78.0239 58.6529 77.1148 59.562 76.1048 60.471C67.5192 68.7536 58.9335 77.0362 50.3479 85.2178C46.1056 89.3591 40.9543 91.7832 35.0959 92.2883C30.3485 92.6923 25.8032 91.5812 21.6619 89.258C14.9955 85.4198 10.8542 79.6624 9.03605 72.2889C7.21792 65.5214 8.02598 58.7539 11.2582 52.3905C14.1874 46.6331 18.7327 42.4918 24.4901 39.8656C34.1868 35.5223 43.8835 31.482 53.5802 27.2397C59.2366 24.8155 64.994 22.3914 70.6504 19.8662C73.5796 18.5531 76.6098 17.9471 79.842 18.5531C81.0541 18.7551 82.0642 18.6541 83.1753 18.1491C84.4883 17.543 85.8014 17.139 87.2155 16.634C89.0337 15.9269 90.7508 16.0279 92.4679 16.836C96.9122 18.8561 100.346 25.1186 99.3364 30.1689C99.1344 31.28 98.7303 32.088 97.8213 32.7951C96.8112 33.5021 96.0032 34.4112 94.8921 35.1183C93.478 36.0273 93.276 37.3404 93.1749 38.7545C93.1749 39.1585 93.478 39.4616 93.882 39.5626C94.286 39.6636 94.5891 39.6636 94.9931 39.6636C98.5283 40.0676 102.165 40.2696 105.7 40.5726ZM94.488 55.1177C95.0941 55.3197 95.5991 55.1177 96.1042 55.0167C98.5283 54.6126 100.851 54.7136 103.175 55.1177C110.346 56.4308 115.902 60.37 120.245 66.2284C120.649 66.8345 121.154 67.4405 121.558 68.0466C121.76 68.3496 122.063 68.3496 122.366 68.2486C122.871 67.9456 123.376 67.6425 123.78 67.3395C129.234 63.5012 134.79 59.764 140.244 55.9257C142.567 54.3096 144.891 52.6935 147.315 51.0774C148.022 50.5723 148.325 49.9663 148.224 49.1582C148.022 48.0472 147.921 46.8351 147.618 45.825C145.901 39.7646 142.264 35.1183 136.406 32.4921C132.265 30.6739 128.123 30.775 124.184 33.6032C114.588 40.4716 104.892 47.2391 95.1951 54.0066C94.9931 54.4106 94.488 54.5116 94.488 55.1177ZM124.083 83.7027C123.78 75.3191 120.75 67.9456 113.982 62.3902C107.72 57.2388 100.447 55.5217 92.5689 57.7438C86.6095 59.36 82.0642 62.9962 78.7309 68.1476C75.0947 73.703 73.5796 79.7634 74.0846 86.3288C74.5897 93.9044 77.5189 100.369 83.1753 105.419C92.6699 114.005 106.609 113.702 115.801 104.712C121.457 99.0557 123.982 91.9852 124.083 83.7027ZM10.2481 64.8143C10.2481 71.9858 12.2683 77.6422 16.4096 82.4906C23.3791 90.5711 34.6918 92.6923 43.8835 87.3389C51.156 83.1976 55.0953 76.6322 56.2064 68.4506C56.9134 62.7942 55.8023 57.5418 53.0751 52.4915C46.7117 40.3706 30.3485 36.0273 18.9347 45.926C12.9753 51.0774 10.2481 57.8448 10.2481 64.8143ZM35.0959 37.8454C35.6009 38.5525 36.0049 38.5525 36.409 38.5525C40.1462 38.8555 43.3785 40.2696 46.5097 42.2898C48.3278 43.4008 49.9439 44.7139 51.358 46.229C51.9641 46.8351 52.6711 47.0371 53.3782 46.7341C53.7822 46.6331 54.0852 46.5321 54.4892 46.431C65.903 42.9968 77.3168 39.6636 88.7306 36.2293C89.2357 36.0273 89.8417 35.8253 90.3468 35.6233C90.8518 35.4213 91.0538 35.0172 91.0538 34.5122C91.0538 34.1082 91.0538 33.7042 90.9528 33.4011C90.0437 29.2598 88.1246 25.6236 84.6904 23.0984C81.0541 20.3712 77.1148 19.5632 72.5695 21.5833C61.0547 26.6337 49.4389 31.482 37.9241 36.4313C37.015 36.9364 36.1059 37.4414 35.0959 37.8454ZM73.2766 47.2391C73.2766 47.4411 73.3776 47.5421 73.3776 47.7441C80.5491 48.7542 87.7206 49.6633 94.8921 50.6733C96.0032 50.8754 96.9122 50.6733 97.8213 49.9663C100.649 47.8451 103.579 45.825 106.407 43.8049C106.71 43.6028 107.013 43.4008 106.811 42.7948C102.569 42.4918 98.1243 42.0877 93.781 41.7847C91.3568 41.5827 88.8316 41.4817 86.4075 41.1787C84.8924 40.9767 83.6803 41.2797 82.3672 42.0877C80.4481 43.2998 78.4279 44.4109 76.4078 45.522C75.3977 46.027 74.3876 46.6331 73.2766 47.2391ZM149.84 34.4112C148.325 31.684 146.406 29.9669 143.88 28.9568C142.87 28.5528 141.86 28.2498 140.85 28.6538C139.84 29.1588 139.032 29.8659 138.527 30.876C139.84 31.886 141.153 32.6941 142.365 33.6032C143.274 34.2092 143.779 35.6233 144.992 35.7243C146.103 35.8253 147.214 35.2193 148.224 34.9162C148.729 34.8152 149.133 34.7142 149.84 34.4112ZM84.5893 20.1692C86.0034 21.4823 87.1145 22.4924 88.3266 23.5024C88.5286 23.7045 88.8316 23.8055 89.0337 23.9065C89.8417 24.2095 94.5891 24.3105 96.0032 24.1085C95.0941 21.5833 93.276 19.4622 91.0538 18.6541C90.1447 18.3511 89.2357 18.2501 88.3266 18.6541C87.3165 19.2601 86.1045 19.6642 84.5893 20.1692ZM179.435 68.0466C181.758 67.9456 183.98 68.3496 186.202 69.0566C187.617 69.4607 188.829 70.1677 189.839 71.1778C191.152 72.3899 191.96 73.905 191.96 75.7231V80.2684C191.859 85.1168 191.859 89.9651 191.758 94.8134C191.657 98.2477 189.738 100.369 186.303 100.47C180.344 100.773 174.284 100.874 168.324 101.076L156.607 101.379C155.294 101.379 153.981 101.581 152.668 102.086C150.85 102.793 148.83 103.298 147.012 104.106C144.184 105.318 142.062 104.409 140.042 102.49C138.83 101.278 138.729 99.7628 139.84 98.3487C140.446 97.6416 141.153 96.9346 141.759 96.2275C142.769 95.1165 143.779 93.9044 144.891 92.8943C146.103 91.7832 146.507 90.4701 146.608 88.854C146.608 85.0158 146.81 81.2785 146.81 77.4402C146.81 75.9251 147.012 74.41 147.315 72.8949C147.82 70.6727 149.133 69.1576 151.456 68.7536C152.466 68.5516 153.476 68.4506 154.587 68.4506C158.83 68.5516 175.395 68.2486 179.435 68.0466ZM141.355 99.7628C142.264 99.9648 142.668 99.7628 143.173 99.5608C144.992 98.8537 146.709 98.2477 148.527 97.5406C151.052 96.5306 153.577 96.0255 156.304 95.9245C162.87 95.7225 169.435 95.4195 176.001 95.2175C177.516 95.1165 179.031 95.2175 180.546 95.1165C183.778 94.8134 184.182 94.7124 184.384 91.1772C184.788 85.4198 184.283 79.7634 184.283 74.006C184.283 73.602 184.283 73.1979 184.182 72.8949C183.879 71.3798 183.071 70.5717 181.455 70.3697C180.748 70.2687 179.94 70.3697 179.132 70.3697C171.354 70.4707 163.476 70.6727 155.698 70.7738C154.587 70.7738 153.375 70.8748 152.264 70.9758C150.749 71.1778 149.739 71.9858 149.537 73.5009C149.335 74.915 149.133 76.3291 149.133 77.7432L148.83 89.4601C148.83 91.2782 148.224 92.6923 146.911 94.0054C145.093 95.8235 143.375 97.7426 141.355 99.7628ZM186.707 72.0868C186.707 72.3899 186.606 72.5919 186.606 72.8949C186.707 75.8241 186.808 78.8543 186.808 81.7835C186.808 85.9248 187.112 89.9651 186.505 94.1064C186.404 95.0155 187.92 96.8336 188.728 96.6316C189.536 96.4296 189.536 95.4195 189.536 94.7124V93.2983C189.637 88.955 189.738 84.7127 189.738 80.3694C189.738 78.8543 189.738 77.3392 189.536 75.8241C189.435 73.905 188.627 72.7939 186.707 72.0868ZM165.9 47.4411C167.213 47.6431 168.829 47.7441 170.445 47.9462C170.95 48.0472 171.354 48.1482 171.657 48.5522C172.162 49.0572 171.859 50.0673 171.253 50.2693C170.849 50.3703 170.546 50.4713 170.142 50.3703C168.122 50.1683 166.203 49.9663 164.183 49.6633C163.88 49.6633 163.577 49.5623 163.375 49.3603C163.072 49.1582 162.87 48.7542 162.971 48.3502C163.072 47.9462 163.173 47.6431 163.577 47.4411C164.284 47.2391 164.89 47.3401 165.9 47.4411ZM169.435 37.6434C169.334 37.8454 169.334 38.0475 169.233 38.3505C169.132 38.5525 168.829 38.7545 168.627 38.9565C166.708 40.0676 164.789 41.0777 162.769 41.6837C162.264 41.7847 161.86 41.6837 161.557 41.1787C161.254 40.7747 161.355 39.9666 161.86 39.6636L167.92 36.6334C168.526 36.4313 169.435 36.9364 169.435 37.6434ZM161.456 55.7237C161.658 55.8247 161.961 55.8247 162.264 55.9257C163.981 56.7338 165.597 57.6428 167.314 58.5519C167.718 58.7539 168.021 59.2589 167.819 59.764C167.617 60.269 167.011 60.673 166.506 60.471C164.587 59.663 162.668 58.9559 160.951 57.7438C160.547 57.4408 160.345 57.0368 160.547 56.5318C160.547 55.9257 160.951 55.8247 161.456 55.7237Z" fill="#090B0A"/>
<path d="M94.488 55.1176C94.488 54.5116 94.9931 54.3095 95.3971 54.1075C105.094 47.3401 114.689 40.5726 124.386 33.7041C128.325 30.8759 132.366 30.7749 136.608 32.593C142.466 35.1182 146.103 39.7645 147.82 45.926C148.123 47.037 148.224 48.1481 148.426 49.2592C148.527 50.0673 148.224 50.6733 147.517 51.1783C145.194 52.7944 142.87 54.4106 140.446 56.0267C134.992 59.8649 129.437 63.6022 123.982 67.4405C123.477 67.7435 123.073 68.0465 122.568 68.3495C122.366 68.4505 121.962 68.4505 121.76 68.1475C121.356 67.5415 120.851 66.9354 120.447 66.3294C116.104 60.471 110.548 56.6327 103.377 55.2186C101.054 54.8146 98.6293 54.7136 96.3062 55.1176C95.5991 55.2186 95.0941 55.4206 94.488 55.1176ZM35.0959 37.8454C36.106 37.3404 37.015 36.8353 37.9241 36.4313C49.4389 31.4819 61.0547 26.6336 72.5695 21.5833C77.0138 19.5631 80.9531 20.4722 84.6904 23.0984C88.1246 25.6235 90.0437 29.2598 90.9528 33.4011C91.0538 33.8051 91.0538 34.2091 91.0538 34.5122C91.0538 35.0172 90.8518 35.4212 90.3468 35.6232C89.8417 35.8253 89.2357 36.0273 88.7306 36.2293C77.3168 39.6635 65.903 42.9968 54.4892 46.431C54.0852 46.532 53.7822 46.633 53.3782 46.734C52.5701 46.936 51.8631 46.835 51.358 46.229C49.9439 44.7139 48.2268 43.4008 46.5097 42.2897C43.3785 40.2696 40.1462 38.9565 36.409 38.5524C36.0049 38.5524 35.6009 38.5524 35.0959 37.8454Z" fill="#00B862"/>
<path d="M141.355 99.7627C143.375 97.6415 145.093 95.7224 147.012 94.0053C148.426 92.6922 148.931 91.2781 148.931 89.4599C149.032 85.5207 149.032 81.6824 149.234 77.7431C149.234 76.329 149.436 74.9149 149.638 73.5008C149.84 71.9857 150.85 71.1777 152.365 70.9756C153.476 70.8746 154.688 70.7736 155.799 70.7736C163.577 70.5716 171.455 70.4706 179.233 70.3696C180.041 70.3696 180.748 70.2686 181.556 70.3696C183.172 70.5716 183.98 71.3797 184.283 72.8948C184.384 73.2988 184.384 73.7028 184.384 74.0059C184.384 79.7633 184.788 85.4197 184.485 91.1771C184.283 94.7123 183.778 94.8133 180.647 95.1163C179.132 95.2173 177.617 95.2173 176.102 95.2173C169.536 95.4194 162.971 95.7224 156.405 95.9244C153.678 96.0254 151.153 96.5304 148.628 97.5405C146.911 98.2476 145.093 98.8536 143.274 99.5606C142.769 99.7627 142.264 99.9647 141.355 99.7627ZM171.455 82.7935C171.455 81.1774 170.142 79.8643 168.728 79.7633C167.516 79.7633 166.304 81.0763 166.304 82.6925C166.203 84.3086 167.617 85.7227 169.031 85.6217C170.445 85.7227 171.556 84.4096 171.455 82.7935ZM157.92 83.3995C157.92 85.0156 159.133 86.3287 160.446 86.3287C161.658 86.3287 162.668 85.0156 162.769 83.5005V83.1975C162.668 81.8844 161.557 80.3693 160.446 80.2683C159.234 80.1673 157.92 81.4804 157.92 83.0965V83.3995ZM179.536 82.9955C179.536 81.2784 178.526 79.8643 177.213 79.9653C175.9 79.9653 174.89 81.4804 174.991 83.0965C175.092 84.4096 176.102 85.5207 177.314 85.5207C178.526 85.5207 179.536 84.4096 179.536 82.9955Z" fill="#F7DA5E"/>
<path d="M117.619 83.7026C117.518 89.662 115.801 94.8134 111.962 99.1567C107.821 103.803 102.67 106.025 96.4072 105.217C91.9629 104.611 88.3266 102.389 85.4984 99.0557C81.1551 93.9043 79.64 87.8439 80.4481 81.1774C80.9531 76.9351 82.5692 73.0968 85.2964 69.7636C87.8216 66.7334 90.8518 64.5112 94.6901 63.5012C100.952 61.784 106.407 63.4002 111.053 67.7435C115.7 72.0868 117.619 77.6422 117.619 83.7026ZM101.761 92.6922C104.791 92.7932 107.619 91.9852 110.346 90.7731C112.063 90.066 112.265 89.359 111.154 87.6419C110.75 87.0358 110.346 86.3288 109.841 85.8237C103.983 78.4502 94.488 76.5311 86.6095 81.0764C86.1045 81.3794 85.5994 81.6824 85.1954 81.9855C84.6904 82.3895 84.5894 82.8945 84.7914 83.5006C85.0944 84.4096 85.7004 85.1167 86.4075 85.8237C90.4478 90.3691 95.5991 92.5912 101.761 92.6922ZM33.1767 84.0056C28.3284 84.0056 24.3891 81.8845 21.2579 78.2482C18.1267 74.5109 16.8136 70.0666 16.8136 65.2183C16.8136 61.178 18.0257 57.3397 20.2478 53.9055C21.7629 51.6833 23.6821 49.7642 26.0052 48.4511C31.7626 45.1179 38.6311 45.9259 43.4795 50.3702C46.3077 52.9964 48.1258 56.1277 49.0349 59.8649C50.449 65.8243 49.5399 71.4807 46.2067 76.5311C43.8835 80.1673 40.5503 82.5915 36.207 83.7026C35.2979 83.9046 34.2878 84.0056 33.1767 84.0056ZM32.1667 58.0468C27.8234 58.0468 25.0962 58.6528 22.369 60.0669C18.9347 61.9861 17.8237 62.4911 21.4599 66.0263C27.0153 71.2787 36.207 74.2079 45.4996 69.4606C46.7117 68.8545 47.0147 67.9455 46.3077 66.9354C42.5704 61.481 37.6211 58.1478 32.1667 58.0468ZM171.455 82.7935C171.455 84.3086 170.344 85.6217 169.031 85.7227C167.516 85.8237 166.203 84.4096 166.304 82.7935C166.405 81.1774 167.516 79.7633 168.728 79.8643C170.243 79.8643 171.455 81.1774 171.455 82.7935ZM157.92 83.3996V83.0965C158.021 81.4804 159.234 80.0663 160.446 80.2683C161.456 80.3694 162.668 81.8845 162.769 83.1975V83.5006C162.668 85.0157 161.658 86.3288 160.446 86.3288C159.133 86.3288 158.021 85.0157 157.92 83.3996ZM179.536 82.9955C179.536 84.4096 178.526 85.5207 177.314 85.5207C176.102 85.5207 175.092 84.4096 174.991 83.0965C174.89 81.4804 175.9 79.9653 177.213 79.9653C178.526 79.8643 179.536 81.3794 179.536 82.9955Z" fill="#090B0A"/>
<path d="M109.336 88.7529C103.478 92.4901 91.5588 90.369 86.9125 83.0965C89.8417 81.1773 93.0739 80.2683 96.5082 80.5713C97.0132 81.1773 96.7102 81.7834 96.6092 82.2884C96.3062 84.8136 97.1142 86.8337 99.2354 88.1468C101.458 89.4599 103.579 89.2579 105.7 87.8438C106.306 87.4398 106.811 86.8337 107.417 86.3287C108.326 86.9348 109.033 87.7428 109.336 88.7529ZM42.1664 65.2182C43.1764 65.7233 43.5805 66.6323 44.1865 67.3394C41.8634 69.2585 38.4291 70.0666 34.1868 69.5615C29.1365 69.0565 24.8942 66.9353 21.4599 62.9961C22.369 61.784 23.7831 61.279 25.0962 60.7739C27.0153 59.9659 29.0355 59.4608 31.3586 59.8649C30.8536 62.9961 31.2576 65.8243 34.4898 67.3394C37.5201 68.9555 40.0452 67.5414 42.1664 65.2182Z" fill="#090B0A"/>
</g>
<defs>
<clipPath id="clip0_1_470">
<rect width="200" height="129.289" fill="white"/>
</clipPath>
</defs>
</svg>
