<svg width="145" height="131" viewBox="0 0 145 131" fill="none" xmlns="http://www.w3.org/2000/svg">
<g clip-path="url(#clip0_1_436)">
<g clip-path="url(#clip1_1_436)">
<mask id="mask0_1_436" style="mask-type:luminance" maskUnits="userSpaceOnUse" x="0" y="3" width="41" height="127">
<path d="M11.0679 3.97217L40.6953 6.64345L29.6284 129.387L0.00102298 126.716L11.0679 3.97217Z" fill="white"/>
</mask>
<g mask="url(#mask0_1_436)">
<path d="M14.2791 66.449C16.3299 64.3505 18.4642 62.2162 20.5359 60.0333C22.3871 58.0847 24.2969 56.1749 25.9515 54.0655C28.0202 51.4247 27.9994 49.2468 25.73 46.8155C23.4607 44.3833 20.8835 42.1994 18.3857 39.9599C17.1572 38.8615 15.8205 37.8524 14.6078 36.9179C14.6346 35.7937 15.3726 35.316 15.9704 34.7449C19.367 31.4973 22.7973 28.2736 26.1601 24.9863C27.3553 23.8062 28.4717 22.5488 29.502 21.2223C31.5647 18.5805 31.5518 17.0779 29.1792 14.6248C27.3528 12.6558 25.3476 10.8605 23.1896 9.26188C20.6939 7.58044 18.0928 6.06112 15.4023 4.71329C13.863 3.89295 12.4557 4.14124 11.7039 5.04897C10.7981 6.14937 10.9203 7.6808 12.0416 9.22017C13.1828 10.6759 14.5642 11.926 16.1263 12.9166C18.8245 14.8252 21.3314 16.9907 23.6117 19.383C23.417 20.9233 22.1915 21.3693 21.4019 22.137C17.7611 25.6239 14.0268 28.9777 10.4525 32.558C7.29632 35.6894 7.31917 38.5308 10.4327 41.7326C12.412 43.7884 14.584 45.6407 16.6398 47.622C17.9527 48.8912 19.2101 50.23 20.3929 51.4317C20.4247 53.0733 19.1991 53.5818 18.4165 54.3495C15.9098 56.8254 13.3217 59.2258 10.7862 61.6799C10.0447 62.3634 9.36659 63.1126 8.76022 63.9184C8.06751 64.7792 7.69874 65.8556 7.71816 66.9603C7.73758 68.065 8.14395 69.1278 8.86648 69.9637C9.70029 71.0161 10.631 71.988 11.6463 72.8667C13.6653 74.6315 15.7678 76.3029 17.8137 78.033C19.2101 79.2029 20.8289 80.1811 21.7873 82.1446C17.775 85.8987 13.7309 89.6617 9.71462 93.4525C8.71359 94.3426 7.79485 95.3212 6.96958 96.3763C5.75795 98.0497 5.84733 99.322 7.07485 100.989C8.31191 102.588 9.86544 103.914 11.6383 104.886C14.6674 106.659 17.7203 108.392 20.7633 110.155C21.7426 110.719 22.7069 111.312 23.5719 111.835C23.5064 113.048 22.7993 113.523 22.1319 114.044C18.6062 116.892 15.0776 119.736 11.545 122.578C10.4952 123.416 9.38987 124.173 8.91912 125.544C8.59138 126.503 9.46336 127.77 10.4287 127.601C11.0874 127.529 11.7308 127.355 12.3355 127.084C14.003 126.3 15.6002 125.375 17.1096 124.318C21.3604 121.03 25.5424 117.653 29.6529 114.19C31.5002 112.631 31.5379 111.452 30.5368 109.266C29.8633 107.902 28.7728 106.787 27.4233 106.083C24.8312 104.555 22.1716 103.146 19.5934 101.587C17.776 100.485 15.6745 99.8384 14.1808 98.2335C14.3079 96.8192 15.5483 96.3495 16.3518 95.552C19.8149 92.1117 23.2472 88.6685 26.025 84.6344C27.7958 82.0661 28.3817 79.905 25.6506 76.4002C24.2591 74.7164 22.6262 73.2476 20.805 72.0414C18.7631 70.6063 16.7878 69.0391 14.8045 67.5027C14.6138 67.3418 14.5433 66.9604 14.2791 66.449Z" fill="#20BEFF"/>
</g>
<path d="M96.5986 68.0034C90.8185 67.7998 85.5976 65.8552 81.3668 61.9383C77.58 58.4265 75.2739 53.9315 75.0504 48.5706C74.9511 46.2357 75.542 44.0289 76.4249 41.8847C77.2849 39.8662 78.3689 37.9506 79.6566 36.1742C80.4203 35.1115 80.3856 35.0718 79.6338 33.9138C79.0031 32.9624 78.3258 32.0417 77.7269 31.0684C75.7026 27.8917 74.9142 24.0826 75.5112 20.3634C75.8213 18.286 76.2628 16.2303 76.8331 14.2089C77.5684 11.7338 78.9564 9.50224 80.8514 7.74847C85.4158 3.34786 90.9 1.00901 97.129 0.514427C105.85 -0.196662 112.02 3.86429 115.295 11.7727C117.493 17.081 117.455 22.6019 114.597 27.8387C114.44 28.1874 114.255 28.5225 114.043 28.8408C113.052 30.1279 112.937 31.1985 114.169 32.5601C115.403 33.9207 116.242 35.5117 117.131 37.0928C119.641 41.5957 120.072 46.3151 118.231 51.1726C117.146 54.1326 115.692 56.9436 113.902 59.5388C110.691 64.0944 106.475 67.0917 100.821 67.6945C99.4301 67.8296 98.0287 68.0838 96.5986 68.0034ZM109.97 34.8146C108.498 36.2228 107.086 37.4811 105.349 38.2637C101.133 40.2504 96.4157 40.9211 91.8127 40.1885C89.2901 39.7832 86.8172 39.1923 84.5021 38.0512C84.3796 37.9802 84.2442 37.9341 84.1037 37.9157C83.9632 37.8973 83.8205 37.9069 83.6838 37.944C83.4066 38.0194 83.1706 38.2015 83.0273 38.4505C81.1181 40.9724 79.8795 43.9373 79.4272 47.0679C79.3117 47.8252 79.3187 48.5961 79.4481 49.3512C80.2475 53.6713 82.2785 57.2725 85.9929 59.6371C89.9216 62.1562 94.5449 63.3719 99.2046 63.1112C103.398 62.9264 106.636 61.0593 109.148 57.8505C111.207 55.2185 112.84 52.2798 113.988 49.1416C114.732 47.062 114.832 44.8016 114.274 42.6634C113.598 39.7038 111.873 37.3401 109.985 34.8156L109.97 34.8146ZM98.2542 4.81672C96.3543 4.6737 94.1376 5.12856 91.9328 5.67579C86.6493 6.98872 82.7085 10.0516 80.5733 15.1335C78.7707 19.4338 78.4777 23.8394 80.9616 28.0582C81.5386 29.0414 82.1881 29.9829 82.8545 30.9066C83.4703 31.7646 83.6361 31.8034 84.4336 31.2005C86.1525 29.868 88.0902 28.845 90.1601 28.1774C96.0633 26.353 101.969 25.7402 107.916 27.9996C109.427 28.5727 109.446 28.4833 110.342 26.9966C112.201 23.9546 112.875 20.3341 112.235 16.8268C111.086 9.58976 105.869 4.95377 98.2681 4.8197L98.2542 4.81672ZM106.294 32.3973C99.6774 29.6661 91.044 30.5987 87.4935 34.4044C87.8927 34.6269 88.3079 34.8185 88.7339 34.9804C92.896 36.232 97.3223 36.3134 101.528 35.2158C103.248 34.7887 104.926 34.1233 106.308 32.4012L106.294 32.3973Z" fill="#57525C"/>
<path d="M85.4178 96.1562C85.5648 96.8713 85.6413 97.6002 85.6462 98.3312C85.4029 102.534 85.1457 106.792 84.7872 111.016C84.664 112.138 84.3671 113.235 83.9072 114.266C83.7428 114.662 83.4607 114.998 83.0991 115.229C82.7374 115.459 82.3137 115.573 81.8852 115.555C81.3846 115.559 80.8977 115.392 80.5051 115.081C80.1126 114.771 79.8381 114.335 79.7271 113.847C79.5291 113.173 79.4177 112.476 79.3954 111.773C79.3278 107.251 79.2894 102.727 79.2802 98.2041C79.2669 97.4953 79.3268 96.7871 79.459 96.0906C79.8006 94.4063 80.7997 93.4638 82.2507 93.3436C83.5616 93.2234 84.7564 94.1878 85.4178 96.1562ZM96.6671 114.122C96.5104 113.413 96.4127 112.692 96.3751 111.967C96.394 107.171 96.4387 102.379 96.545 97.5833C96.4942 96.2988 96.8812 95.035 97.6424 93.9991C98.1896 93.3595 98.7746 92.7726 99.7657 92.8639C100.265 92.8851 100.746 93.0571 101.145 93.3573C101.544 93.6575 101.843 94.0718 102.001 94.5453C102.282 95.3398 102.409 96.182 102.376 97.0242C102.159 102.259 101.881 107.45 101.602 112.662C101.565 113.226 101.466 113.784 101.308 114.326C101.183 114.881 100.871 115.376 100.425 115.729C99.9781 116.082 99.4241 116.272 98.855 116.265C97.9076 116.248 97.1875 115.625 96.6671 114.122ZM119.507 96.5465C119.569 97.3887 119.571 98.2338 119.514 99.076C119.079 102.993 118.594 106.905 118.06 110.81C117.879 111.918 117.558 112.998 117.105 114.025C116.894 114.475 116.54 114.842 116.098 115.07C115.656 115.298 115.151 115.373 114.662 115.283C114.247 115.185 113.875 114.955 113.601 114.628C113.327 114.301 113.167 113.894 113.143 113.469C112.953 112.361 112.866 111.237 112.885 110.113C113.048 106.177 113.249 102.247 113.487 98.3242C113.541 97.4867 113.706 96.6601 113.979 95.8662C114.158 95.2547 114.532 94.7184 115.044 94.3382C115.555 93.958 116.177 93.7546 116.814 93.7587C118.002 93.7846 119.027 94.729 119.507 96.5465ZM140.743 96.5465C140.804 97.3887 140.806 98.2338 140.75 99.076C140.314 102.993 139.829 106.905 139.296 110.81C139.114 111.918 138.793 112.998 138.34 114.025C138.129 114.474 137.775 114.842 137.333 115.069C136.891 115.297 136.386 115.372 135.897 115.283C135.482 115.185 135.11 114.955 134.836 114.628C134.563 114.301 134.402 113.894 134.379 113.469C134.188 112.361 134.102 111.237 134.12 110.113C134.283 106.177 134.484 102.247 134.722 98.3242C134.776 97.4867 134.941 96.6601 135.213 95.8662C135.394 95.2553 135.768 94.7196 136.279 94.3396C136.791 93.9596 137.411 93.7558 138.048 93.7587C139.237 93.7846 140.261 94.729 140.743 96.5465Z" fill="#F5F4EF"/>
</g>
</g>
<defs>
<clipPath id="clip0_1_436">
<rect width="145" height="130.102" fill="white"/>
</clipPath>
<clipPath id="clip1_1_436">
<rect width="144.999" height="130.102" fill="white" transform="translate(0.000671387)"/>
</clipPath>
</defs>
</svg>
