<svg width="173" height="160" viewBox="0 0 173 160" fill="none" xmlns="http://www.w3.org/2000/svg">
<g clip-path="url(#clip0_1_461)">
<g clip-path="url(#clip1_1_461)">
<path d="M78.611 97.424C74.823 97.424 73.554 100.249 71.686 102.014C61.115 112.077 50.684 122.316 39.971 132.343C37.3492 134.72 34.4852 136.814 31.426 138.593C30.5512 139.078 29.5417 139.262 28.5521 139.119C27.5624 138.975 26.647 138.511 25.946 137.798C25.1573 137.183 24.5495 136.366 24.1867 135.434C23.8239 134.501 23.7197 133.489 23.885 132.502C24.8196 128.227 27.0388 124.341 30.245 121.363C38.068 113.012 46.103 104.768 53.961 96.523C57.185 93.169 60.516 89.921 63.581 86.832C62.207 83.601 60.057 84.413 58.295 84.431C45.275 84.431 32.254 84.695 19.233 84.749C15.2868 85.0455 11.3198 84.6082 7.53299 83.459C5.25084 82.8055 3.18353 81.5568 1.54299 79.841C0.971508 79.1633 0.54347 78.3767 0.284783 77.5288C0.0260961 76.6809 -0.057861 75.7893 0.037993 74.908C0.13348 74.027 0.406545 73.1744 0.840697 72.4018C1.27485 71.6293 1.86108 70.9527 2.56399 70.413C5.20051 68.6368 8.33946 67.758 11.515 67.907C25.693 67.224 39.877 66.565 54.067 65.929L60.674 65.647C60.674 61.993 58.366 61.022 56.815 59.503C50.578 53.448 44.095 47.64 38.051 41.426C34.0004 37.1049 30.1944 32.5609 26.651 27.815C23.39 23.56 23.127 21 24.977 19.5C28.201 17.028 30.967 19.164 33.663 20.612C45.239 26.826 55.195 35.229 64.621 44.268C68.603 48.098 72.515 52.018 76.514 55.814C76.7956 56.0525 77.133 56.2158 77.4948 56.2886C77.8566 56.3614 78.2309 56.3413 78.5828 56.2302C78.9347 56.1192 79.2527 55.9208 79.5072 55.6535C79.7617 55.3863 79.9443 55.0589 80.038 54.702C80.215 52.742 80.25 50.765 80.355 48.788C80.937 37.348 81.448 25.838 82.117 14.451C82.2942 11.3091 82.8867 8.20442 83.879 5.21801C84.4818 3.53109 85.642 2.10028 87.168 1.16201C88.6922 0.224762 90.4909 -0.163357 92.266 0.0620078C93.8376 0.342957 95.2881 1.09118 96.428 2.20901C97.5689 3.32726 98.3473 4.76273 98.662 6.32901C99.1791 9.0393 99.3977 11.7981 99.314 14.556C99.226 24.831 98.997 35.106 98.891 45.38C98.7893 46.4893 99.1172 47.5953 99.807 48.47C101.569 49.864 102.556 48.046 103.578 47.057C111.454 39.307 119.242 31.451 127.188 23.772C129.719 21.2859 132.5 19.0675 135.487 17.152C136.987 16.146 138.812 15.7468 140.595 16.035C142.377 16.3233 143.984 17.2776 145.09 18.705C146.117 19.938 146.693 21.4836 146.725 23.0877C146.757 24.6918 146.243 26.259 145.266 27.532C143.657 29.77 141.834 31.8456 139.822 33.729C132.686 40.561 125.462 47.287 118.273 54.049C115.119 57.032 111.965 59.998 108.864 63.034C108.666 63.2279 108.509 63.4589 108.4 63.7138C108.292 63.9687 108.235 64.2424 108.233 64.5193C108.231 64.7962 108.283 65.0709 108.387 65.3276C108.491 65.5842 108.645 65.8178 108.839 66.015C109.099 66.278 109.423 66.468 109.78 66.565C111.333 66.8 112.898 66.948 114.467 67.006C129.444 67.448 144.421 67.818 159.415 68.313C162.163 68.3473 164.896 68.7147 167.555 69.407C169.105 69.8326 170.475 70.7516 171.456 72.025C172.439 73.3 172.981 74.8601 173 76.47C173.016 78.0688 172.482 79.6245 171.487 80.876C170.493 82.1262 169.098 82.9954 167.538 83.337C164.478 84.0628 161.344 84.4303 158.199 84.432C146.376 84.432 134.536 84.326 122.695 84.343C118.467 84.343 114.238 84.555 110.168 84.679C109.164 87.821 111.384 88.686 112.652 89.887C121.814 98.573 131.153 107.099 140.245 115.856C143.332 118.914 146.178 122.208 148.755 125.707C149.578 126.588 150.059 127.734 150.11 128.938C150.162 130.143 149.781 131.326 149.037 132.274C148.679 132.749 148.23 133.148 147.717 133.449C147.205 133.751 146.638 133.948 146.048 134.03C145.459 134.112 144.86 134.077 144.284 133.927C143.709 133.777 143.168 133.516 142.694 133.157C140.25 131.835 137.896 130.355 135.646 128.725C125.074 120.587 113.798 113.119 103.931 103.851C102.746 102.827 101.486 101.895 100.16 101.062C99.9192 100.887 99.6377 100.775 99.3421 100.739C99.0464 100.702 98.7463 100.741 98.47 100.853C98.1936 100.964 97.9499 101.144 97.7617 101.375C97.5735 101.606 97.447 101.881 97.394 102.174C97.0565 103.715 96.9144 105.293 96.971 106.87C96.195 119.492 95.403 132.115 94.663 144.737C94.416 149.116 93.993 153.423 91.597 157.254C91.0926 158.101 90.3745 158.8 89.5147 159.282C88.6549 159.764 87.6836 160.012 86.698 160C85.7125 159.986 84.7479 159.714 83.9007 159.21C83.0536 158.707 82.3536 157.989 81.871 157.13C80.6316 154.656 79.9632 151.935 79.915 149.168C78.4531 136.199 78.0995 123.128 78.858 110.099C79.333 105.827 80.214 101.537 78.611 97.424Z" fill="#23BEFE"/>
</g>
</g>
<defs>
<clipPath id="clip0_1_461">
<rect width="173" height="160" fill="white"/>
</clipPath>
<clipPath id="clip1_1_461">
<rect width="173" height="160" fill="white"/>
</clipPath>
</defs>
</svg>
