<svg width="20" height="20" viewBox="0 0 20 20" fill="none" xmlns="http://www.w3.org/2000/svg">
<path d="M9.99776 7.33209C8.52879 7.33209 7.33001 8.53088 7.33001 9.99984C7.33001 11.4688 8.52879 12.6676 9.99776 12.6676C11.4667 12.6676 12.6655 11.4688 12.6655 9.99984C12.6655 8.53088 11.4667 7.33209 9.99776 7.33209ZM17.999 9.99984C17.999 8.89511 18.009 7.8004 17.947 6.69767C17.8849 5.41683 17.5927 4.28009 16.6561 3.34348C15.7175 2.40486 14.5828 2.11467 13.3019 2.05263C12.1972 1.99059 11.1025 2.0006 9.99976 2.0006C8.89503 2.0006 7.80031 1.99059 6.69759 2.05263C5.41675 2.11467 4.28 2.40686 3.34339 3.34348C2.40477 4.28209 2.11458 5.41683 2.05254 6.69767C1.9905 7.8024 2.0005 8.89712 2.0005 9.99984C2.0005 11.1026 1.9905 12.1993 2.05254 13.302C2.11458 14.5828 2.40677 15.7196 3.34339 16.6562C4.282 17.5948 5.41675 17.885 6.69759 17.947C7.80232 18.0091 8.89703 17.9991 9.99976 17.9991C11.1045 17.9991 12.1992 18.0091 13.3019 17.947C14.5828 17.885 15.7195 17.5928 16.6561 16.6562C17.5948 15.7176 17.8849 14.5828 17.947 13.302C18.011 12.1993 17.999 11.1046 17.999 9.99984ZM9.99776 14.1045C7.72627 14.1045 5.89306 12.2713 5.89306 9.99984C5.89306 7.72835 7.72627 5.89515 9.99776 5.89515C12.2693 5.89515 14.1025 7.72835 14.1025 9.99984C14.1025 12.2713 12.2693 14.1045 9.99776 14.1045ZM14.2706 6.68567C13.7402 6.68567 13.3119 6.25739 13.3119 5.72704C13.3119 5.19669 13.7402 4.76841 14.2706 4.76841C14.8009 4.76841 15.2292 5.19669 15.2292 5.72704C15.2294 5.85297 15.2047 5.9777 15.1565 6.09408C15.1084 6.21045 15.0378 6.31619 14.9488 6.40524C14.8597 6.49429 14.754 6.5649 14.6376 6.61302C14.5212 6.66114 14.3965 6.68582 14.2706 6.68567Z" fill="white"/>
</svg>
