<svg width="122" height="122" viewBox="0 0 122 122" fill="none" xmlns="http://www.w3.org/2000/svg">
<path fill-rule="evenodd" clip-rule="evenodd" d="M26.9824 51.3803C27.0495 50.4777 26.1463 49.8297 25.3617 50.281C17.4024 54.8593 14.4399 66.6572 17.634 78.5782C20.9187 90.8371 29.5933 99.0315 39.0574 98.4448C39.7292 98.4037 40.1937 97.7789 40.2269 97.1064C40.3055 95.5194 40.8209 93.7672 41.02 92.292C41.554 88.3361 40.5617 84.3737 38.2276 81.1422L30.07 69.8465C27.4487 66.217 26.2054 61.824 26.5372 57.3639L26.9824 51.3803ZM49.3304 96.566C49.3754 96.6474 49.4842 96.6052 49.5695 96.5671C58.5398 92.5883 61.482 80.2943 58.1158 67.7308C54.8844 55.6701 46.4425 47.5444 37.1524 47.8422C36.355 47.8678 35.8497 48.7117 35.9114 49.5072C36.0955 51.883 35.2353 55.0225 35.0839 57.0579C34.8124 60.7072 35.8296 64.3011 37.9743 67.2708L46.1319 78.5665C48.9847 82.5167 50.1975 87.3591 49.5448 92.1944C49.0994 95.494 49.2132 96.353 49.3304 96.566Z" fill="#744A30" stroke="#2F2118"/>
<path fill-rule="evenodd" clip-rule="evenodd" d="M86.8976 25.4724C87.4069 24.7243 86.9489 23.7115 86.0436 23.7101C76.8616 23.6953 68.3968 32.4316 65.2029 44.3521C61.9181 56.611 65.3331 68.045 73.8227 72.2692C74.4251 72.5692 75.1398 72.2606 75.5048 71.6948C76.3664 70.3594 77.6886 69.0998 78.5985 67.922C81.039 64.7632 82.1609 60.8353 81.7553 56.8693L80.3386 43.0085C79.8831 38.5546 81.003 34.1284 83.5202 30.4316L86.8976 25.4724ZM83.659 75.7783C83.657 75.8713 83.7724 75.8891 83.8654 75.8992C93.6233 76.9383 102.318 67.7624 105.685 55.1994C108.917 43.1386 105.668 31.8805 97.474 27.4934C96.7709 27.1168 95.9114 27.595 95.5667 28.3148C94.5383 30.4642 92.2239 32.7529 91.0751 34.4399C89.0153 37.4646 88.0993 41.086 88.4714 44.7301L89.8886 58.591C90.3843 63.4385 89.0133 68.2387 86.0304 72.0995C83.9945 74.7347 83.6636 75.5353 83.659 75.7783Z" fill="#744A30" stroke="#2F2118"/>
</svg>
