<svg width="198" height="190" viewBox="0 0 198 190" fill="none" xmlns="http://www.w3.org/2000/svg">
<g clip-path="url(#clip0_1_210)">
<g clip-path="url(#clip1_1_210)">
<mask id="mask0_1_210" style="mask-type:luminance" maskUnits="userSpaceOnUse" x="0" y="0" width="198" height="190">
<path d="M0 0H197.97V189.63H0V0Z" fill="white"/>
</mask>
<g mask="url(#mask0_1_210)">
<path d="M139.06 64.64C149.85 64.37 157.65 70.58 159.98 81.14C161.27 86.96 161.14 92.82 160.62 98.71C160.37 101.5 159.52 104.25 160.11 107.32C161.03 107.52 162 107.79 162.98 107.92C164.25 108.09 165.55 108.05 166.8 108.28C175.54 109.88 180.9 115.55 181.71 124.28C182 127.28 181.8 130.4 181.8 133.46C181.8 135.21 180.94 136.97 181.99 139.02C183.51 139.41 185.25 139.73 186.91 140.31C190.583 141.524 193.698 144.018 195.686 147.337C197.674 150.656 198.403 154.578 197.74 158.39C196.99 162.687 195.403 166.795 193.07 170.48C188.42 178.07 181.65 183.48 174.88 189.01C174.492 189.349 174.004 189.552 173.49 189.59C172.758 189.642 172.03 189.449 171.42 189.04C171.185 188.769 171.016 188.448 170.928 188.1C170.839 187.753 170.833 187.39 170.91 187.04C172.24 183.92 174.61 181.53 176.99 179.21C181.013 175.256 184.436 170.735 187.15 165.79C188.698 162.833 189.54 159.557 189.61 156.22C189.683 155.063 189.455 153.908 188.946 152.866C188.438 151.825 187.667 150.933 186.71 150.28C182.55 147.14 178.11 147.99 175.18 152.61C170.726 159.499 165.899 166.139 160.72 172.5C158.752 175.198 156.301 177.507 153.49 179.31C152.468 179.941 151.331 180.364 150.145 180.555C148.959 180.746 147.747 180.7 146.579 180.422C145.41 180.143 144.308 179.636 143.336 178.931C142.364 178.225 141.54 177.334 140.913 176.31C140.074 174.941 139.611 173.375 139.57 171.77C139.508 168.941 140.169 166.143 141.49 163.64C143.71 159.296 146.769 155.435 150.49 152.28C155.63 147.621 161.7 144.107 168.3 141.97C171.79 140.86 173.3 138.64 173.48 135.27C173.64 131.7 173.69 128.12 173.61 124.54C173.53 120.96 171.44 118.83 168.38 117.64C165.487 116.544 162.363 116.2 159.3 116.64C158.659 116.685 158.042 116.902 157.514 117.268C156.987 117.634 156.567 118.136 156.3 118.72C155.56 120.35 154.84 121.99 154.08 123.61C148.019 136.376 139.329 147.717 128.58 156.89C125.954 159.358 122.906 161.333 119.58 162.72C118.161 163.342 116.586 163.516 115.066 163.22C113.545 162.923 112.151 162.17 111.07 161.06C109.611 159.586 108.795 157.594 108.8 155.52C108.54 150.75 110.04 146.41 112.08 142.25C119.36 127.43 130.08 116.25 145.97 110.65C148.42 109.79 150.45 108.96 150.97 105.73C151.99 99.6639 152.178 93.487 151.53 87.37C150.18 76.08 144.48 72.44 133.46 75.1C128.76 76.23 126.17 78.45 124.71 83.28C117.97 105.56 105.62 124.47 89.08 140.73C84.791 145.113 79.8738 148.834 74.49 151.77C72.0553 153.194 69.376 154.15 66.59 154.59C59.76 155.37 55.76 151.59 56.29 144.73C56.6707 141.163 57.5877 137.673 59.01 134.38C69.25 108.47 86.01 88.16 110.55 74.56C112.55 73.44 114.55 72.33 116.66 71.33C117.25 71.0765 117.769 70.6824 118.172 70.1821C118.574 69.6818 118.848 69.0906 118.97 68.46C120.18 61.4 121.42 54.35 120.25 47.13C119.992 44.96 119.14 42.9036 117.786 41.1881C116.432 39.4727 114.631 38.1651 112.58 37.41C105.449 34.4498 97.6662 33.4153 90.01 34.41C86.9761 34.9354 84.0624 36.0061 81.41 37.57C80.5809 37.9123 79.8736 38.4956 79.3797 39.2444C78.8859 39.9932 78.6282 40.8731 78.64 41.77C78.64 43.56 78.47 45.35 78.3 47.13C77.4919 57.3839 74.0735 67.2605 68.37 75.82C62.2108 85.2961 54.2787 93.4929 45.01 99.96C41.44 102.45 37.62 104.96 33.01 102.3C28.4 99.64 28.87 95.03 29.37 90.7C30.3356 81.2365 33.6304 72.1595 38.96 64.28C45.6056 54.5316 53.6213 45.7918 62.76 38.33C64.34 37.04 65.96 35.78 67.57 34.51C68.1965 34.0587 68.6381 33.3955 68.8128 32.6433C68.9875 31.8912 68.8835 31.1012 68.52 30.42C66.63 25.66 62.65 23.42 58.08 22.2C51.29 20.38 44.95 22 38.77 25C35.5 26.59 33.88 28.53 33.5 32.49C32.5 42.72 27.21 50.69 18.88 56.65C17.0542 58.0733 14.8967 59.0093 12.61 59.37C7.06 60.05 3.61 56.56 4.61 51.15C5.06 49.152 5.73 47.21 6.61 45.36C9.22843 39.5026 12.8609 34.1538 17.34 29.56C18.94 27.91 20.7 26.4 22.34 24.75C24.09 22.94 24.16 21.49 22.95 19.22C21.3864 16.5219 18.9004 14.4798 15.95 13.47C12.17 11.93 8.24 10.74 4.44 9.24C0.879997 7.82 -0.620003 5.36 0.299997 2.91C1.13 0.679998 3.35 -0.350002 6.76 0.159998C11.88 0.929998 16.52 3.16 21.12 5.38C24.8442 7.14509 28.0354 9.86366 30.37 13.26C31.21 14.47 31.64 16.1 33.56 16.39C37.26 14.93 40.97 13.25 45.02 12.39C58.34 9.52 69.34 13.83 76.73 25.31C78.07 27.39 79.39 27.31 81.18 26.57C91.48 22.19 101.79 23.66 111.99 26.8C125.17 30.8 130.58 38.55 130.4 52.47C130.4 55.03 130.03 57.57 129.81 60.12C129.67 61.63 129.49 63.12 129.24 65.58C133.04 65.18 136.04 64.72 139.06 64.64ZM65.17 145.3C66.38 146.62 67.55 145.5 68.58 145.07C72.8356 143.275 76.706 140.678 79.98 137.42C94.87 123 106.7 106.51 113.82 86.88C114.06 86.2 114.14 85.47 114.49 83.88C90.61 95.76 68.67 123.37 65.17 145.3ZM41.59 78.79C40.7348 81.1838 40.0169 83.6244 39.44 86.1C38.91 88.1 38.26 90.01 38.82 92.41C42.53 91.41 44.82 88.67 47.37 86.34C54.1564 80.1313 59.7959 72.7755 64.03 64.61C66.73 59.34 68.03 53.68 68.73 47.11C57.91 54.23 45.7 68.59 41.59 78.79ZM117.98 153.74C127.65 148.95 139.88 134.63 145.98 120.48C131.1 126.55 118.49 141.88 117.98 153.74ZM149.57 166.74C148.95 168.097 148.497 169.524 148.22 170.99C148.17 171.15 148.39 171.5 148.58 171.59C149 171.78 149.58 172.1 149.89 171.95C150.567 171.604 151.176 171.14 151.69 170.58C156.186 165.889 160.037 160.619 163.14 154.91C157.455 157.289 152.694 161.447 149.57 166.76V166.74Z" fill="#20BEFF"/>
<path d="M25.93 32.2C25.93 32.2 12.35 41.9299 15.6 45.9799C18.85 50.0299 25.93 32.2 25.93 32.2Z" fill="white"/>
</g>
</g>
</g>
<defs>
<clipPath id="clip0_1_210">
<rect width="198" height="190" fill="white"/>
</clipPath>
<clipPath id="clip1_1_210">
<rect width="198" height="190" fill="white"/>
</clipPath>
</defs>
</svg>
