<svg width="160" height="160" viewBox="0 0 160 160" fill="none" xmlns="http://www.w3.org/2000/svg">
<g clip-path="url(#clip0_1_326)">
<path d="M135.221 97.564C135.221 97.839 134.946 98.663 134.809 98.938C131.374 108.417 125.329 117.759 117.499 125.864C116.125 127.238 114.614 128.475 113.102 129.711C112.828 129.986 112.553 130.123 112.278 130.398C112.003 130.673 111.591 130.81 111.316 131.085C103.211 137.13 93.456 141.388 82.604 142.487C72.3 143.449 58.974 139.053 47.434 131.085C47.16 130.81 46.747 130.673 46.473 130.398C46.198 130.123 45.786 129.986 45.511 129.711C44.137 128.749 42.763 127.65 41.39 126.551C41.115 126.414 40.977 126.139 40.703 126.002C40.428 125.864 40.29 125.59 40.016 125.452C32.322 118.72 26.003 110.34 22.843 101.273C19.133 90.557 21.332 73.247 40.016 65.417C40.291 65.279 40.428 65.142 40.703 65.142C40.977 65.004 41.115 65.004 41.39 64.867C43.5047 64.1069 45.66 63.4649 47.846 62.944C55.952 61.158 64.195 59.509 72.3 58.548C72.575 58.548 72.712 58.548 72.987 58.41C73.262 58.41 73.399 58.41 73.674 58.273C102.387 54.701 127.94 57.311 135.221 73.934C138.106 80.391 137.968 88.909 135.221 97.564Z" fill="#F6709E"/>
<path d="M134.041 97.724H105.265V73.963C105.265 72.04 103.758 70.529 101.84 70.529H73.064V44.434C73.064 42.511 71.557 41 69.639 41H44.425C42.507 41 41 42.51 41 44.434V126.566C41 128.489 42.507 130 44.426 130H112.254C112.528 129.725 112.802 129.588 113.076 129.313C114.583 128.077 116.09 126.704 117.461 125.468C125.682 117.639 131.574 108.025 134.726 98.548C134.726 98.273 134.863 98.136 135 97.861C134.726 97.724 134.452 97.724 134.041 97.724Z" fill="white"/>
<path d="M133.984 97.426H105.821V74.346C105.821 72.148 104.035 70.225 101.7 70.225H73.674V44.81C73.674 42.611 71.888 40.688 69.553 40.688H44.137C41.939 40.688 40.016 42.474 40.016 44.809V126.963C40.016 129.161 41.802 131.085 44.137 131.085H111.179C111.454 130.81 111.866 130.673 112.141 130.398C112.416 130.123 112.69 129.986 112.965 129.711H44.137C43.4089 129.709 42.7113 129.419 42.1966 128.904C41.6818 128.389 41.3918 127.691 41.39 126.963V44.81C41.3921 44.082 41.6822 43.3844 42.1968 42.8695C42.7115 42.3547 43.409 42.0644 44.137 42.062H69.553C70.281 42.0644 70.9785 42.3547 71.4931 42.8695C72.0078 43.3844 72.2979 44.082 72.3 44.81V71.46H101.837C102.565 71.4621 103.263 71.7523 103.778 72.2672C104.293 72.7821 104.583 73.4798 104.585 74.208V98.8H134.122C134.396 98.8 134.671 98.8 134.946 98.938C134.946 98.663 135.083 98.525 135.221 98.251C135.221 97.976 135.358 97.839 135.358 97.564C134.809 97.426 134.396 97.426 133.984 97.426Z" fill="#0A1411"/>
<path d="M79.444 114.187C74.361 100.998 72.987 70.7749 72.987 70.7749V130.398H92.907C92.907 130.398 84.802 128.2 79.444 114.187ZM117.499 125.727C116.125 127.101 114.614 128.475 112.965 129.711C112.69 129.986 112.416 130.123 112.141 130.398H105.821V97.9759C105.821 97.9759 105.821 98.2509 105.959 98.6629C106.371 101.136 108.157 109.653 111.179 116.522C113.102 120.644 115.438 123.666 117.499 125.727Z" fill="#F6709E"/>
<path d="M73.674 70.9121H72.3V130.398H73.674V70.9121ZM105.821 98.1131H104.448V130.398H105.821V98.1131Z" fill="#0A1411"/>
<path d="M133.984 97.426H105.821V74.346C105.821 72.148 104.035 70.225 101.7 70.225H73.674V44.81C73.674 42.611 71.888 40.688 69.553 40.688H44.137C41.939 40.688 40.016 42.474 40.016 44.809V126.963C40.016 129.161 41.802 131.085 44.137 131.085H111.179C111.454 130.81 111.866 130.673 112.141 130.398C112.416 130.123 112.69 129.986 112.965 129.711H44.137C43.4089 129.709 42.7113 129.419 42.1966 128.904C41.6818 128.389 41.3918 127.691 41.39 126.963V44.81C41.3921 44.082 41.6822 43.3844 42.1968 42.8695C42.7115 42.3547 43.409 42.0644 44.137 42.062H69.553C70.281 42.0644 70.9785 42.3547 71.4931 42.8695C72.0078 43.3844 72.2979 44.082 72.3 44.81V71.46H101.837C102.565 71.4621 103.263 71.7523 103.778 72.2672C104.293 72.7821 104.583 73.4798 104.585 74.208V98.8H134.122C134.396 98.8 134.671 98.8 134.946 98.938C135.083 98.663 135.358 97.838 135.358 97.564C134.809 97.426 134.396 97.426 133.984 97.426Z" fill="#0A1411"/>
<path d="M57.463 17.8831L59.799 24.8891H67.079L61.173 29.1491L63.508 36.1541L57.463 31.7581L51.556 36.1541L53.891 29.1481L47.847 24.8891H55.265L57.463 17.8831Z" fill="#F8DB5E"/>
<path d="M63.508 36.841C63.371 36.841 63.233 36.841 63.096 36.704L57.6 32.72L52.104 36.704C51.9772 36.7716 51.8357 36.807 51.692 36.807C51.5483 36.807 51.4068 36.7716 51.28 36.704C51.005 36.567 51.005 36.154 51.005 35.88L53.066 29.423L47.571 25.439C47.296 25.301 47.296 24.889 47.296 24.614C47.3604 24.4879 47.459 24.3824 47.5804 24.3095C47.7019 24.2367 47.8414 24.1994 47.983 24.202H54.852L56.912 17.745C57.05 17.195 58.012 17.195 58.287 17.745L60.347 24.202H67.217C67.491 24.202 67.766 24.34 67.903 24.614C68.041 24.889 67.903 25.164 67.628 25.439L62.133 29.423L64.193 35.88C64.331 36.154 64.193 36.43 63.919 36.704C63.782 36.841 63.645 36.841 63.508 36.841ZM57.463 31.071C57.601 31.071 57.738 31.071 57.875 31.209L62.135 34.231L60.485 29.285C60.348 29.011 60.485 28.735 60.76 28.461L65.02 25.439H59.799C59.6574 25.4417 59.5178 25.4045 59.3964 25.3316C59.2749 25.2588 59.1763 25.1532 59.112 25.027L57.463 20.081L55.815 25.027C55.7506 25.1532 55.652 25.2586 55.5306 25.3315C55.4091 25.4043 55.2696 25.4416 55.128 25.439H49.908L54.166 28.461C54.441 28.599 54.441 29.011 54.441 29.286L52.792 34.231L57.051 31.209C57.188 31.209 57.326 31.071 57.463 31.071ZM53.479 62.944V59.784H59.112V73.797H55.54V62.944H53.479ZM90.297 82.727C90.297 81.627 89.885 81.078 88.923 81.078C88.373 81.078 87.962 81.216 87.824 81.628C87.549 82.04 87.412 82.589 87.412 83.414H84.115C84.252 81.765 84.665 80.391 85.626 79.567C86.588 78.743 87.824 78.331 89.198 78.331C90.709 78.331 91.808 78.743 92.633 79.43C93.457 80.116 93.732 81.215 93.732 82.452C93.732 83.826 93.182 85.2 92.221 86.436C91.259 87.672 89.885 88.909 88.511 89.733H94.006V92.481H83.978V89.871C88.236 86.848 90.297 84.513 90.297 82.727ZM122.994 104.57C123.681 104.845 124.23 105.395 124.642 105.944C125.055 106.494 125.192 107.18 125.192 108.005C125.192 108.966 124.917 109.653 124.505 110.203C124.093 110.752 123.406 111.165 122.719 111.302V111.439C124.505 111.989 125.467 113.088 125.467 114.874C125.467 115.698 125.329 116.385 124.917 117.072C124.505 117.759 123.956 118.171 123.269 118.583C122.582 118.995 121.757 119.133 120.658 119.133C119.01 119.133 117.773 118.72 116.812 117.896C115.85 117.072 115.301 115.835 115.301 114.324H118.598C118.598 115.011 118.735 115.423 119.147 115.835C119.559 116.248 119.971 116.385 120.521 116.385C121.071 116.385 121.345 116.248 121.62 115.973C121.895 115.698 122.032 115.286 122.032 114.874C122.032 113.775 121.208 113.088 119.559 113.088H118.872V110.34H119.422C120.933 110.34 121.62 109.791 121.62 108.692C121.62 108.28 121.483 107.867 121.208 107.593C120.933 107.318 120.658 107.18 120.109 107.18C119.697 107.18 119.285 107.318 119.01 107.73C118.735 108.005 118.598 108.554 118.598 108.966H115.301C115.301 107.455 115.85 106.356 116.674 105.532C117.499 104.708 118.735 104.295 120.246 104.295C121.345 104.021 122.17 104.158 122.994 104.57ZM128.352 93.717L127.115 93.167C128.764 88.909 127.115 83.551 123.543 80.666C122.307 82.589 120.933 83.826 119.422 84.238C118.323 84.513 116.949 84.375 115.987 83.688C115.163 83.138 114.614 82.452 114.476 81.628C114.202 79.842 115.575 78.193 117.087 77.644C118.46 77.231 119.972 77.369 121.757 78.056C122.307 78.193 122.719 78.468 123.131 78.743C127.665 70.363 125.604 58.823 118.323 52.778C110.767 46.596 97.441 44.26 87.413 51.953L86.588 50.854C97.166 42.749 111.179 45.222 119.01 51.679C126.841 58.135 129.039 70.637 124.093 79.567C128.352 82.727 130.275 88.771 128.352 93.717ZM118.598 78.743C118.186 78.743 117.773 78.743 117.361 78.88C116.4 79.155 115.438 80.254 115.713 81.353C115.85 81.903 116.262 82.315 116.537 82.589C117.224 83.001 118.048 83.139 118.872 82.864C120.109 82.589 121.208 81.628 122.307 79.842C121.895 79.567 121.483 79.43 121.071 79.155C120.384 79.017 119.559 78.743 118.598 78.743Z" fill="#0A1411"/>
<path d="M96.067 53.1901L87 52.0901C86.725 52.0901 86.588 51.9531 86.45 51.6791C86.313 51.5411 86.313 51.2661 86.45 50.9921L90.71 42.6121L91.946 43.1611L88.099 50.7171L96.205 51.6791L96.067 53.1901Z" fill="#0A1411"/>
</g>
<defs>
<clipPath id="clip0_1_326">
<rect width="160" height="160" fill="white"/>
</clipPath>
</defs>
</svg>
