<svg width="50" height="64" viewBox="0 0 50 64" fill="none" xmlns="http://www.w3.org/2000/svg">
<g clip-path="url(#clip0_1_592)">
<path fill-rule="evenodd" clip-rule="evenodd" d="M39.0198 54.7968C38.9694 56.8609 38.2957 57.7902 38.2957 57.7902C36.3866 60.8341 32.4133 60.7296 32.4133 60.7296L28.6454 60.8845H14.4131L10.6452 60.8341C10.6452 60.8341 9.79508 60.8665 8.6892 60.6036C6.08841 59.9768 4.19004 57.6894 4.04235 55.0165C4.04235 54.9949 4.04235 54.9769 4.04235 54.9553C3.99192 53.6657 3.93789 46.1335 3.93789 40.8202V40.7158C3.93789 40.7158 3.783 23.227 3.83343 21.163C3.88386 19.0989 4.55747 18.1695 4.55747 18.1695C6.46664 15.0752 10.4399 15.1761 10.4399 15.1761L14.2078 15.0212L28.4473 14.7114L32.2152 14.7619C32.2152 14.7619 32.9465 14.733 33.9371 14.942C36.3434 15.4499 38.1949 17.3771 38.6668 19.7905C38.7172 20.0535 38.7712 20.3381 38.8181 20.6443C39.1423 22.6327 38.9441 37.5927 39.0342 40.3628" fill="#0EB770"/>
<path d="M39.0018 36.793C39.0018 36.793 39.1135 37.7584 38.1228 38.5328C38.0652 38.5797 38.004 38.6229 37.9391 38.6697C36.2497 39.9305 32.9969 42.362 31.2822 43.702C31.1274 43.8065 30.7671 44.2712 30.7167 44.0118C30.7167 43.4462 30.7167 42.8771 30.7671 42.3079C30.7671 42.1026 30.7671 41.8469 30.7167 41.6379C30.6122 41.1733 30.3565 40.7626 29.7873 40.7086C29.2182 40.7086 28.9624 41.1228 28.858 41.5875C28.6526 42.3079 28.6526 43.0824 28.6022 43.8065C28.3428 46.3856 28.2384 49.0153 28.1375 51.6485C28.1375 51.8538 28.1375 52.1132 28.188 52.3185C28.1375 52.9381 28.3933 53.3523 28.912 53.3523C29.3731 53.4027 29.7873 53.0425 29.9422 52.4229C30.1476 51.598 30.2016 50.7191 30.3025 49.8942C30.3565 49.1197 30.4573 48.3452 30.5114 47.4699C31.1274 48.0895 31.801 48.5542 32.471 49.0153C33.7101 49.7393 36.1344 50.3589 36.5451 49.325C36.7 48.8099 36.3902 48.5001 35.9255 48.2444C34.9457 47.5708 33.7606 47.2106 32.7808 46.4901C31.4912 45.6112 31.6461 45.8705 32.7808 44.9916C34.0055 44.0478 36.5343 42.2107 38.0328 41.13L38.04 41.1228C38.04 41.1228 38.058 41.1156 38.0688 41.1048C38.1733 41.0328 38.4398 40.8779 38.7136 40.9355C39.027 41.0003 39.0342 41.6992 39.0342 41.7568C39.0342 41.7568 39.2683 41.0364 39.2251 39.808C39.1387 37.4017 39.0018 36.793 39.0018 36.793Z" fill="white"/>
<path d="M39.0234 38.6089V39.2645L39.0126 38.6089H39.0234Z" fill="white"/>
<path d="M19.0564 44.6819C18.9519 43.4428 18.9519 42.2072 18.2819 41.0689C17.457 39.52 15.6523 39.3146 14.4635 40.6042C14.0493 41.0689 13.7395 41.584 13.4837 42.0991C12.4535 44.2677 11.9348 46.483 11.4701 48.8065C11.3656 49.2711 11.1603 51.3856 11.3152 51.9548C11.4197 52.315 11.625 52.6248 12.0897 52.6248C12.5039 52.6248 12.7093 52.3654 12.8642 52.0556C13.0191 51.7963 13.0695 51.4865 13.1235 51.1803C13.2784 50.4563 13.3829 49.6854 13.4837 48.9614C13.5342 48.702 13.6891 48.4967 13.9989 48.4967C14.7733 48.4462 15.5478 48.4967 16.3223 48.3418C16.8914 48.2373 16.9923 48.4967 16.9923 48.9614C17.0968 50.3554 16.9923 55.5642 17.457 56.6989C17.6119 57.0591 17.9217 57.3689 18.4368 57.3689C19.521 57.3185 19.467 54.6853 19.3661 53.8099C19.3157 50.7156 19.1608 47.6718 19.0564 44.6783V44.6819ZM16.4772 46.076C15.8072 46.076 15.1876 46.2309 14.568 46.2813C14.1033 46.3317 14.3086 45.8166 14.3086 45.7122C14.6689 44.5775 15.0327 43.3887 15.5982 42.3081C15.7027 42.1027 15.8576 41.8434 16.1134 41.8434C16.3727 41.8938 16.6285 42.7187 16.7834 45.6617C16.7834 45.9211 16.7329 46.076 16.4736 46.076H16.4772Z" fill="white"/>
<path d="M23.2349 39.6282C21.8949 40.0425 20.7062 41.5374 20.8106 43.0323C20.9151 44.2174 21.2249 45.3017 21.8409 46.3859C22.4604 47.4702 23.2349 48.2447 23.9049 49.3253C24.629 50.4096 24.9352 51.4398 24.6794 52.679C24.5245 53.2986 23.8545 53.5039 23.3898 53.1437C23.0296 52.8339 22.8747 52.4196 22.6658 52.009C22.4604 51.339 22.4604 50.5645 22.356 49.8945C22.2011 49.4298 22.0966 48.9651 21.5311 48.9651C21.016 48.9651 20.807 49.3794 20.7566 49.8405C20.6017 51.0256 20.6521 52.1639 21.1709 53.2445C21.8409 54.7935 23.3898 55.568 24.7298 55.1537C26.3796 54.689 27.0533 52.9348 26.6894 51.1805C26.4301 49.4766 25.5043 48.187 24.366 46.8975C23.5915 46.0221 22.972 45.0927 22.7162 43.904C22.5613 43.2844 22.4064 42.6649 22.8207 42.0993C23.026 41.7895 23.3358 41.4797 23.8005 41.5302C24.2651 41.5806 24.5245 41.84 24.6758 42.2542C24.8811 42.7189 24.8811 43.1836 24.8811 43.6987C24.8307 44.2678 24.7767 44.8334 24.9316 45.4025C25.1909 46.1266 25.9114 46.2779 26.4265 45.7628C26.6318 45.5574 26.7867 45.2476 26.9416 44.5776C27.0965 43.4934 26.992 42.5136 26.6822 41.5338C26.2175 40.1397 24.6182 39.2644 23.2241 39.6246L23.2349 39.6282Z" fill="white"/>
<path d="M34.2217 29.6714C33.9119 29.0518 33.1914 29.1022 32.8816 29.621C32.5214 30.0856 32.4674 32.9746 32.3125 33.904C32.262 34.3182 32.1072 34.7289 31.9523 35.0891C31.6929 35.5034 31.3831 35.5034 31.0229 35.1395C30.6086 34.7253 30.4537 34.2642 30.2484 33.6951C29.7837 32.301 29.9891 30.8565 29.9891 29.412C29.9891 28.8969 29.8846 28.4322 29.265 28.2773C28.6454 28.1224 28.3897 28.5871 28.1808 29.1022C27.6116 30.4963 27.6116 31.9912 27.9214 33.4861C28.1807 34.6713 28.4905 35.7555 29.4163 36.5804C30.8104 37.7151 32.5646 37.5602 33.4904 35.9608C34.3657 34.7217 34.5747 30.2333 34.2144 29.6678L34.2217 29.6714Z" fill="white"/>
<path d="M23.6456 27.2976C23.8509 27.1931 24.1103 27.1427 24.3696 27.0923H24.3192C24.0598 27.1427 23.8545 27.2472 23.6492 27.2976C22.3092 27.9676 21.6355 29.0015 21.3257 30.291C21.5851 29.0519 22.3055 27.9172 23.6492 27.2976H23.6456Z" fill="white"/>
<path d="M12.9686 37.4596C14.9823 37.7189 16.9419 36.4293 17.5614 34.4661C18.0766 32.7623 17.8712 30.6982 16.5312 29.3078L15.7063 28.328C15.9116 27.9137 19.0095 25.0788 17.1004 21.3613C17.0499 21.3109 16.9959 21.2064 16.9455 21.156C16.1206 20.0213 14.8814 19.3513 13.5918 19.7115C12.3526 20.0717 11.6322 20.8966 10.9622 21.9305C9.87793 23.7892 9.31238 25.7488 9.00259 27.658C8.74323 29.2573 8.43345 30.5974 8.89813 31.9914C8.94856 32.3516 9.25835 32.7659 9.62217 32.7659C10.0364 32.7659 10.4975 32.5606 10.602 31.9914C10.9622 29.668 11.4773 27.3986 12.0969 25.1796C12.3563 24.2503 12.666 23.3749 13.282 22.55C13.5918 22.0854 14.0565 21.7756 14.6761 21.88C15.2957 22.0854 15.501 22.55 15.7063 23.1192C15.9657 24.099 15.5514 24.9239 15.0867 25.7488C14.622 26.6241 13.8476 27.1428 12.9722 27.5535C12.1978 28.0182 12.1978 28.5333 12.9218 29.0484C13.1812 29.2033 13.4909 29.3582 13.7467 29.5635C15.2416 30.5938 15.7603 31.9878 15.2957 33.6917C14.9354 35.0857 13.6458 35.5504 12.4571 34.7759C11.9924 34.5166 11.6322 34.1564 11.1675 33.951C10.9082 33.7961 10.5479 33.7457 10.2382 33.7961C10.0328 33.8466 9.8239 33.9006 9.61857 34.1059C9.30878 34.4157 9.35921 34.7759 9.51411 35.0857C10.5443 36.5302 11.6286 37.3047 12.9722 37.4596H12.9686Z" fill="white"/>
<path d="M27.979 37.2039C26.4301 35.8099 24.7298 34.7797 23.0764 33.436C22.9215 33.3316 22.6622 33.1767 22.7162 33.0218C22.7666 32.7624 23.0764 32.7624 23.2853 32.712C25.6592 32.1428 27.3594 30.0824 27.4135 27.6545C27.4639 26.88 27.1037 26.2604 26.5886 25.7453C25.5043 24.87 24.3192 24.9708 23.08 25.486C21.8409 26.0011 21.3257 26.6207 21.1709 26.826C21.0664 26.2064 21.016 25.7417 20.8611 24.5026C20.8106 24.1423 20.6017 23.883 20.191 23.8326C19.3661 23.7821 19.2617 24.7079 19.2617 24.9168C19.1068 26.2064 18.9015 31.9339 18.9519 33.5333C19.0023 34.4086 19.0564 35.338 19.3661 36.2169C19.521 36.5772 19.6759 36.7861 20.0362 36.7861C20.3964 36.7861 20.6053 36.5808 20.7062 36.271C20.8611 35.8567 20.9115 35.4965 20.9655 35.0318C21.016 34.6716 21.1204 34.5167 21.4806 34.8265C22.356 35.601 23.3394 36.3214 24.2651 37.0454C25.3998 37.8199 26.4841 38.6953 27.7737 39.214C28.188 39.3689 28.5482 39.4193 28.858 39.0087C29.1678 38.6484 29.0633 38.2846 28.7535 37.9244C28.5482 37.665 28.2384 37.4597 27.979 37.2003V37.2039ZM21.477 31.0117C21.2177 31.0117 21.2177 30.8569 21.3221 30.3417C21.5815 29.0521 22.3019 27.9679 23.5915 27.3483C23.8509 27.2438 24.0562 27.1934 24.3156 27.143H24.5749C25.0901 27.143 25.3494 27.5572 25.2449 28.0723C25.1945 28.4326 24.9856 28.8468 24.7298 29.1566C23.4907 30.9109 21.5815 31.0154 21.4806 31.0154L21.477 31.0117Z" fill="white"/>
<path fill-rule="evenodd" clip-rule="evenodd" d="M38.1949 12.0781C38.764 12.5932 39.3296 13.0075 39.9492 13.573C39.1747 14.4484 38.3498 15.3777 37.5753 16.2567C35.6157 18.4252 33.7065 20.5901 31.4371 22.4489C31.2822 22.5533 31.1274 22.6542 30.9725 22.7082C30.5582 22.9136 30.0971 22.8631 29.7873 22.6038C29.4775 22.2436 29.4775 21.7789 29.7369 21.3646C30.5114 20.4352 31.3867 19.6103 32.2116 18.681C33.2419 17.4958 34.3801 16.3575 35.4104 15.1724C36.4406 14.1926 37.3195 13.1588 38.1949 12.0781Z" fill="#141915"/>
<path d="M42.2186 14.1929C45.3241 14.1929 47.8416 11.6753 47.8416 8.56982C47.8416 5.4643 45.3241 2.94678 42.2186 2.94678C39.113 2.94678 36.5955 5.4643 36.5955 8.56982C36.5955 11.6753 39.113 14.1929 42.2186 14.1929Z" fill="#FB5E93"/>
<path fill-rule="evenodd" clip-rule="evenodd" d="M38.7136 8.62021C38.8685 7.28019 39.7438 6.50571 40.983 6.09146C41.1883 6.04103 41.3973 5.98699 41.6026 6.04103C41.9628 6.09146 42.3266 6.14549 42.4779 6.55614C42.6328 6.9704 42.4275 7.38105 42.1177 7.53594C41.1379 7.9502 40.8281 8.82553 40.4679 9.70447C40.313 10.1692 40.0536 10.6338 39.4377 10.5294C38.973 10.4789 38.6127 9.96023 38.5623 9.29022C38.6127 9.13532 38.6668 8.87597 38.7172 8.62021H38.7136Z" fill="white"/>
<path fill-rule="evenodd" clip-rule="evenodd" d="M43.7171 7.27997C43.7675 6.76485 44.1313 6.60996 44.542 6.66039C44.9526 6.71082 45.1616 7.02061 45.1111 7.38443C45.0607 7.74826 44.8013 8.05444 44.3367 8.00401C43.9764 7.95358 43.7171 7.64379 43.7171 7.27997Z" fill="white"/>
<path d="M12.1437 40.6581C12.1437 41.1228 11.625 41.692 11.0595 41.7424C10.6452 41.8469 10.2345 41.8469 9.8203 41.8469C9.61497 41.8469 9.46007 41.8973 9.46007 42.1566V45.2509C9.51051 47.315 9.46007 49.325 9.30518 51.3891C9.30518 51.6989 9.30518 52.0087 9.15028 52.268C8.99539 52.6283 8.6856 52.9381 8.22092 52.8876C7.81026 52.8336 7.60134 52.5238 7.50047 52.1132C7.39601 51.4431 7.39601 50.7695 7.39601 50.0995C7.39601 47.4699 7.39601 44.8907 7.44644 42.3079C7.44644 42.0018 7.34558 41.8469 7.03579 41.8469H6.15685L4.55387 41.9189C4.37016 41.9477 3.9595 42.0666 3.94509 42.5961C3.93429 42.9527 3.89106 41.7784 3.89106 40.777C3.89106 39.8692 3.92708 39.1416 3.92708 39.1416C3.92708 39.1416 3.9523 39.8152 4.63672 39.808C4.66914 39.808 4.69435 39.8116 4.71957 39.8152C6.60352 39.7216 8.44425 39.6747 10.2814 39.6279C10.5407 39.6279 10.7965 39.6279 11.0559 39.6783C11.6754 39.7288 12.1401 40.1934 12.1401 40.6581H12.1437Z" fill="white"/>
</g>
<defs>
<clipPath id="clip0_1_592">
<rect width="50" height="63.2188" fill="white"/>
</clipPath>
</defs>
</svg>
