<svg width="208" height="158" viewBox="0 0 208 158" fill="none" xmlns="http://www.w3.org/2000/svg">
<g clip-path="url(#clip0_1_445)">
<g clip-path="url(#clip1_1_445)">
<mask id="mask0_1_445" style="mask-type:luminance" maskUnits="userSpaceOnUse" x="84" y="0" width="124" height="101">
<path d="M109.851 0L207.692 46.1321L181.842 100.956L84.0014 54.8235L109.851 0Z" fill="white"/>
</mask>
<g mask="url(#mask0_1_445)">
<path d="M129.044 50.8238C129.051 53.6878 129.117 56.5418 129.037 59.4118C128.972 61.1158 127.987 62.1088 126.679 62.2218C126.003 62.2891 125.324 62.1285 124.749 61.7656C124.175 61.4027 123.738 60.8583 123.508 60.2188C123.178 59.2716 122.98 58.2838 122.917 57.2828C122.495 52.0728 122.124 46.8688 121.747 41.6628C121.66 40.8258 121.634 39.9836 121.67 39.1428C121.744 38.4687 122.022 37.8332 122.467 37.3209C122.911 36.8086 123.501 36.4437 124.158 36.2748C124.826 36.1808 125.506 36.2794 126.12 36.5589C126.733 36.8385 127.254 37.2874 127.621 37.8528C128.333 39.2024 128.701 40.7069 128.693 42.2328C128.729 45.0928 128.755 47.9748 128.723 50.8198L129.044 50.8238ZM141.956 50.8768C141.958 48.6818 141.922 46.4868 141.958 44.2988C141.964 43.2865 142.045 42.276 142.202 41.2758C142.523 39.3418 143.566 38.0898 144.836 37.9598C146.106 37.8298 147.286 38.9858 147.783 40.9268C147.95 41.5788 148.053 42.2458 148.09 42.9168C148.3 47.4638 148.524 52.0168 148.637 56.5738C148.644 57.9176 148.478 59.2567 148.142 60.5578C147.939 61.2022 147.54 61.7672 147 62.1744C146.461 62.5816 145.808 62.8107 145.133 62.8298C144.457 62.7708 143.814 62.5107 143.287 62.0829C142.76 61.6552 142.374 61.0794 142.177 60.4298C141.966 59.2719 141.865 58.0967 141.875 56.9198C141.825 54.8938 141.857 52.8698 141.851 50.8458L141.956 50.8768ZM160.551 51.3858C160.754 48.5278 160.897 45.6608 161.178 42.8138C161.177 42.2151 161.396 41.637 161.794 41.1897C162.192 40.7425 162.741 40.4574 163.336 40.3888C163.928 40.3785 164.508 40.5518 164.997 40.8849C165.486 41.218 165.86 41.6945 166.067 42.2488C166.368 43.0408 166.601 43.8578 166.762 44.6888C167.579 49.1763 167.848 53.7466 167.561 58.2988C167.478 60.8248 166.318 62.1888 164.56 62.3558C162.567 62.5508 161.018 61.1198 160.838 58.5058C160.646 56.1548 160.785 53.7848 160.783 51.4208L160.551 51.3858ZM178.555 51.2278C178.549 49.0288 178.49 46.8238 178.566 44.6258C178.608 43.7878 178.806 42.9638 179.149 42.1968C179.261 41.9339 179.424 41.6962 179.63 41.4978C179.836 41.2993 180.079 41.1442 180.346 41.0416C180.612 40.939 180.897 40.891 181.182 40.9005C181.468 40.91 181.749 40.9768 182.008 41.0968C182.355 41.2568 182.653 41.5068 182.87 41.8198C183.357 42.5008 183.716 43.2638 183.93 44.0738C185.177 49.0628 184.943 54.1568 184.75 59.2238C184.737 59.9984 184.421 60.7371 183.869 61.2811C183.318 61.8252 182.575 62.1313 181.8 62.1338C181.025 62.1539 180.273 61.875 179.698 61.3549C179.124 60.8349 178.772 60.1136 178.715 59.3408C178.526 56.6498 178.654 53.9328 178.648 51.2258L178.555 51.2278ZM194.871 50.9298C195.081 47.8998 194.592 45.3168 195.867 42.9468C196.039 42.6091 196.295 42.3212 196.61 42.1108C196.925 41.9003 197.289 41.7743 197.667 41.7448C198.045 41.7149 198.424 41.7821 198.768 41.9399C199.112 42.0978 199.41 42.3412 199.634 42.6468C200.034 43.1908 200.348 43.7928 200.564 44.4328C200.822 45.2358 200.991 46.0638 201.069 46.9038C201.401 50.1138 201.638 53.2898 201.851 56.4998C201.925 57.3394 201.839 58.1853 201.598 58.9928C201.463 59.5756 201.139 60.0977 200.678 60.4786C200.217 60.8595 199.643 61.0782 199.045 61.1008C198.443 61.1605 197.837 61.0232 197.319 60.7095C196.802 60.3957 196.4 59.9225 196.174 59.3608C195.765 58.4354 195.493 57.455 195.368 56.4508C195.139 54.4518 195.006 52.4238 194.871 50.9298ZM90.752 48.2718C90.747 46.0728 90.692 43.8788 90.761 41.6788C90.804 40.8373 91.0027 40.011 91.347 39.2418C91.4987 38.8911 91.7413 38.5873 92.0498 38.3618C92.3583 38.1363 92.7214 37.9973 93.1016 37.9592C93.4818 37.9211 93.8653 37.9852 94.2124 38.1449C94.5595 38.3047 94.8576 38.5543 95.076 38.8678C95.5592 39.5526 95.9167 40.3179 96.132 41.1278C97.371 46.1148 97.149 51.2048 96.952 56.2798C96.9346 57.0551 96.6157 57.793 96.063 58.3369C95.5103 58.8808 94.7674 59.1878 93.992 59.1928C93.2166 59.2125 92.4636 58.9324 91.8895 58.4109C91.3154 57.8894 90.9646 57.1665 90.91 56.3928C90.72 53.7018 90.845 50.9918 90.839 48.2848L90.752 48.2718ZM107.077 47.9778C107.28 44.9448 106.791 42.3618 108.073 39.9948C108.245 39.6572 108.501 39.3693 108.816 39.1589C109.131 38.9484 109.495 38.8224 109.873 38.7928C110.251 38.7625 110.63 38.8295 110.975 38.9874C111.319 39.1453 111.617 39.3889 111.841 39.6948C112.232 40.2458 112.544 40.8498 112.767 41.4878C113.024 42.2878 113.192 43.1118 113.268 43.9478C113.599 47.1588 113.841 50.3458 114.057 53.5478C114.128 54.3844 114.043 55.2269 113.808 56.0328C113.67 56.6146 113.346 57.1355 112.885 57.5161C112.424 57.8968 111.851 58.1165 111.254 58.1418C110.652 58.2028 110.046 58.0668 109.528 57.7541C109.01 57.4414 108.607 56.969 108.38 56.4078C107.972 55.4801 107.702 54.4977 107.578 53.4918C107.337 51.4968 107.212 49.4718 107.077 47.9778Z" fill="#23BEFE"/>
</g>
<path d="M30.006 70.4829C28.56 70.4829 28.069 71.5409 27.363 72.2029C23.328 75.9729 19.347 79.8149 15.258 83.5729C14.2507 84.4603 13.1554 85.2424 11.989 85.9069C11.6553 86.0888 11.272 86.1587 10.8955 86.1063C10.5191 86.0539 10.1694 85.882 9.898 85.6159C9.598 85.3849 9.368 85.0779 9.231 84.7289C9.09389 84.3804 9.05481 84.0011 9.118 83.6319C9.4782 82.0223 10.3257 80.5627 11.545 79.4519C14.531 76.3219 17.598 73.2339 20.598 70.1449C21.828 68.8949 23.093 67.6709 24.27 66.5139C23.745 65.3099 22.89 65.6139 22.252 65.6139C17.282 65.6139 12.312 65.7139 7.342 65.7399C5.836 65.8499 4.322 65.6839 2.877 65.2499C2.0109 65.015 1.22052 64.5595 0.583003 63.9279C0.256318 63.5473 0.0558483 63.0747 0.00927555 62.5753C-0.0372972 62.0759 0.0723241 61.5744 0.323003 61.1399C0.488003 60.8509 0.712003 60.5979 0.980003 60.3959C1.9874 59.7252 3.18065 59.3893 4.39 59.4359C9.801 59.1759 15.215 58.9299 20.631 58.6959L23.146 58.5959C23.186 57.2279 22.272 56.8569 21.674 56.2879C19.293 54.0259 16.824 51.8499 14.518 49.5159C12.9719 47.9 11.5192 46.1972 10.167 44.4159C8.916 42.8279 8.781 41.8629 9.494 41.3069C10.724 40.3749 11.787 41.1809 12.816 41.7239C17.235 44.0519 21.028 47.1939 24.626 50.5869C26.153 52.0159 27.639 53.4839 29.172 54.9129C29.2805 55.003 29.4099 55.0643 29.5483 55.0912C29.6867 55.1182 29.8297 55.1098 29.964 55.0669C30.0971 55.0245 30.2175 54.9493 30.3141 54.8484C30.4107 54.7474 30.4805 54.6238 30.517 54.4889C30.585 53.7549 30.598 53.0139 30.632 52.2739C30.86 47.9869 31.055 43.6749 31.304 39.4159C31.369 38.2379 31.594 37.0739 31.977 35.9559C32.2089 35.3191 32.6527 34.7814 33.234 34.4329C33.8196 34.0813 34.5066 33.9376 35.184 34.0249C35.781 34.1294 36.3333 34.4097 36.77 34.8299C37.204 35.2489 37.5 35.7859 37.62 36.3729C37.82 37.3879 37.905 38.4219 37.875 39.4549C37.875 43.3049 37.747 47.1549 37.713 51.0039C37.675 51.4179 37.797 51.8319 38.056 52.1609C38.729 52.6839 39.112 52.0019 39.502 51.6249C42.508 48.7219 45.482 45.7779 48.514 42.9009C49.484 41.9699 50.5454 41.1391 51.682 40.4209C52.2577 40.0466 52.9518 39.8991 53.63 40.0069C54.31 40.1149 54.922 40.4709 55.347 41.0029C55.7372 41.4622 55.957 42.042 55.9692 42.6445C55.9814 43.247 55.7853 43.8353 55.414 44.3099C54.795 45.1505 54.0972 45.9301 53.33 46.6379C50.64 49.1909 47.855 51.7109 45.111 54.2509C43.907 55.3619 42.697 56.4739 41.52 57.6109C41.4178 57.7064 41.3433 57.8277 41.3042 57.9619C41.2652 58.0962 41.263 58.2385 41.298 58.3739C41.3337 58.5103 41.4057 58.6345 41.5065 58.7331C41.6072 58.8318 41.7329 58.9012 41.87 58.9339C42.462 59.0239 43.06 59.0819 43.658 59.1059C49.375 59.2649 55.092 59.4039 60.815 59.5889C61.863 59.6049 62.906 59.7429 63.922 59.9989C64.51 60.1587 65.0309 60.5033 65.408 60.9819C65.783 61.4589 65.99 62.0419 66 62.6449C66.0052 63.2454 65.8008 63.829 65.422 64.2949C65.042 64.7649 64.51 65.0899 63.915 65.2179C62.7457 65.4843 61.5503 65.6195 60.351 65.6209H46.799C45.179 65.6209 43.564 65.7069 42.017 65.7469C41.634 66.9239 42.482 67.2479 42.966 67.7309C46.463 70.9849 50.027 74.1799 53.498 77.4609C54.6727 78.6047 55.7563 79.8385 56.739 81.1509C57.053 81.4789 57.2376 81.9095 57.2585 82.3631C57.2795 82.8166 57.1354 83.2624 56.853 83.6179C56.5713 83.9769 56.1606 84.2116 55.7084 84.2722C55.2561 84.3327 54.7981 84.2142 54.432 83.9419C53.4966 83.454 52.5976 82.8992 51.742 82.2819C47.707 79.2329 43.402 76.4419 39.67 72.9689C39.2205 72.5812 38.7391 72.2319 38.231 71.9249C38.1395 71.8598 38.0332 71.8184 37.9218 71.8045C37.8103 71.7906 37.6972 71.8046 37.5925 71.8453C37.4878 71.8859 37.3948 71.952 37.322 72.0374C37.2491 72.1229 37.1986 72.2251 37.175 72.3349C37.0474 72.9122 36.9909 73.5029 37.007 74.0939C36.718 78.8229 36.415 83.5519 36.133 88.2809C36.039 89.9209 35.877 91.5359 34.963 92.9709C34.7691 93.2895 34.495 93.5516 34.168 93.7309C33.839 93.9121 33.4686 94.0049 33.0931 94.0003C32.7175 93.9958 32.3495 93.894 32.025 93.7049C31.7027 93.5174 31.4354 93.2484 31.25 92.9249C30.7777 92.0003 30.5226 90.9801 30.504 89.9419C29.9405 85.0863 29.8033 80.1905 30.094 75.3109C30.282 73.6369 30.598 72.0519 30.006 70.4829Z" fill="#23BEFE"/>
<mask id="mask1_1_445" style="mask-type:luminance" maskUnits="userSpaceOnUse" x="66" y="80" width="54" height="78">
<path d="M66.9993 156.65L68.3654 80.0001L119.7 80.9149L118.334 157.565L66.9993 156.65Z" fill="white"/>
</mask>
<g mask="url(#mask1_1_445)">
<path d="M84.996 149.629C85.7048 150.576 86.0305 151.755 85.9081 152.931C85.7858 154.107 85.2244 155.194 84.336 155.975C82.544 157.491 79.459 157.117 78.051 155.209C76.644 153.302 77.143 150.524 79.137 148.939C81.056 147.411 83.506 147.699 84.996 149.629ZM88.154 131.364C87.7917 131.634 87.379 131.83 86.94 131.938C86.5011 132.046 86.0449 132.066 85.5984 131.995C85.1519 131.924 84.7241 131.764 84.3403 131.525C83.9566 131.286 83.6246 130.972 83.364 130.603C82.7998 129.865 82.4731 128.973 82.4274 128.045C82.3817 127.118 82.6191 126.198 83.108 125.408C83.432 124.883 83.858 124.429 84.362 124.073C84.7557 123.79 85.2015 123.587 85.6738 123.477C86.146 123.367 86.6354 123.351 87.1138 123.431C87.5922 123.51 88.05 123.684 88.4611 123.941C88.8722 124.198 89.2283 124.535 89.509 124.93C91.016 126.929 90.412 129.719 88.154 131.364ZM93.222 108.826C91.732 109.927 89.82 109.516 88.477 107.8C88.1724 107.422 87.9492 106.985 87.8214 106.517C87.6936 106.048 87.6639 105.559 87.7342 105.078C87.8045 104.598 87.9733 104.137 88.23 103.725C88.4867 103.313 88.8258 102.959 89.226 102.684C90.0205 102.107 91.0089 101.863 91.9807 102.004C92.9525 102.144 93.831 102.659 94.429 103.438C95.692 105.156 95.2 107.363 93.222 108.826ZM68.743 113.282C68.384 112.589 68.096 111.862 67.883 111.111C67.479 109.157 69.086 107.182 71.076 107.052C71.5285 107.033 71.9801 107.108 72.4019 107.273C72.8237 107.438 73.2066 107.689 73.5262 108.01C73.8458 108.331 74.0951 108.715 74.2583 109.137C74.4215 109.56 74.4949 110.012 74.474 110.464C74.4619 111.366 74.2835 112.257 73.948 113.094C73.028 115.298 70.39 115.516 68.743 113.282ZM114.387 95.647C115.941 94.561 118.017 94.864 118.872 96.302C119.318 97.1076 119.473 98.0421 119.311 98.9485C119.149 99.8549 118.679 100.678 117.982 101.279C117.621 101.564 117.204 101.769 116.759 101.881C116.313 101.992 115.848 102.008 115.396 101.926C114.944 101.844 114.514 101.667 114.136 101.406C113.758 101.146 113.439 100.807 113.202 100.414C112.174 98.794 112.639 96.88 114.387 95.647ZM94.374 81.06C95.0763 80.5903 95.93 80.403 96.7644 80.5358C97.5987 80.6686 98.3522 81.1115 98.874 81.776C99.1362 82.1436 99.3227 82.5598 99.4226 83.0001C99.5225 83.4405 99.5339 83.8964 99.456 84.3412C99.3781 84.786 99.2125 85.2109 98.9689 85.5911C98.7253 85.9713 98.4085 86.2993 98.037 86.556C97.3475 87.0525 96.4893 87.2553 95.6505 87.1197C94.8117 86.9842 94.061 86.5214 93.563 85.833C93.2965 85.4686 93.1058 85.0545 93.0022 84.6152C92.8985 84.1758 92.8841 83.7201 92.9597 83.2751C93.0353 82.83 93.1995 82.4047 93.4424 82.0242C93.6853 81.6437 94.0021 81.3159 94.374 81.06ZM105.124 147.003C104.781 147.246 104.392 147.418 103.981 147.509C103.57 147.599 103.146 147.606 102.732 147.529C102.318 147.453 101.924 147.295 101.572 147.064C101.221 146.833 100.919 146.534 100.685 146.184C100.218 145.478 100.041 144.62 100.19 143.787C100.338 142.954 100.801 142.21 101.483 141.709C102.984 140.618 104.822 140.956 105.88 142.505C106.359 143.207 106.548 144.068 106.407 144.906C106.266 145.744 105.806 146.496 105.124 147.003Z" fill="#F5F4EF"/>
</g>
</g>
</g>
<defs>
<clipPath id="clip0_1_445">
<rect width="208" height="158" fill="white"/>
</clipPath>
<clipPath id="clip1_1_445">
<rect width="208" height="158" fill="white"/>
</clipPath>
</defs>
</svg>
