<svg width="99" height="126" viewBox="0 0 99 126" fill="none" xmlns="http://www.w3.org/2000/svg">
<g clip-path="url(#clip0_1_7)">
<path fill-rule="evenodd" clip-rule="evenodd" d="M77.2589 108.497C77.1591 112.583 75.8253 114.423 75.8253 114.423C72.0452 120.45 64.1783 120.243 64.1783 120.243L56.7179 120.55H28.5382L21.0778 120.45C21.0778 120.45 19.3946 120.514 17.2049 119.994C12.0554 118.753 8.2967 114.224 8.00428 108.932C8.00428 108.889 8.00428 108.853 8.00428 108.81C7.90443 106.257 7.79744 91.3434 7.79744 80.8232V80.6164C7.79744 80.6164 7.49075 45.9891 7.5906 41.9023C7.69046 37.8155 9.0242 35.9753 9.0242 35.9753C12.8043 29.8487 20.6712 30.0484 20.6712 30.0484L28.1316 29.7417L56.3256 29.1283L63.786 29.2282C63.786 29.2282 65.2339 29.1711 67.1952 29.5848C71.9596 30.5904 75.6256 34.4062 76.56 39.1849C76.6598 39.7055 76.7668 40.269 76.8595 40.8752C77.5014 44.8122 77.1091 74.4327 77.2874 79.9174" fill="#0EB770"/>
<path d="M77.2232 72.8493C77.2232 72.8493 77.4443 74.7608 75.483 76.2942C75.3689 76.3869 75.2476 76.4725 75.1192 76.5652C71.7742 79.0615 65.3337 83.8758 61.9387 86.5291C61.632 86.7359 60.9188 87.656 60.819 87.1424C60.819 86.0227 60.819 84.8958 60.9188 83.7689C60.9188 83.3623 60.9188 82.8559 60.819 82.4422C60.6121 81.5222 60.1057 80.7091 58.9788 80.6021C57.8519 80.6021 57.3455 81.4223 57.1387 82.3424C56.7321 83.7689 56.7322 85.3023 56.6323 86.7359C56.1188 91.8426 55.9119 97.0492 55.7122 102.263C55.7122 102.669 55.7122 103.183 55.8121 103.59C55.7122 104.816 56.2186 105.636 57.2457 105.636C58.1586 105.736 58.9788 105.023 59.2855 103.796C59.6921 102.163 59.799 100.423 59.9987 98.7895C60.1057 97.256 60.3054 95.7226 60.4124 93.9894C61.632 95.2162 62.9658 96.1363 64.2924 97.0492C66.7459 98.4828 71.5459 99.7095 72.359 97.6626C72.6657 96.6427 72.0523 96.0293 71.1323 95.5229C69.1923 94.1891 66.8458 93.4759 64.9058 92.0495C62.3524 90.3092 62.6591 90.8227 64.9058 89.0824C67.3307 87.2138 72.3376 83.5763 75.3047 81.4366L75.3189 81.4223C75.3189 81.4223 75.3546 81.4081 75.376 81.3867C75.5828 81.244 76.1106 80.9373 76.6527 81.0514C77.2732 81.1798 77.2874 82.5635 77.2874 82.6776C77.2874 82.6776 77.751 81.2512 77.6654 78.819C77.4943 74.0547 77.2232 72.8493 77.2232 72.8493Z" fill="white"/>
<path d="M77.266 76.444V77.7421L77.2446 76.444H77.266Z" fill="white"/>
<path d="M37.7317 88.4691C37.5249 86.0155 37.5249 83.5692 36.1983 81.3154C34.565 78.2485 30.9917 77.8419 28.638 80.3953C27.8178 81.3154 27.2044 82.3353 26.698 83.3552C24.6582 87.6488 23.6311 92.0352 22.7111 96.6355C22.5042 97.5556 22.0977 101.742 22.4044 102.869C22.6112 103.582 23.0178 104.196 23.9378 104.196C24.7581 104.196 25.1646 103.682 25.4713 103.069C25.778 102.555 25.8778 101.942 25.9848 101.336C26.2915 99.9021 26.4983 98.3758 26.698 96.9422C26.7979 96.4287 27.1046 96.0222 27.718 96.0222C29.2514 95.9223 30.7848 96.0222 32.3183 95.7155C33.4452 95.5086 33.6449 96.0222 33.6449 96.9422C33.8517 99.7024 33.6449 110.016 34.565 112.262C34.8717 112.976 35.485 113.589 36.5049 113.589C38.6518 113.489 38.5448 108.275 38.3451 106.542C38.2452 100.416 37.9385 94.3889 37.7317 88.4619V88.4691ZM32.625 91.2293C31.2984 91.2293 30.0716 91.5359 28.8449 91.6358C27.9248 91.7356 28.3313 90.7157 28.3313 90.5089C29.0446 88.2622 29.7649 85.9086 30.8847 83.7689C31.0915 83.3623 31.3982 82.8488 31.9046 82.8488C32.4181 82.9487 32.9245 84.5819 33.2312 90.409C33.2312 90.9226 33.1314 91.2293 32.6178 91.2293H32.625Z" fill="white"/>
<path d="M46.0052 78.4624C43.352 79.2827 40.9983 82.2426 41.2051 85.2025C41.412 87.549 42.0253 89.6958 43.245 91.8426C44.4717 93.9895 46.0052 95.5229 47.3318 97.6626C48.7654 99.8094 49.3716 101.849 48.8652 104.303C48.5585 105.53 47.2319 105.936 46.3119 105.223C45.5986 104.609 45.2919 103.789 44.8783 102.976C44.4717 101.65 44.4717 100.116 44.2649 98.7895C43.9582 97.8694 43.7514 96.9494 42.6316 96.9494C41.6117 96.9494 41.198 97.7696 41.0981 98.6825C40.7915 101.029 40.8913 103.283 41.9184 105.423C43.245 108.489 46.3119 110.023 48.9651 109.203C52.2317 108.283 53.5654 104.809 52.845 101.336C52.3315 97.9621 50.4985 95.4088 48.2447 92.8554C46.7113 91.1223 45.4845 89.2821 44.9781 86.9285C44.6714 85.7017 44.3647 84.475 45.185 83.3552C45.5915 82.7418 46.2049 82.1284 47.1249 82.2283C48.045 82.3281 48.5585 82.8417 48.8581 83.6619C49.2646 84.582 49.2646 85.502 49.2646 86.5219C49.1648 87.6488 49.0578 88.7686 49.3645 89.8955C49.878 91.3291 51.3045 91.6287 52.3244 90.6087C52.7309 90.2022 53.0376 89.5888 53.3443 88.2622C53.651 86.1154 53.4442 84.1754 52.8308 82.2354C51.9107 79.4752 48.744 77.7421 45.9838 78.4553L46.0052 78.4624Z" fill="white"/>
<path d="M67.7587 58.7488C67.1453 57.522 65.7188 57.6219 65.1055 58.6489C64.3922 59.569 64.2853 65.2891 63.9786 67.1292C63.8787 67.9494 63.572 68.7625 63.2653 69.4757C62.7518 70.296 62.1384 70.2959 61.4252 69.5756C60.605 68.7554 60.2983 67.8424 59.8918 66.7155C58.9717 63.9553 59.3782 61.0953 59.3782 58.2352C59.3782 57.2153 59.1714 56.2952 57.9446 55.9886C56.7179 55.6819 56.2115 56.6019 55.7978 57.6219C54.6709 60.3821 54.6709 63.342 55.2843 66.3019C55.7978 68.6484 56.4112 70.7952 58.2442 72.4285C61.0044 74.6752 64.4778 74.3685 66.3108 71.2018C68.044 68.7482 68.4577 59.8614 67.7444 58.7416L67.7587 58.7488Z" fill="white"/>
<path d="M46.8183 54.0486C47.2248 53.8417 47.7383 53.7419 48.2518 53.642H48.152C47.6385 53.7419 47.2319 53.9487 46.8254 54.0486C44.1722 55.3752 42.8384 57.4221 42.2251 59.9755C42.7386 57.522 44.165 55.2753 46.8254 54.0486H46.8183Z" fill="white"/>
<path d="M25.6781 74.1688C29.6651 74.6823 33.545 72.1289 34.7718 68.2418C35.7917 64.8683 35.3852 60.7815 32.732 58.0284L31.0987 56.0884C31.5052 55.2682 37.639 49.6551 33.8589 42.2945C33.759 42.1947 33.652 41.9878 33.5522 41.888C31.9189 39.6413 29.4654 38.3147 26.912 39.0279C24.4585 39.7412 23.032 41.3745 21.7054 43.4214C19.5586 47.1017 18.4388 50.9817 17.8255 54.7618C17.3119 57.9285 16.6986 60.5818 17.6186 63.3419C17.7185 64.0552 18.3318 64.8754 19.0522 64.8754C19.8724 64.8754 20.7854 64.4689 20.9922 63.3419C21.7054 58.7416 22.7253 54.2483 23.9521 49.8548C24.4656 48.0146 25.079 46.2815 26.2986 44.6482C26.912 43.7281 27.8321 43.1147 29.0588 43.3216C30.2856 43.7281 30.6921 44.6482 31.0987 45.7751C31.6122 47.7151 30.792 49.3484 29.8719 50.9817C28.9518 52.7148 27.4184 53.7419 25.6852 54.555C24.1518 55.475 24.1518 56.4949 25.5854 57.5149C26.0989 57.8216 26.7123 58.1282 27.2187 58.5348C30.1786 60.5746 31.2056 63.3348 30.2856 66.7084C29.5724 69.4686 27.019 70.3887 24.6653 68.8552C23.7453 68.3417 23.032 67.6285 22.112 67.2219C21.5984 66.9152 20.8852 66.8154 20.2718 66.9152C19.8653 67.0151 19.4516 67.1221 19.0451 67.5286C18.4317 68.142 18.5316 68.8552 18.8382 69.4686C20.8781 72.3287 23.0249 73.8621 25.6852 74.1688H25.6781Z" fill="white"/>
<path d="M55.3984 73.6624C52.3315 70.9022 48.9651 68.8624 45.6913 66.202C45.3847 65.9952 44.8711 65.6885 44.9781 65.3818C45.078 64.8683 45.6913 64.8683 46.105 64.7684C50.8052 63.6415 54.1717 59.5618 54.2786 54.7547C54.3785 53.2212 53.6653 51.9945 52.6453 50.9745C50.4985 49.2414 48.152 49.4411 45.6985 50.461C43.245 51.4809 42.2251 52.7077 41.9184 53.1142C41.7115 51.8875 41.6117 50.9674 41.305 48.5139C41.2051 47.8007 40.7915 47.2871 39.9784 47.1873C38.3451 47.0874 38.1382 48.9204 38.1382 49.3341C37.8316 51.8875 37.425 63.2278 37.5249 66.3946C37.6247 68.1277 37.7317 69.9679 38.3451 71.7081C38.6518 72.4214 38.9585 72.835 39.6717 72.835C40.3849 72.835 40.7986 72.4285 40.9983 71.8151C41.305 70.9949 41.4048 70.2817 41.5118 69.3616C41.6117 68.6484 41.8185 68.3417 42.5317 68.9551C44.2649 70.4885 46.212 71.915 48.045 73.3486C50.2917 74.882 52.4385 76.6152 54.9919 77.6422C55.8121 77.9489 56.5253 78.0488 57.1387 77.2357C57.7521 76.5224 57.5452 75.8021 56.9319 75.0888C56.5253 74.5753 55.9119 74.1688 55.3984 73.6553V73.6624ZM42.5246 61.402C42.0111 61.402 42.0111 61.0953 42.2179 60.0754C42.7314 57.522 44.1579 55.3752 46.7113 54.1484C47.2248 53.9416 47.6313 53.8417 48.1449 53.7419H48.6584C49.6783 53.7419 50.1918 54.5621 49.985 55.582C49.8851 56.2952 49.4715 57.1155 48.9651 57.7288C46.5116 61.2023 42.7314 61.4091 42.5317 61.4091L42.5246 61.402Z" fill="white"/>
<path fill-rule="evenodd" clip-rule="evenodd" d="M75.6256 23.9146C76.7525 24.9345 77.8723 25.7547 79.099 26.8745C77.5656 28.6077 75.9323 30.4478 74.3989 32.1881C70.5189 36.4817 66.7388 40.7682 62.2454 44.4485C61.9387 44.6553 61.632 44.855 61.3254 44.962C60.5051 45.3686 59.5922 45.2687 58.9788 44.7552C58.3654 44.0419 58.3654 43.1219 58.879 42.3017C60.4124 40.4615 62.1456 38.8282 63.7789 36.9881C65.8187 34.6416 68.0725 32.3878 70.1123 30.0412C72.1522 28.1013 73.8925 26.0543 75.6256 23.9146Z" fill="#141915"/>
<path d="M83.5924 28.1013C89.7413 28.1013 94.7259 23.1166 94.7259 16.9677C94.7259 10.8189 89.7413 5.83422 83.5924 5.83422C77.4435 5.83422 72.4589 10.8189 72.4589 16.9677C72.4589 23.1166 77.4435 28.1013 83.5924 28.1013Z" fill="#FB5E93"/>
<path fill-rule="evenodd" clip-rule="evenodd" d="M76.6527 17.0676C76.9594 14.4144 78.6925 12.8809 81.146 12.0607C81.5526 11.9609 81.9662 11.8539 82.3728 11.9609C83.086 12.0607 83.8064 12.1677 84.1059 12.9808C84.4126 13.801 84.0061 14.6141 83.3927 14.9208C81.4527 15.741 80.8393 17.4741 80.1261 19.2144C79.8194 20.1345 79.3059 21.0546 78.0863 20.8477C77.1662 20.7479 76.453 19.7208 76.3531 18.3942C76.453 18.0875 76.5599 17.574 76.6598 17.0676H76.6527Z" fill="white"/>
<path fill-rule="evenodd" clip-rule="evenodd" d="M86.5594 14.4144C86.6593 13.3945 87.3796 13.0878 88.1927 13.1876C89.0058 13.2875 89.4195 13.9009 89.3196 14.6212C89.2198 15.3416 88.7063 15.9478 87.7862 15.848C87.073 15.7481 86.5594 15.1347 86.5594 14.4144Z" fill="white"/>
<path d="M24.0448 80.5023C24.0448 81.4223 23.0178 82.5492 21.898 82.6491C21.0778 82.8559 20.2647 82.8559 19.4445 82.8559C19.0379 82.8559 18.7313 82.9558 18.7313 83.4693V89.596C18.8311 93.6828 18.7313 97.6626 18.4246 101.749C18.4246 102.363 18.4246 102.976 18.1179 103.49C17.8112 104.203 17.1978 104.816 16.2777 104.716C15.4647 104.609 15.051 103.996 14.8513 103.183C14.6444 101.856 14.6444 100.523 14.6444 99.196C14.6444 93.9895 14.6444 88.8827 14.7443 83.7689C14.7443 83.1626 14.5446 82.8559 13.9312 82.8559H12.1909L9.01706 82.9986C8.65332 83.0556 7.84023 83.291 7.8117 84.3394C7.79031 85.0455 7.70472 82.7204 7.70472 80.7376C7.70472 78.9403 7.77604 77.4996 7.77604 77.4996C7.77604 77.4996 7.82597 78.8333 9.18111 78.819C9.2453 78.819 9.29522 78.8262 9.34515 78.8333C13.0753 78.6479 16.7199 78.5552 20.3574 78.4624C20.8709 78.4624 21.3773 78.4624 21.8909 78.5623C23.1176 78.6621 24.0377 79.5822 24.0377 80.5023H24.0448Z" fill="white"/>
</g>
<defs>
<clipPath id="clip0_1_7">
<rect width="99" height="125.172" fill="white"/>
</clipPath>
</defs>
</svg>
