<svg width="350" height="609" viewBox="0 0 350 609" fill="none" xmlns="http://www.w3.org/2000/svg">
<g clip-path="url(#clip0_1_109)">
<path d="M111.988 511.041C111.988 511.041 97.2855 499.47 93.6316 500.862C89.9777 502.254 85.1059 510.171 89.3688 514.608C93.6316 519.045 103.462 526.091 105.376 523.481C107.203 520.872 113.728 514.434 111.988 511.041Z" fill="black"/>
<path d="M143.568 382.634C139.044 373.76 134.607 364.973 130.083 356.1C129.3 354.621 128.604 353.142 127.821 351.663C128.778 350.01 130.779 350.358 132.084 349.401C132.432 349.14 132.78 348.966 133.128 348.792C137.13 346.269 138.783 342.441 137.739 337.743C136.869 334.003 135.216 330.697 132.258 328.261C131.127 327.304 130.779 326.521 131.214 325.129C132.432 320.605 133.215 315.994 133.824 311.296C134.259 307.73 134.346 304.163 133.389 300.596C131.997 295.724 128.604 293.027 123.733 291.983C122.167 291.635 120.688 292.07 119.209 292.331C118.339 292.505 117.556 292.244 117.034 291.548C116.686 291.113 116.338 290.678 115.99 290.243C110.683 284.501 104.245 281.892 96.3286 283.022C91.3698 283.805 86.7589 285.632 82.4091 287.981C77.0153 290.852 72.0565 294.332 67.1847 297.899C66.0537 298.682 65.0967 300.161 63.7048 299.9C62.5738 299.726 61.6169 298.682 60.5729 297.986C58.485 296.594 56.3101 295.376 53.7872 295.115C49.2633 294.593 46.3924 298.16 47.7844 302.423C48.2194 303.728 48.8284 304.859 49.3503 306.164C47.9584 306.599 46.7404 305.99 45.5225 305.816C43.8695 305.729 42.2166 305.642 40.6507 306.251C37.6058 307.469 36.4748 309.557 37.1708 312.775C37.6058 314.776 38.7367 316.255 40.0417 317.734C44.3915 322.345 49.8723 325.216 55.7881 327.304C57.615 328 57.615 327.913 57.441 329.914C56.9191 336.525 56.3101 343.137 55.8751 349.662C55.5271 354.621 55.7881 359.58 56.4841 364.538C56.8321 367.409 57.615 370.193 58.746 372.89C62.3128 381.068 68.1416 384.722 77.0153 384.026C77.7113 383.939 78.4072 383.852 79.1032 383.765C86.4979 382.721 93.4577 380.111 100.417 377.414C101.026 377.153 101.722 376.805 102.244 376.37C102.679 376.022 102.94 375.587 103.201 375.065C103.549 374.369 102.853 373.325 102.07 373.151C101.2 373.064 100.504 373.412 99.7215 373.673C94.6756 375.5 89.6298 377.327 84.41 378.806C80.7562 379.763 77.1023 380.372 73.3614 380.198C69.1856 379.937 66.0537 378.11 63.7918 374.543C62.0519 371.846 61.0079 368.888 60.4859 365.669C59.181 358.536 59.616 351.402 59.8769 344.181C59.8769 343.398 59.7029 342.528 60.6599 341.745C62.6608 342.615 64.9228 342.267 67.1847 341.919C67.7066 343.224 67.3587 344.355 67.2717 345.399C67.1847 347.748 66.9237 350.097 66.7497 352.446C66.6627 355.143 67.5327 356.187 70.1426 356.709C71.0995 356.883 72.0565 356.97 73.0134 356.97C73.9704 356.97 74.6664 356.274 74.7534 355.491C74.8404 354.708 74.4924 354.099 73.8834 353.751C73.4484 353.49 72.8395 353.403 72.3175 353.229C70.5775 352.533 70.5775 352.533 70.6645 350.88C71.0125 345.921 71.3605 340.962 71.7085 336.004C71.7955 335.047 71.7955 334.09 71.6215 333.133C71.5345 332.437 71.0125 331.828 70.2295 331.828C69.4466 331.741 68.8376 332.089 68.6636 332.785C68.3156 334.003 68.1416 335.221 67.8806 336.438C67.7936 336.786 67.6196 337.308 67.3587 337.569C66.1407 338.787 63.1828 339.048 61.5299 338.178C60.8339 337.83 60.3989 337.395 60.4859 336.613C60.6599 334.699 60.8339 332.785 61.0079 330.871C61.0949 330.088 61.7039 329.74 62.4868 329.914C63.7918 330.175 65.1837 330.523 66.4887 330.697C66.9237 330.784 67.5327 330.436 67.7067 329.827C67.8806 329.218 67.8806 328.609 67.4457 328.261C66.5757 327.652 65.6187 327.217 64.7488 326.695C64.9227 325.999 65.3577 325.825 65.8797 325.564C76.9283 320.779 88.0639 316.603 99.3735 312.427C100.678 311.905 101.113 312.079 101.722 313.21C105.637 320.344 109.639 327.478 113.554 334.525C114.25 335.743 114.511 336.787 113.815 338.004C113.206 339.135 112.771 340.266 113.032 341.571C113.206 342.267 113.554 342.876 114.424 342.876C114.946 342.876 115.555 342.876 115.816 342.267C115.99 341.919 116.251 341.571 116.338 341.136C116.773 339.048 118.078 337.395 119.209 335.656C120.601 333.568 122.428 331.828 124.603 330.61C126.864 329.392 128.778 329.74 130.518 331.654C131.649 332.872 132.432 334.351 133.128 335.83C135.477 341.223 133.911 344.964 128.343 346.791C126.516 347.4 124.603 347.574 122.602 347.574C121.471 347.574 120.427 347.661 119.383 347.922C118.948 348.009 118.426 348.618 118.6 349.227C118.687 349.749 118.948 350.271 119.296 350.619C119.557 350.88 120.079 351.054 120.427 350.967C123.211 350.619 124.342 352.272 125.124 354.534C125.82 356.361 126.777 358.014 127.647 359.754C131.301 366.974 134.955 374.282 138.609 381.503C139.392 382.982 139.479 384.2 138.957 385.853C135.912 394.9 131.388 402.991 125.124 410.125C122.602 412.909 119.905 415.345 116.686 417.346C114.511 418.65 112.336 419.607 109.813 420.129C107.551 420.651 105.376 420.303 103.375 419.346C100.852 418.215 99.2865 416.128 98.1555 413.692C96.5896 410.386 95.8936 406.906 95.8066 403.252C95.7196 399.424 95.7196 395.509 96.4156 391.681C96.6766 390.376 96.5896 388.985 96.5896 387.593C96.5896 387.245 96.3286 386.81 95.8066 386.723C95.1976 386.549 94.5886 386.723 94.3276 387.158C93.8927 387.854 93.6317 388.637 93.4577 389.42C92.0657 395.422 91.7177 401.425 92.5877 407.515C93.1097 410.908 94.1537 414.214 96.0676 417.171C99.5474 422.565 105.202 424.827 111.466 423.261C115.033 422.391 118.165 420.651 121.036 418.476C124.342 415.954 127.212 412.996 129.822 409.777C134.694 403.687 138.435 396.988 141.393 389.768C141.915 388.463 142.35 387.158 143.133 386.027C144.351 385.07 144.264 384.026 143.568 382.634ZM128.256 319.561C127.473 319.735 126.603 318.865 126.777 318.082C126.864 317.299 127.386 316.864 128.082 316.69C128.691 316.603 129.3 317.299 129.3 318.169C129.3 318.778 129.126 319.387 128.256 319.561ZM129.909 312.514C129.735 313.123 129.213 313.384 128.691 313.384C128.082 313.384 127.647 313.036 127.473 312.427C127.212 311.122 127.56 308.687 127.386 307.295C126.951 303.554 125.646 301.031 122.428 298.508C122.167 298.247 121.993 297.812 122.254 297.377C122.602 296.855 123.037 296.594 123.646 296.681C125.733 297.029 127.038 298.421 127.995 300.161C129.648 302.945 130.257 305.99 130.344 309.817C130.257 310.339 130.17 311.383 129.909 312.514Z" fill="black"/>
<path d="M254.402 329.392C253.619 329.305 252.749 329.305 251.966 329.218C243.875 328.87 237.524 322.432 235.784 315.907C234.479 311.209 234.74 306.599 236.393 302.075C239.09 294.854 243.962 289.721 251.357 287.111C254.141 286.154 254.141 286.154 253.445 283.109C252.401 277.977 250.835 273.018 249.095 268.059C247.616 263.883 245.789 259.881 243.44 256.14C239.351 249.703 234.305 244.396 227.52 240.916C226.302 240.307 225.084 239.611 223.692 239.524C218.733 239.089 213.774 239.35 208.989 241.09C203.161 243.265 198.898 247.006 196.201 252.661C193.33 258.576 190.285 264.492 187.327 270.408C186.805 271.452 186.196 271.887 185.065 271.539C177.758 269.451 171.755 271.974 166.535 276.846C162.533 280.587 160.532 285.284 160.445 290.852C160.358 295.724 161.837 300.074 164.882 303.902C166.535 305.99 166.274 305.816 164.969 307.73C164.534 308.425 164.012 309.121 163.577 309.817C162.446 311.731 161.837 313.819 161.837 316.081C161.924 320.605 163.403 324.433 166.796 327.478C167.753 328.348 169.145 328.87 169.667 330.175C168.101 331.045 166.448 331.828 164.969 332.872C161.75 335.307 160.619 338.961 161.837 342.789C162.446 344.703 163.403 346.356 164.882 347.574C166.97 349.401 169.145 351.054 171.581 352.446C173.408 353.403 175.409 354.099 177.41 354.36C181.237 354.882 185.152 354.882 188.893 354.099C190.633 353.751 192.373 353.316 194.113 352.881C194.896 352.707 195.679 352.62 196.375 353.142C196.201 353.229 195.94 353.316 195.766 353.403C186.892 360.972 179.758 370.019 174.278 380.459C173.93 381.068 173.669 381.677 173.495 382.373C173.147 383.33 173.495 384.113 174.191 384.461C174.974 384.809 175.583 384.461 176.018 383.939C176.801 382.982 177.41 381.851 178.106 380.807C181.846 374.804 186.109 369.236 190.72 363.929C197.158 356.535 204.9 350.88 213.948 347.139C215.949 346.269 215.949 346.356 217.08 348.27C217.341 348.705 217.602 349.227 217.95 349.662C218.211 349.923 218.733 350.097 219.081 350.01C219.603 349.923 220.038 349.488 220.125 348.879C220.299 347.922 219.951 346.965 219.69 346.095C217.95 340.701 216.471 335.307 214.296 329.914C214.992 329.74 215.427 329.479 215.949 329.392C217.428 329.131 218.994 329.044 220.473 328.783C221.169 328.696 221.865 328.609 222.474 328.435C223.17 328.174 223.605 327.652 223.518 326.869C223.431 326.086 222.996 325.564 222.213 325.564C220.386 325.651 218.646 325.738 216.906 325.912C209.337 326.695 201.769 326.608 194.287 324.781C191.503 324.085 188.719 323.128 186.283 321.562C181.411 318.43 178.714 314.08 178.627 308.165C178.627 305.99 178.801 303.815 179.236 301.553C179.758 298.595 180.541 295.637 181.498 292.766C183.586 286.154 186.37 279.891 189.415 273.714C190.285 271.887 190.72 271.8 192.634 272.409C194.2 272.931 195.157 273.975 196.201 275.106C197.419 276.411 197.941 277.629 197.245 279.543C195.766 283.805 194.548 288.242 193.33 292.592C193.069 293.549 192.895 294.419 192.721 295.376C192.634 296.072 192.982 296.768 193.591 297.116C195.331 298.247 197.419 298.682 199.42 298.856C200.116 298.943 200.725 298.334 200.899 297.638C201.073 297.116 200.812 296.507 200.377 296.159C199.681 295.724 198.898 295.376 198.202 295.028C196.636 294.332 196.636 294.245 197.071 292.505C197.419 291.461 197.767 290.417 198.115 289.373C199.246 285.98 200.029 282.5 200.812 278.934C201.421 276.063 200.551 273.801 198.55 271.887C197.245 270.582 195.853 269.538 194.026 269.103C193.417 268.929 192.634 269.016 192.112 267.972C194.287 263.535 196.636 258.924 198.985 254.14C200.551 255.531 201.16 257.271 202.204 258.75C203.248 260.229 204.205 261.708 205.248 263.187C206.292 264.666 207.423 266.058 208.467 267.537C209.511 268.929 210.903 270.06 211.599 271.887C210.294 272.322 209.25 272.496 208.293 272.931C207.684 273.279 207.423 273.975 207.684 274.758C207.858 275.28 208.293 275.715 208.902 275.715C210.555 275.715 212.208 275.802 213.861 275.628C214.818 275.541 215.427 275.715 216.036 276.324C222.213 282.848 228.999 288.677 235.958 294.332C236.045 294.419 236.045 294.593 236.219 294.941C235.088 296.942 233.87 299.117 233.087 301.466C229.956 310.687 231.696 321.562 241.091 328.435C245.006 331.306 249.443 332.524 254.315 332.176C255.272 332.089 255.881 331.393 255.794 330.61C255.62 329.827 255.098 329.479 254.402 329.392ZM196.549 353.229C196.462 353.229 196.462 353.229 196.375 353.316L196.201 353.142L196.549 353.229ZM182.89 348.096C183.586 348.096 183.76 348.705 183.847 349.14C183.934 349.749 183.064 350.358 182.455 350.271C181.846 350.184 181.498 349.749 181.411 349.227C181.324 348.792 182.281 348.096 182.89 348.096ZM167.666 321.736C167.666 321.301 167.753 320.866 168.275 320.953C168.449 320.953 168.623 321.127 168.797 321.214C170.363 322.258 171.581 323.737 172.364 325.477C172.799 326.434 171.494 326.695 170.885 326.521C169.841 326.173 168.971 325.129 168.449 324.259C168.362 323.911 167.753 322.606 167.666 321.736ZM177.497 349.662C174.887 350.358 170.972 347.922 169.232 346.269C167.057 344.268 165.491 341.571 165.404 338.526C165.404 338.004 165.491 337.482 165.752 337.134C167.057 335.569 167.492 338.613 167.666 339.222C168.014 340.353 168.449 341.397 169.058 342.354C170.276 344.181 172.103 345.573 174.191 346.356C175.322 346.791 176.453 347.313 177.584 347.748C178.193 348.009 178.366 348.879 177.845 349.314C177.845 349.575 177.671 349.662 177.497 349.662ZM184.543 275.976C184.282 276.759 183.934 277.542 183.586 278.238C179.671 286.85 176.54 295.811 175.235 305.294C175.235 305.381 175.061 305.555 174.974 305.816C171.32 305.642 168.623 303.728 166.535 300.857C164.882 298.595 164.012 295.898 164.012 293.114C164.012 285.632 167.231 279.891 173.669 276.063C176.714 274.236 180.106 273.801 183.586 274.497C184.369 274.584 184.804 275.28 184.543 275.976ZM228.303 281.109C228.042 281.283 227.52 281.457 227.172 281.283C226.563 281.022 225.954 280.587 225.432 280.152C217.602 273.627 210.642 266.232 204.813 257.793C204.205 256.923 203.77 255.879 203.335 254.923C203.248 254.662 203.596 254.227 203.683 253.792C204.031 253.879 204.292 253.879 204.553 253.966C204.901 254.227 205.161 254.488 205.422 254.836C211.077 262.317 217.602 269.016 224.388 275.454C225.78 276.759 227.085 278.151 228.39 279.543C228.825 280.065 228.825 280.674 228.303 281.109ZM233.174 286.763C232.043 286.676 231.174 285.893 231.174 285.11C231.174 284.501 231.869 283.718 232.478 283.718C233.435 283.718 234.305 284.414 234.392 285.458C234.479 286.154 233.87 286.85 233.174 286.763Z" fill="black"/>
<path d="M50.0463 62.8339C50.0463 65.0088 50.0463 67.2707 50.0463 69.4456C50.0463 70.4896 50.4813 70.9246 51.6123 70.8376C64.5748 69.9676 77.0153 67.2707 87.8029 59.441C89.2819 58.397 90.7608 57.4401 92.2398 56.3961C92.8487 56.0481 93.3707 55.7001 93.9797 55.3521C94.7627 55.0042 95.3717 55.2652 95.8066 55.8741C96.2416 56.4831 96.0676 57.1791 95.5456 57.7881C95.1977 58.223 94.7627 58.571 94.3277 58.919C84.4101 66.8357 73.3615 72.1425 60.6599 73.3605C57.6151 73.6215 54.6572 73.9695 51.6123 74.2304C50.2203 74.4044 49.9593 74.5784 49.8724 75.9704C49.7854 77.1013 49.7853 78.1453 49.7853 79.2763C49.7853 92.2388 49.7854 105.201 49.8724 118.164C49.9593 123.558 50.3073 128.951 50.5683 134.258C50.8293 138.869 51.8733 140.087 56.3101 140.957C63.3568 142.436 70.3166 141.827 77.0153 139.304C79.9732 138.173 82.8441 136.868 85.541 135.128C89.4559 132.605 93.3707 129.908 97.1986 127.298C98.0685 126.689 98.9385 125.907 99.9825 125.646C100.591 125.472 101.113 125.82 101.461 126.255C101.809 126.689 101.896 127.298 101.548 127.82C101.026 128.429 100.417 129.038 99.8085 129.56C94.5017 133.736 88.9339 137.564 82.7571 140.522C74.2314 144.611 65.1838 146.09 55.7881 144.176C55.5271 144.089 55.2661 144.002 55.0052 144.002C49.4374 142.61 47.6104 140.522 47.2624 134.867C46.8275 128.516 46.3925 122.166 46.3925 115.902C46.3055 101.721 46.3925 87.4539 46.4795 73.2735C46.4795 67.6187 46.9145 61.9639 46.9145 56.3091C46.9145 53.1772 48.3934 51.4373 51.0903 50.3933C52.4822 49.8713 53.9612 49.5234 55.4401 49.1754C63.2698 47.4354 70.9256 45.4345 78.4943 42.6506C84.932 40.3017 90.6738 36.7348 95.6326 32.124C98.6775 29.2531 101.548 26.2952 104.419 23.4243C109.726 18.1175 115.99 14.6377 123.124 12.5497C124.342 12.2018 125.56 12.0278 126.777 11.9408C128.778 11.7668 130.17 12.7237 130.866 14.7247C131.127 15.3336 131.301 16.0296 131.475 16.7256C132.432 21.0754 132.954 25.4253 133.215 29.8621C133.215 30.3841 133.215 30.9931 133.041 31.515C132.954 31.863 132.519 32.124 132.171 32.298C131.649 32.472 131.04 32.298 130.692 31.776C130.083 30.8191 129.996 29.6881 129.822 28.6441C129.3 25.2513 128.778 21.8584 128.256 18.4655C128.169 18.0305 128.169 17.6826 128.082 17.2476C127.734 15.4206 127.299 15.1596 125.56 15.5946C118.774 17.2476 112.684 20.2925 107.464 25.1643C106.246 26.2952 105.028 27.4262 103.984 28.7311C95.1107 39.0838 83.9751 45.7825 70.7516 49.1754C65.7058 50.4803 60.6599 51.8723 55.5271 53.0032C54.2222 53.2642 52.8302 53.6992 51.6123 54.2212C50.4813 54.6562 49.8724 55.5261 49.8724 56.7441C50.0463 58.484 50.0463 60.659 50.0463 62.8339Z" fill="#020202"/>
<path d="M255.272 186.021C255.359 188.196 255.446 190.458 255.446 192.633C255.446 193.851 255.272 195.069 255.098 196.287C254.663 199.071 253.01 200.811 250.313 201.333C247.181 201.942 244.049 202.551 240.917 202.812C237.35 203.073 233.783 203.073 230.217 203.073C226.998 203.073 224.475 201.681 224.04 197.244C223.605 192.546 223.083 187.935 222.996 183.237C222.996 182.28 222.996 181.323 223.083 180.367C223.257 176.626 225.258 174.277 228.738 173.059C230.739 172.363 232.739 171.841 234.74 171.754C239.264 171.58 243.788 171.406 248.399 171.493C251.966 171.58 253.271 172.798 253.967 176.365C254.315 178.105 254.576 179.845 254.924 181.671C252.749 186.369 248.138 188.109 243.962 190.284C242.744 190.893 241.613 189.849 240.656 189.066C239.612 188.196 239.177 186.717 237.698 186.282C239.177 192.111 242.309 193.416 247.442 190.458C250.052 188.805 251.879 185.934 255.272 186.021Z" fill="#0EB770"/>
<path d="M279.631 217.427C279.979 220.82 280.153 224.3 279.979 227.693C279.892 229.085 279.805 230.476 279.457 231.781C278.848 234.391 277.195 236.218 274.411 236.653C268.669 237.61 262.927 238.219 257.186 237.175C252.836 236.392 251.27 234.826 250.661 230.389C249.878 225.605 249.878 220.82 250.574 216.035C251.096 212.381 253.097 210.293 256.751 209.858C262.492 209.162 268.234 208.64 274.063 209.249C276.499 209.51 278.326 210.38 279.022 212.903C279.457 214.73 277.804 215.165 276.934 216.035C274.498 218.297 271.714 220.124 269.104 222.125C263.797 226.127 263.797 226.127 259.621 221.255C259.708 223.778 260.665 225.518 262.318 226.301C264.232 227.171 265.798 226.388 267.277 225.344C270.148 223.256 272.932 220.994 275.89 218.993C276.847 218.21 277.804 216.557 279.631 217.427Z" fill="#0EB770"/>
<path d="M86.063 90.0638C86.063 92.1517 86.063 94.1527 86.063 96.2406C86.15 99.2855 84.671 101.46 82.0611 102.939C80.8432 103.548 79.6252 104.244 78.3203 104.592C75.5364 105.462 72.7525 106.071 69.9686 106.854C69.2726 107.028 68.5766 107.115 67.9676 107.115C64.8358 107.202 63.3568 106.071 62.8348 103.026C62.6608 101.808 62.3998 100.59 62.3998 99.3725C62.3128 95.2836 62.3128 91.1078 62.3998 87.0189C62.4868 83.4521 63.2698 82.4951 66.7497 81.4512C71.3605 80.0592 75.9713 78.6673 80.5822 77.3623C83.975 76.4053 84.845 77.1013 85.541 80.6682C86.15 83.7131 85.976 86.9319 86.063 90.0638Z" fill="#20BEFF"/>
<path d="M234.653 409.951C230.739 409.777 227.694 408.472 225.171 405.862C222.996 403.687 221.43 401.077 220.038 398.38C216.819 392.377 214.47 386.114 212.904 379.502C211.077 372.107 209.859 364.625 208.902 357.144C208.815 356.187 208.815 355.23 208.902 354.273C208.902 353.664 209.511 353.316 209.946 353.142C210.729 352.968 211.338 353.49 211.599 354.099C211.86 354.882 211.947 355.665 212.121 356.535C213.6 364.364 214.992 372.281 216.906 380.024C218.385 386.027 220.647 391.855 223.518 397.336C224.649 399.424 225.867 401.425 227.433 403.078C231 406.819 235.349 407.428 239.786 404.818C241.613 403.774 243.092 402.295 244.31 400.642C246.311 397.945 247.79 395.074 249.095 391.942C252.14 384.548 254.576 376.979 256.49 369.149C256.751 367.931 257.012 366.713 257.36 365.582C257.534 364.886 258.056 364.364 258.839 364.538C259.622 364.712 259.97 365.408 259.883 366.104C259.883 367.061 259.708 368.018 259.535 368.975C257.36 378.11 254.576 386.984 250.835 395.683C249.53 398.728 247.877 401.599 245.702 404.122C242.831 407.689 239.003 409.69 234.653 409.951Z" fill="#030303"/>
<path d="M195.244 231.086C195.331 224.735 195.766 218.471 196.549 212.207C197.593 204.117 201.073 197.331 206.64 191.415C209.076 188.805 211.773 186.456 214.557 184.194C215.079 183.759 215.688 183.411 216.384 183.324C216.906 183.15 217.428 183.411 217.863 183.933C218.211 184.455 218.298 184.977 217.95 185.412C217.341 186.108 216.645 186.804 215.949 187.5C212.643 190.371 209.424 193.416 206.64 196.809C203.248 200.985 201.247 205.683 200.377 210.989C199.42 216.296 198.985 221.603 198.811 226.997C198.724 230.477 198.724 233.87 198.724 237.349C198.724 239.002 198.637 240.655 198.55 242.308C198.463 244.048 197.941 244.657 196.81 244.57C195.766 244.483 195.418 243.874 195.418 242.047C195.418 241.525 195.418 240.916 195.418 240.394C195.244 237.175 195.244 234.131 195.244 231.086Z" fill="#060606"/>
<path d="M91.8917 356.796C91.8047 359.841 90.4998 362.451 87.8029 364.277C85.106 366.104 82.0611 366.887 78.7552 366.278C77.3632 366.017 76.1453 365.321 75.2753 364.19C73.7094 362.19 73.9704 359.58 75.8843 357.927C76.4063 357.492 77.0153 357.057 77.6242 356.796C79.8862 355.926 81.2781 354.708 81.1041 351.924C81.0171 350.184 82.2351 348.792 83.975 348.357C85.9759 347.748 87.8029 348.444 89.2818 349.836C91.1957 351.663 91.8917 354.012 91.8917 356.796Z" fill="#020202"/>
<path d="M64.6618 120.339C63.5309 120.252 62.5739 120.513 61.7039 119.904C61.1819 119.556 60.9209 119.121 61.0079 118.512C61.0949 118.164 61.3559 117.729 61.7039 117.555C62.3129 117.294 63.0089 117.12 63.7048 117.033C75.0144 115.989 85.0191 111.9 94.0667 105.201C96.8506 103.113 99.5475 101.025 102.244 98.9374C105.898 96.0665 109.9 94.1526 114.25 92.7607C114.772 92.5867 115.294 92.5867 115.816 92.5867C115.99 92.5867 116.251 92.8477 116.425 93.1086C116.686 93.3696 116.686 93.6306 116.425 93.8046C115.381 94.9356 114.25 95.8925 112.858 96.4145C108.943 97.8065 105.55 100.242 102.331 102.852C99.8955 104.853 97.3726 106.767 94.8497 108.681C86.672 114.945 77.3633 118.512 67.2717 120.078C66.4017 120.252 65.4448 120.339 64.6618 120.339Z" fill="#050505"/>
<path d="M270.409 355.839C275.716 370.193 280.936 384.548 285.807 399.076C286.242 400.207 286.59 401.425 286.938 402.643C287.199 403.513 286.677 404.47 285.895 404.644C285.112 404.818 284.503 404.47 284.155 403.861C283.633 402.904 283.285 401.86 282.937 400.816C279.109 390.377 275.281 379.85 271.453 369.41C269.887 365.148 268.234 360.885 266.668 356.622C267.625 354.273 268.93 354.36 270.409 355.839Z" fill="#060505"/>
<path d="M270.409 355.839C269.104 355.491 267.799 355.491 266.668 356.448C265.102 355.839 263.362 356.1 261.796 356.1C259.012 356.013 256.316 355.578 253.706 354.621C251.792 353.925 250.4 352.794 249.617 350.88C249.008 349.488 249.269 348.183 250.139 346.965C250.313 346.704 250.835 346.443 251.183 346.443C251.531 346.443 251.792 346.878 252.14 347.139C252.227 347.226 252.227 347.4 252.227 347.487C252.053 350.532 254.054 351.576 256.49 352.011C259.273 352.533 262.144 353.229 265.015 352.359C266.233 351.663 267.538 351.576 268.93 352.098C273.106 352.272 277.108 350.967 281.023 349.836C286.503 348.357 291.723 346.356 296.595 343.398C297.552 342.789 298.074 343.311 298.074 344.442C298.161 345.747 297.552 346.443 296.508 347.052C292.071 349.488 287.373 351.489 282.502 352.881C278.413 353.925 274.411 354.795 270.409 355.839Z" fill="#F6709E"/>
<path d="M263.275 347.139C261.274 346.878 259.186 346.704 257.186 346.356C256.142 346.182 255.011 345.834 254.054 345.312C251.009 343.746 250.487 340.266 252.662 337.657C253.358 336.787 254.315 336.178 255.359 335.83C256.055 335.569 256.751 335.569 257.186 336.265C257.534 336.787 257.273 337.309 256.925 337.744C256.403 338.353 255.707 338.787 255.185 339.483C254.228 340.614 254.489 342.006 255.794 342.528C257.708 343.311 259.621 344.094 261.709 343.485C263.101 342.354 264.319 342.963 265.624 343.659C267.451 343.92 269.191 343.398 270.931 343.05C276.586 341.919 282.154 340.44 287.46 338.005C290.853 336.439 294.072 334.612 296.682 331.828C296.943 331.567 297.204 331.219 297.813 331.393C298.596 333.394 297.987 334.96 296.247 336.265C292.767 338.788 289.026 340.875 285.025 342.354C279.892 344.268 274.585 345.834 269.104 346.617C268.408 346.704 267.799 346.965 267.103 347.226C265.885 348.183 264.58 348.183 263.275 347.139Z" fill="#F6709E"/>
<path d="M146.613 228.65C152.354 228.737 157.139 230.216 161.837 232.478C166.1 234.565 169.841 237.262 173.408 240.394C178.975 245.266 184.195 250.66 189.328 256.054C189.589 256.315 189.937 256.663 190.111 257.011C190.285 257.533 190.546 258.055 189.937 258.49C189.415 258.838 188.893 258.925 188.458 258.577C187.762 258.142 187.153 257.533 186.544 257.011C182.89 253.444 179.236 249.964 175.583 246.397C171.929 242.83 167.84 239.785 163.49 237.088C158.357 233.956 152.789 232.13 146.7 231.956C145.743 231.956 144.786 231.782 143.829 231.521C143.133 231.347 142.524 230.999 142.611 230.129C142.698 229.346 143.22 228.911 143.916 228.824C144.873 228.737 146.004 228.737 146.613 228.65Z" fill="#060606"/>
<path d="M83.627 500.775C83.4531 501.384 83.1921 501.819 82.5831 501.906C82.0611 501.993 81.4521 501.993 80.9301 501.819C80.2342 501.645 79.6252 501.297 79.0162 500.949C68.4026 495.034 57.876 489.031 48.3934 481.375C47.0014 480.244 45.6965 479.026 44.3915 477.808C44.0435 477.46 43.6955 476.938 43.5215 476.416C43.3475 475.894 43.6085 475.285 44.0435 474.937C44.3045 474.763 44.9135 474.676 45.1745 474.763C45.8705 475.111 46.5664 475.546 47.2624 476.068C57.615 484.681 69.0986 491.467 80.8431 497.905C81.5391 498.339 82.2351 498.687 83.0181 499.122C83.54 499.644 83.5401 500.253 83.627 500.775Z" fill="black"/>
<path d="M29.428 471.109C29.95 471.196 30.559 471.283 30.82 471.892C31.342 472.849 31.8639 473.806 32.2119 474.85C35.9528 486.682 40.3896 498.252 45.4354 509.562C45.6964 510.171 45.9574 510.867 45.9574 511.563C46.0444 512.259 45.6094 512.868 44.9134 513.216C44.2175 513.564 43.5215 513.303 43.0865 512.781C42.6515 512.085 42.3035 511.389 41.9556 510.606C36.3008 498.774 32.1249 486.334 28.4711 473.806C28.2971 473.284 28.2101 472.762 28.2971 472.153C28.2971 471.457 28.8191 471.196 29.428 471.109Z" fill="black"/>
<path d="M279.631 217.427C275.977 220.124 272.41 222.821 268.756 225.431C267.625 226.214 266.494 227.084 265.276 227.606C263.449 228.476 261.883 228.041 260.491 226.562C259.186 225.17 258.316 223.43 257.534 221.603C257.36 221.255 257.359 220.82 257.359 220.385C257.359 219.776 257.707 219.341 258.229 219.08C258.838 218.819 259.36 218.906 259.708 219.341C260.578 220.559 261.361 221.864 262.231 223.082C263.188 224.387 263.71 224.648 264.928 223.691C269.626 220.124 274.585 216.905 278.848 212.816C281.545 210.902 284.155 208.901 286.851 207.074C288.417 206.031 289.548 206.031 290.07 206.987C290.505 207.77 290.157 208.64 288.852 209.771C285.807 212.381 282.676 214.904 279.631 217.427Z" fill="#020504"/>
<path d="M255.272 186.021C252.923 187.674 250.574 189.327 248.138 190.98C246.92 191.85 245.528 192.546 244.136 193.155C242.483 193.851 240.83 193.503 239.699 192.024C238.481 190.371 237.263 188.718 236.045 186.978C235.871 186.804 235.784 186.456 235.697 186.195C235.523 185.499 235.697 184.803 236.393 184.455C236.915 184.194 237.524 184.281 237.959 184.629C238.742 185.412 239.525 186.195 240.221 187.065C240.83 187.761 241.352 188.631 241.961 189.327C242.483 189.936 243.179 190.023 243.788 189.675C245.18 188.805 246.659 188.022 247.964 187.065C250.313 185.412 252.749 183.933 254.75 181.758C256.925 181.062 258.317 179.235 260.143 178.104C261.361 177.234 262.579 176.277 263.797 175.407C264.232 175.059 264.667 174.711 265.102 174.45C266.842 173.319 267.712 173.145 268.408 173.928C269.104 174.798 268.669 175.842 266.842 177.234C266.32 177.669 265.711 178.017 265.189 178.452C262.84 180.192 260.491 181.845 258.23 183.585C257.36 184.281 256.316 185.151 255.272 186.021Z" fill="#020604"/>
<path d="M119.383 37.7788C120.34 40.2147 121.558 41.8676 122.689 43.6076C123.211 44.3905 123.646 45.2605 123.993 46.1305C124.254 46.6524 123.993 47.1744 123.472 47.5224C123.037 47.8704 122.428 47.9574 121.906 47.6964C121.558 47.5224 121.21 47.2614 120.949 47.0004C118.861 44.3035 116.947 41.4326 115.729 38.2138C115.468 37.6048 115.294 36.9088 115.294 36.2128C115.294 34.3859 116.773 33.1679 118.6 33.5159C119.818 33.7769 120.949 34.3859 121.906 35.1689C127.038 39.2577 131.91 43.7815 136.347 48.6534C137.652 50.1323 137.826 51.3503 136.956 51.7852C135.651 52.4812 134.955 51.5243 134.172 50.7413C130.431 47.2614 126.777 43.6945 123.124 40.3017C122.08 39.3447 121.21 38.3007 119.383 37.7788Z" fill="#060606"/>
<path d="M265.624 343.572C264.319 343.92 263.014 343.92 261.709 343.398C259.36 336.786 256.925 330.262 254.663 323.65C253.532 320.431 252.401 317.125 251.357 313.906C250.922 312.601 250.487 311.296 250.139 309.991C249.791 308.512 250.226 307.294 251.183 307.294C252.401 307.294 252.662 308.338 253.01 309.208C257.186 320.692 261.361 332.089 265.624 343.572Z" fill="#080808"/>
<path d="M220.299 199.941C220.125 200.463 220.038 200.985 219.429 201.246C218.82 201.507 218.385 201.246 217.95 200.898C217.863 200.811 217.776 200.724 217.689 200.55C215.601 197.94 215.34 197.853 213.687 200.637C211.947 203.594 210.468 206.726 209.337 209.945C208.989 210.989 208.467 211.946 207.945 212.903C207.684 213.338 207.075 213.512 206.466 213.251C205.944 213.077 205.51 212.642 205.51 212.033C205.51 211.511 205.597 210.989 205.771 210.467C207.075 206.117 209.076 202.029 211.425 198.201C211.773 197.592 212.208 197.07 212.73 196.635C214.209 195.069 216.036 194.634 217.602 195.33C219.168 196.026 220.299 197.94 220.299 199.941Z" fill="black"/>
<path d="M202.378 308.339C202.03 308.252 201.334 308.252 200.725 307.991C199.159 307.469 198.463 305.99 198.811 304.424C199.42 301.901 200.899 300.77 203.509 300.683C203.944 300.683 204.379 300.596 204.726 300.77C207.336 301.901 209.337 301.64 210.642 298.769C210.903 298.16 211.773 298.073 212.469 298.508C213.078 298.856 213.339 299.552 213.078 300.248C211.686 304.424 206.901 308.252 202.378 308.339Z" fill="#070707"/>
<path d="M34.7349 453.188C35.2569 453.014 35.8658 453.188 36.3008 453.536C41.3466 457.886 46.8274 461.54 52.0473 465.542C52.3952 465.803 52.6562 466.064 52.9172 466.412C53.3522 467.021 53.4392 467.717 53.0912 468.326C52.6562 468.935 51.9603 469.109 51.2643 468.848C50.6553 468.587 50.0463 468.239 49.4373 467.891C45.1745 464.672 40.8247 461.453 36.5618 458.147C35.5179 457.277 34.3869 456.407 33.8649 455.102C33.5169 454.406 33.9519 453.275 34.7349 453.188Z" fill="black"/>
<path d="M143.133 49.8712C143.046 50.6542 141.828 51.2632 141.219 50.7412C140.697 50.3932 140.088 49.9582 139.653 49.4362C137.913 47.5223 136.173 45.5214 134.433 43.6075C132.084 40.9106 129.648 38.3007 126.516 36.3867C125.82 35.9517 125.124 35.4298 125.472 34.3858C125.733 33.5158 126.777 33.1679 127.908 33.6898C129.561 34.3858 131.04 35.4298 132.345 36.6477C135.999 40.0406 139.218 43.7815 142.35 47.6093C142.872 48.2183 143.307 48.9143 143.133 49.8712Z" fill="#0A0A0A"/>
<path d="M53.8741 474.415C53.8741 475.198 52.9171 476.068 52.2211 475.894C51.6992 475.72 51.1772 475.633 50.7422 475.285C46.9143 472.675 42.9995 470.066 39.5196 466.934C38.5627 466.151 37.6927 465.281 37.2577 464.063C37.0837 463.541 37.1707 463.019 37.6927 462.584C38.1277 462.149 38.6497 462.062 39.1716 462.323C39.4326 462.41 39.6936 462.584 39.8676 462.758C43.3475 466.064 47.4363 468.587 51.3512 471.457C52.0472 471.979 52.6561 472.501 53.2651 473.023C53.7001 473.371 53.9611 473.806 53.8741 474.415Z" fill="black"/>
<path d="M254.315 292.592C254.837 292.418 255.446 292.592 255.881 292.94C257.186 293.984 258.491 295.028 259.708 296.159C262.666 298.856 265.102 302.075 267.364 305.381C267.712 305.99 268.06 306.512 268.321 307.208C268.582 307.904 268.321 308.6 267.712 308.948C267.19 309.209 266.581 309.122 266.146 308.687C265.102 307.556 264.145 306.425 263.275 305.207C260.926 301.901 258.23 298.943 255.272 296.333C254.663 295.811 254.054 295.202 253.532 294.593C252.923 293.897 253.445 292.679 254.315 292.592Z" fill="black"/>
<path d="M212.817 218.906C211.947 218.819 211.599 218.471 211.512 217.862C211.425 217.34 211.512 216.731 211.686 216.296C213.078 212.555 214.818 208.988 217.167 205.769C217.602 205.073 218.211 204.551 218.907 204.029C220.734 202.551 222.822 202.725 224.301 204.638C224.997 205.508 225.519 206.465 225.519 207.596C225.519 208.292 225.171 208.901 224.475 209.162C223.953 209.336 223.344 209.162 222.996 208.727C222.648 208.205 222.387 207.509 222.039 206.987C221.691 206.465 221.082 206.465 220.647 206.9C219.429 208.031 218.559 209.423 217.776 210.902C216.558 213.251 215.514 215.6 214.296 217.862C213.861 218.384 213.426 218.906 212.817 218.906Z" fill="#0C0C0C"/>
<path d="M258.577 289.721C258.925 289.895 259.621 289.982 260.143 290.33C265.45 293.462 269.713 297.725 273.541 302.51C273.802 302.771 273.976 303.293 273.976 303.641C273.976 303.989 273.889 304.424 273.715 304.772C273.367 305.294 272.671 305.294 272.236 305.12C271.627 304.859 271.018 304.424 270.583 303.902C266.755 299.552 262.579 295.463 257.62 292.418C257.359 292.244 257.185 292.07 257.098 291.809C257.011 291.461 256.837 291.026 256.924 290.678C257.098 289.982 257.62 289.808 258.577 289.721Z" fill="black"/>
<path d="M134.694 174.451C133.911 172.798 132.432 172.45 131.475 171.493C131.127 171.145 130.779 170.623 131.214 170.014C131.562 169.492 131.997 169.231 132.606 169.231C133.65 169.231 134.433 169.84 135.216 170.449C137.478 172.189 139.392 174.451 141.132 176.712C141.306 176.886 141.393 177.234 141.393 177.495C141.567 178.104 141.219 178.626 140.784 178.887C140.523 179.061 139.914 179.148 139.653 178.974C138.696 178.365 137.913 177.669 137.043 176.973C135.477 177.582 134.868 178.974 134.346 180.366C134.172 180.888 134.085 181.41 133.911 181.932C133.737 182.541 133.128 182.715 132.606 182.715C131.823 182.628 131.475 182.106 131.388 181.323C131.214 179.931 131.649 178.539 132.432 177.408C133.041 176.451 133.911 175.494 134.694 174.451Z" fill="black"/>
<path d="M227.172 223.169C226.65 227.867 225.345 232.129 223.431 236.305C223.344 236.566 223.17 236.74 222.909 236.914C222.474 237.262 221.952 237.523 221.43 237.349C220.734 237.088 220.125 236.566 220.299 235.87C220.473 234.565 220.821 233.173 221.256 231.868C222.387 228.824 223.431 225.692 224.127 222.473C224.214 222.038 224.301 221.69 224.475 221.342C224.736 220.82 225.258 220.559 225.867 220.646C226.215 220.733 226.65 220.994 226.737 221.342C226.998 221.951 227.085 222.647 227.172 223.169Z" fill="#0C0C0C"/>
<path d="M262.84 311.732C262.753 312.34 262.492 312.862 261.97 313.123C261.622 313.21 261.1 313.297 260.839 313.123C260.404 312.862 259.969 312.427 259.708 311.992C257.186 308.339 254.576 304.859 251.618 301.553C251.357 301.205 251.096 300.857 250.922 300.509C250.748 299.987 250.835 299.378 251.357 299.03C251.705 298.856 252.14 298.682 252.488 298.769C252.836 298.856 253.271 299.03 253.532 299.378C256.925 302.771 260.056 306.425 262.405 310.688C262.666 310.949 262.753 311.384 262.84 311.732Z" fill="#0F0F0F"/>
<path d="M83.1051 343.659C80.4082 343.572 78.3203 342.963 77.1023 340.701C76.7543 339.918 77.0153 338.874 77.7113 338.526C78.2333 338.265 78.7553 338.178 79.2772 338.613C81.8871 340.614 84.323 340.353 86.759 338.265C86.9329 338.091 87.1939 337.917 87.4549 337.83C88.1509 337.482 88.7599 337.569 89.3689 338.091C89.8908 338.613 89.9778 339.222 89.6298 340.005C89.0209 341.31 87.9769 342.267 86.672 342.789C85.454 343.224 84.0621 343.398 83.1051 343.659Z" fill="#151515"/>
<path d="M223.431 214.469C223.431 214.73 223.431 214.991 223.344 215.252C222.213 217.862 221.169 220.559 220.038 223.169C219.69 223.865 219.081 224.126 218.298 223.952C217.515 223.778 217.167 223.082 217.341 222.386C217.863 219.08 219.168 216.122 221.082 213.425C221.343 212.99 222.039 212.903 222.561 213.164C223.17 213.425 223.344 213.86 223.431 214.469Z" fill="#131313"/>
<path d="M181.063 185.934C178.193 185.847 175.67 184.107 174.8 181.41C174.626 180.889 174.539 180.28 174.713 179.845C174.887 179.41 175.322 178.888 175.757 178.627C176.279 178.366 176.801 178.627 177.236 179.062C177.497 179.323 177.758 179.671 177.932 180.106C178.714 181.758 179.932 182.628 181.759 182.715C182.281 182.715 182.803 182.976 183.325 183.237C184.021 183.585 184.021 184.89 183.412 185.325C182.716 185.847 181.846 185.847 181.063 185.934Z" fill="#161616"/>
<path d="M109.291 46.3044C109.204 46.5654 109.204 47.0004 109.03 47.3484C107.464 49.1753 105.637 50.4802 103.549 51.6112C103.288 51.6982 103.027 51.7852 102.766 51.7852C102.157 51.8722 101.635 51.6112 101.374 51.0892C101.026 50.6542 101.026 49.9583 101.461 49.5233C102.766 48.3053 104.071 47.0874 105.463 45.9564C106.072 45.4344 106.855 45.0864 107.638 44.8254C108.247 44.6515 109.291 45.4344 109.291 46.3044Z" fill="#121212"/>
<path d="M187.066 287.633C186.283 287.546 185.848 286.937 185.848 286.241C185.848 283.806 188.458 281.631 190.894 282.153C192.112 282.414 193.243 282.936 194.026 283.893C194.461 284.415 194.635 285.111 194.287 285.806C193.939 286.502 193.33 286.763 192.547 286.589C192.199 286.502 191.764 286.328 191.416 286.154C190.285 285.545 189.328 285.632 188.632 286.763C188.371 287.372 187.849 287.72 187.066 287.633Z" fill="black"/>
<path d="M211.164 288.764C211.251 289.547 210.294 290.33 209.511 290.156C209.25 290.069 208.902 290.069 208.728 289.895C207.771 288.851 206.814 288.503 205.509 289.46C204.9 289.982 204.204 289.721 203.683 289.112C203.161 288.503 203.161 287.807 203.509 287.198C204.204 285.806 206.205 284.849 207.684 285.11C209.511 285.545 211.077 287.198 211.164 288.764Z" fill="#181818"/>
<path d="M85.541 327.391C83.9751 327.304 82.9311 327.217 81.8872 327.043C81.1912 326.956 80.7562 326.347 80.6692 325.651C80.5822 324.868 81.1042 324.259 81.7131 324.085C83.8011 323.389 85.976 323.65 88.1509 324.259C88.7599 324.433 89.2819 325.042 89.1949 325.825C89.1079 326.521 88.6729 327.13 87.9769 327.217C86.933 327.391 85.976 327.391 85.541 327.391Z" fill="#151515"/>
<path d="M177.845 168.1C177.932 169.405 177.236 170.449 176.366 170.623C175.409 170.884 174.8 170.449 174.278 169.753C173.495 168.796 173.06 167.578 173.06 166.36C173.06 165.49 173.408 164.794 174.278 164.446C174.974 164.185 175.67 164.359 176.192 164.881C177.236 165.838 177.758 167.056 177.845 168.1Z" fill="#212121"/>
<path d="M106.42 431.265C106.246 431.787 105.985 432.309 105.376 432.483C103.462 433.092 100.069 431.613 99.0255 429.699C98.7645 429.177 98.8515 428.655 99.1125 428.133C99.4605 427.611 99.9825 427.263 100.504 427.524C102.244 428.22 103.984 429.09 105.724 429.873C106.333 430.134 106.42 430.743 106.42 431.265Z" fill="black"/>
<path d="M170.45 157.486C169.928 158.965 169.667 160.966 168.362 162.619C168.014 163.054 167.492 163.228 166.883 163.054C166.361 162.88 165.926 162.445 165.926 161.836C165.926 159.748 166.448 157.834 167.753 156.181C168.188 155.659 168.884 155.398 169.58 155.746C170.189 155.92 170.537 156.355 170.45 157.486Z" fill="#1A1A1A"/>
<path d="M263.275 347.139C264.58 346.791 265.885 346.878 267.19 347.052C267.799 348.705 268.321 350.445 268.93 352.098C267.712 352.881 266.407 352.881 265.015 352.359C264.58 350.967 264.058 349.662 263.623 348.27C263.449 347.922 263.362 347.574 263.275 347.139Z" fill="#1C1014"/>
<path d="M90.2388 344.094C91.0218 344.007 91.8918 344.79 91.8918 345.573C91.8918 346.356 91.3698 346.791 90.7608 347.052C90.0648 347.313 89.0208 346.53 88.9339 345.834C88.6729 345.138 89.3688 344.268 90.2388 344.094Z" fill="black"/>
<path d="M97.0246 343.311C96.9376 344.181 96.2416 344.79 95.4586 344.616C94.6756 344.529 94.3277 344.007 94.2407 343.311C94.1537 342.528 94.9366 341.658 95.6326 341.658C96.4156 341.658 97.1115 342.528 97.0246 343.311Z" fill="black"/>
<path d="M165.839 185.499C165.23 185.412 164.447 184.455 164.708 183.759C164.969 183.063 165.491 182.715 166.187 182.628C166.97 182.628 167.666 183.585 167.405 184.368C167.231 185.064 166.796 185.586 165.839 185.499Z" fill="#555555"/>
<path d="M170.45 176.625C171.146 176.712 171.494 177.321 171.494 178.017C171.494 178.713 170.711 179.322 170.102 179.148C169.319 178.974 168.797 178.539 168.971 177.756C169.058 177.06 169.58 176.625 170.45 176.625Z" fill="#444444"/>
<path d="M96.8505 348.705C96.7636 349.488 96.2416 349.923 95.5456 349.923C94.8496 349.923 94.3276 349.488 94.2406 348.705C94.1536 347.922 94.9366 347.139 95.7196 347.313C96.5026 347.4 96.8505 347.922 96.8505 348.705Z" fill="black"/>
<path d="M164.795 175.669C165.491 175.669 166.1 175.93 166.187 176.713C166.274 177.496 165.752 177.931 165.056 178.105C164.273 178.192 163.838 177.67 163.751 176.974C163.577 176.278 164.186 175.669 164.795 175.669Z" fill="#5B5B5B"/>
<path d="M298.335 152.614C294.768 148.265 291.201 143.915 287.721 139.565C280.153 129.908 272.323 120.513 265.189 110.508C263.101 107.55 261.187 104.592 259.621 101.286C258.577 99.0245 257.708 96.7626 257.273 94.2397C256.751 91.3688 257.273 88.7589 258.751 86.323C260.143 83.887 261.97 81.8861 264.145 80.1462C266.842 78.0583 269.626 76.0573 272.497 73.9694C275.977 71.4465 279.37 68.9236 282.328 65.7917C284.415 63.5298 286.242 61.1809 287.199 58.223C288.504 54.2212 287.373 50.4803 284.068 47.9574C282.067 46.3915 279.805 45.5215 277.195 45.3475C276.412 45.2605 275.542 45.6955 274.759 44.9995C275.107 42.6506 275.542 40.2147 275.803 37.7788C276.412 32.037 274.411 27.2522 270.322 23.2503C267.712 20.7274 264.58 18.9875 261.187 17.7695C257.012 16.2036 252.662 15.4206 248.399 14.6376C244.832 14.0287 241.352 13.4197 237.785 12.8977C231.086 11.9407 225.084 9.50483 219.603 5.58997C217.254 3.93703 214.905 2.1971 212.208 1.15314C205.509 -1.45676 198.985 1.24013 196.201 7.85189C192.808 15.8556 195.853 25.3382 201.856 29.8621C202.9 30.645 204.291 31.08 205.074 32.472C203.944 33.7769 202.813 34.9949 201.769 36.2128C198.028 40.7367 193.243 43.6076 187.675 45.1735C185.587 45.7825 183.412 46.3045 181.324 46.9134C179.845 47.3484 178.366 47.7834 177.236 48.7404C175.235 50.3933 174.974 52.9162 176.54 55.0041C177.322 56.0481 178.366 56.6571 179.497 57.266C180.28 57.701 181.324 57.875 181.759 59.006C180.28 62.4858 178.714 66.0527 177.322 69.6196C176.018 72.9255 173.756 75.4484 171.059 77.7103C170.624 77.3623 170.276 77.1013 170.015 76.8403C164.795 68.7496 158.879 61.0939 153.224 53.2642C150.354 49.2623 147.222 45.3475 144.177 41.5196C143.568 40.7367 142.959 40.0407 142.263 39.3447C141.915 38.9967 141.393 38.7357 140.871 38.5617C140.349 38.3877 139.74 38.5617 139.392 39.0837C139.218 39.3447 139.131 39.9537 139.305 40.2147C139.566 40.8237 140.001 41.4326 140.436 41.9546C141.915 43.7815 143.481 45.5215 144.873 47.4354C151.484 56.3961 158.183 65.3567 164.795 74.4044C165.926 75.9703 166.97 77.6233 168.014 79.2762C168.449 79.9722 168.362 80.5812 167.753 81.1031C166.97 81.8861 166.187 82.6691 165.404 83.4521C163.925 85.105 162.707 86.9319 162.185 89.1069C161.402 92.1517 162.098 94.8486 164.186 97.1975C165.317 98.5025 166.709 99.3725 168.101 100.155C172.19 102.33 176.54 103.548 181.063 104.157C189.328 105.288 197.593 105.375 205.683 103.461C208.641 102.765 211.164 103.722 213.426 105.462C214.209 106.071 214.818 106.767 215.514 107.463C219.429 111.9 222.822 116.772 226.998 120.948C226.737 121.296 226.65 121.383 226.563 121.47C226.041 121.905 225.519 122.34 224.997 122.775C220.473 126.254 217.341 130.691 215.949 136.259C215.601 137.738 215.079 139.217 214.905 140.696C214.644 143.045 213.513 144.698 211.86 146.351C207.597 150.701 203.769 155.398 200.377 160.357C199.507 161.575 198.811 162.967 198.202 164.359C197.854 165.055 198.202 165.664 198.898 166.099C199.42 166.447 200.029 166.273 200.464 165.925C201.334 165.055 202.117 164.011 202.813 163.054C211.164 152.354 220.386 142.523 231.347 134.432C234.218 132.344 237.176 130.343 240.134 128.255C240.83 127.82 241.613 127.472 241.961 126.689C242.222 126.167 242.222 125.558 241.787 125.124C241.526 124.863 241.091 124.689 240.743 124.689C239.699 124.689 238.916 125.298 238.133 125.732C232.565 129.212 226.824 132.692 221.778 136.955C221.169 137.477 220.647 138.173 219.603 138.173C219.603 137.825 219.429 137.39 219.516 137.042C220.473 133.562 222.039 130.343 224.649 127.733C226.389 125.993 228.39 124.515 230.478 123.123C238.742 117.468 247.268 112.074 255.968 106.941C256.664 106.506 257.273 105.897 258.142 105.984C258.316 106.158 258.664 106.332 258.751 106.506C263.362 114.075 268.756 121.035 274.237 127.907C282.502 138.26 290.766 148.526 299.031 158.791C299.031 156.877 299.031 154.963 299.031 152.962C298.596 152.614 298.335 152.701 298.335 152.614ZM277.108 62.3119C279.283 59.528 280.762 56.4831 280.675 52.9162C280.675 52.3072 281.11 51.7852 281.632 51.7852C282.154 51.7852 282.502 52.3942 282.676 52.9162C282.763 53.1772 282.763 53.4382 282.85 53.6992C282.85 53.9602 282.85 54.2212 282.85 54.4822C282.937 56.5701 282.328 58.571 281.371 60.3979C280.066 63.0078 278.326 65.3567 276.151 67.2707C273.541 69.5326 270.757 71.5335 268.06 73.6214C267.973 73.7084 267.799 73.7954 267.712 73.7954C267.19 74.0564 266.668 74.1434 266.146 73.7954C265.537 73.2734 265.885 72.7515 266.32 72.4035C268.234 70.5765 270.148 68.8366 272.149 67.1837C273.889 65.7047 275.629 64.1388 277.108 62.3119ZM259.186 22.2934C259.273 22.0324 259.882 21.7714 260.23 21.8584C265.798 22.6413 272.236 30.0361 272.149 35.6039C272.149 35.7778 272.149 35.8648 272.149 36.4738C271.801 37.8658 271.453 39.7797 270.931 41.6066C270.844 41.8676 270.235 42.2156 269.974 42.2156C269.626 42.1286 269.191 41.6936 269.191 41.4326C269.104 40.3017 269.104 39.2577 269.104 38.1268C269.452 32.472 266.581 28.4701 262.318 25.1642C261.448 24.4683 260.404 24.0333 259.534 23.4243C259.273 23.1633 259.099 22.5543 259.186 22.2934ZM259.099 78.8412C259.708 77.5363 260.491 76.4923 261.709 75.7963C262.144 75.5354 263.014 75.9703 263.101 76.5793C263.101 76.7533 263.101 77.1883 262.927 77.5363C262.231 78.4063 261.535 79.1892 260.752 79.9722C260.317 80.4072 259.708 80.4942 259.36 79.8852C259.099 79.6242 259.012 79.1022 259.099 78.8412ZM241.613 71.1855C244.484 71.5335 246.398 73.2734 247.355 75.8833C248.921 80.3202 248.225 84.583 245.789 88.4979C244.049 91.2818 241.352 92.0647 238.22 91.0208C235.175 89.9768 232.652 88.1499 230.13 86.149C228.825 85.105 229.173 83.6261 229.086 82.1471C229.173 81.3641 229.26 80.4072 229.434 79.4502C230.652 74.4044 236.306 70.4895 241.613 71.1855ZM228.042 38.1268C228.216 37.7788 228.651 37.4308 228.912 37.4308C229.434 37.5178 229.869 37.8658 229.869 38.5617C229.869 38.8227 229.869 39.0837 229.869 39.3447C229.434 44.9995 230.913 50.2193 233.783 55.0911C234.914 57.0051 236.045 58.832 237.176 60.7459C237.524 61.3549 237.785 62.0509 237.002 62.5728C236.48 62.9208 235.871 62.6598 235.523 62.2249C230.565 56.7441 227.346 50.5673 227.346 43.2596C227.433 41.2586 227.259 39.6057 228.042 38.1268ZM196.81 72.3165C196.201 74.8394 193.852 76.6663 190.807 76.6663C188.806 76.6663 186.805 75.8833 185.239 74.2304C184.369 73.2734 184.108 71.8815 184.717 70.8375C185.326 69.7066 186.892 69.0106 188.197 69.3586C188.719 69.5326 189.241 69.7066 189.676 69.9676C190.459 70.4026 191.155 70.4895 191.938 69.8806C192.373 69.5326 192.895 69.2716 193.33 69.0976C195.418 68.4886 197.245 70.3156 196.81 72.3165ZM204.204 72.4035C201.769 71.2725 200.029 69.3586 198.376 67.2707C196.636 65.0957 194.896 63.0078 193.156 60.9199C191.851 59.441 190.285 58.223 188.284 57.962C185.065 57.44 182.803 55.1781 180.019 53.7862C179.584 53.5252 179.149 53.0902 178.888 52.6552C178.54 52.1332 178.627 51.5243 179.149 51.1763C179.932 50.6543 180.889 50.3063 181.759 49.9583C184.369 49.0883 186.979 48.3924 189.676 47.5224C195.244 45.8695 199.855 42.8246 203.683 38.3878C205.161 36.7348 206.64 35.0819 208.206 33.5159C210.381 31.341 212.817 29.6011 215.601 28.2961C217.254 27.5132 218.994 27.0782 220.734 26.9912C224.04 26.8172 225.867 29.2531 224.649 32.385C223.431 35.5169 222.561 38.6487 222.474 41.9546C222.3 48.6534 224.562 54.3951 228.651 59.528C229.26 60.3109 229.956 61.0069 230.825 61.9639C228.042 65.0088 225.432 67.7926 222.474 70.2286C216.819 74.7524 210.729 75.5354 204.204 72.4035ZM255.011 102.852C254.663 103.113 254.315 103.287 253.967 103.548C246.398 108.333 238.916 113.118 231.347 117.99C229.608 119.121 229.608 119.121 228.303 117.642C226.911 116.076 225.606 114.51 224.214 112.944C220.908 108.942 217.776 104.766 213.339 101.373C216.471 99.6335 219.69 98.8505 222.387 96.9366C225.084 95.0226 227.781 93.1957 229.347 89.8898C232.043 91.7168 234.392 93.1957 237.002 94.0657C241.787 95.7186 245.789 94.4137 248.486 90.1508C249.182 89.1069 249.704 87.9759 250.4 86.6709C251.879 88.6719 253.358 90.6728 253.706 92.9347C254.228 95.6316 254.837 98.3285 255.707 100.938C256.055 101.634 255.794 102.33 255.011 102.852Z" fill="black"/>
<path d="M194.374 187.065C192.721 182.541 190.981 178.017 189.067 173.581C188.458 172.189 188.545 171.232 189.676 170.275C190.459 169.492 191.242 168.709 191.938 167.839C193.504 166.012 193.591 164.098 192.373 162.097C191.764 161.053 190.981 160.009 190.285 159.052C187.414 155.311 184.543 151.657 181.498 147.829C182.368 147.481 183.151 147.22 183.934 146.96C189.067 145.655 191.329 139.913 190.633 135.998C189.937 132.083 187.762 129.212 184.63 126.95C183.499 126.167 182.281 125.558 180.976 124.775C182.107 123.905 183.238 123.122 184.195 122.165C186.457 119.991 186.457 117.555 184.108 115.38C182.281 113.64 180.019 112.596 177.584 111.987C170.711 110.247 159.749 112.944 156.269 116.859C148.701 115.728 142.35 115.032 137.478 115.206C127.647 115.728 119.731 119.643 113.815 127.559C111.553 130.517 109.813 133.823 108.334 137.216C105.985 142.523 104.071 147.916 102.07 153.397C99.8955 159.226 97.7205 165.055 95.4586 170.797C93.8927 174.798 91.8918 178.539 89.3689 182.019C83.3661 190.458 75.2754 194.895 64.7488 194.808C60.0509 194.721 55.3531 194.721 50.6553 194.808C39.8677 195.069 31.342 199.419 25.2522 208.553C20.3804 215.861 17.5965 223.778 16.8136 232.477C16.4656 236.131 16.0306 239.872 16.7266 243.613C17.7705 249.181 19.2495 254.574 21.7724 259.707C23.5123 263.274 25.8612 266.232 28.8191 268.755C32.212 271.626 35.9528 273.888 40.1287 275.541C44.1305 277.107 48.3934 277.89 52.6562 277.542C58.572 277.107 63.9658 275.28 68.2286 270.756C69.2726 269.625 70.4036 268.668 71.4475 267.537C74.1444 264.927 77.2763 263.361 80.9302 262.752C84.497 262.143 87.9769 261.795 91.6308 262.23C94.5017 262.578 97.2856 263.274 100.156 263.796C104.245 264.492 108.247 265.275 112.423 264.666C117.817 263.796 122.254 261.099 126.342 257.793C132.171 253.009 135.999 246.919 137.652 239.524C139.044 233.521 138.783 227.432 138.087 221.429C137.304 214.382 138.261 207.683 141.48 201.419C141.219 200.637 140.61 200.115 140.001 199.506C138.435 198.027 137.217 196.461 138.261 194.199C139.218 192.024 140.958 190.893 143.394 190.893C144.177 190.893 145.047 191.067 145.743 190.632C146.787 188.979 147.57 187.239 147.831 185.325C147.918 184.803 147.744 184.194 147.309 183.846C146.874 183.498 146.352 183.411 145.83 183.759C144.873 184.281 143.916 184.89 142.959 185.412C141.132 186.282 139.305 187.413 137.391 188.022C131.214 189.936 127.995 187.587 126.951 181.758C126.429 178.8 126.429 175.668 126.951 172.711C127.386 170.362 128.169 168.187 129.561 166.273C131.475 163.75 134.259 162.88 137.304 163.924C138.783 164.359 140.088 165.142 141.132 166.273C142.176 167.491 143.307 168.709 144.177 170.188C146.613 174.276 147.309 174.537 150.006 169.84C152.963 164.707 155.573 159.4 158.183 154.093C160.793 148.786 162.968 143.219 164.795 137.651C165.23 136.433 165.317 134.954 166.622 134.084C166.97 134.432 167.318 134.693 167.492 135.041C172.277 141.827 177.236 148.438 182.629 154.702C184.717 157.138 186.544 159.661 188.458 162.271C190.285 164.707 190.198 165.055 188.197 167.143C187.849 167.578 187.414 167.926 187.066 168.361C184.543 170.971 184.456 171.754 185.935 174.972C188.11 179.583 190.024 184.281 191.677 189.153C192.547 191.676 192.982 194.199 192.982 196.896C193.069 199.593 191.851 201.332 189.763 202.724C187.588 204.116 185.239 204.725 182.803 205.073C175.409 206.117 168.014 207.074 160.619 207.683C158.444 207.857 156.269 208.292 154.094 208.727C153.398 208.901 152.963 209.597 153.137 210.293C153.311 211.076 153.833 211.511 154.616 211.511C155.834 211.424 157.052 211.163 158.27 210.989C159.053 210.902 159.923 210.728 160.706 210.728C161.402 210.728 162.272 210.206 162.968 211.337C162.707 211.772 162.446 212.207 162.185 212.642C159.749 216.47 157.313 220.298 154.964 224.213C154.442 224.996 154.094 225.953 153.746 226.823C153.572 227.344 153.746 227.953 154.268 228.301C154.703 228.649 155.399 228.649 155.834 228.301C156.356 227.866 156.878 227.431 157.226 226.823C158.27 225.257 159.314 223.604 160.271 221.951C162.272 218.645 164.273 215.339 166.1 211.946C166.883 210.641 167.753 210.032 169.319 209.858C174.539 209.249 179.671 208.466 184.891 207.77C187.24 207.422 189.415 206.552 191.416 205.247C194.548 203.246 196.201 200.463 196.114 196.635C196.027 193.068 195.418 190.023 194.374 187.065ZM48.0454 201.767C47.5234 201.941 47.0014 202.028 46.4795 202.202C45.4355 202.463 44.3915 202.724 43.2606 202.985C38.2148 204.116 34.2129 206.9 30.907 210.815C27.9491 214.382 25.6872 218.21 24.6433 222.821C24.2953 224.387 23.7733 226.04 23.2513 227.605C23.1643 228.04 22.8163 228.214 22.2944 228.214C21.8594 228.127 21.5984 227.779 21.5114 227.431C21.4244 226.997 21.4244 226.649 21.4244 226.301C21.9464 219.689 23.9473 213.599 28.5581 208.901C35.5179 201.68 42.8256 200.376 46.8274 199.593C48.0454 199.332 48.3934 200.201 48.5674 200.636C49.0894 201.245 48.5674 201.593 48.0454 201.767ZM53.8742 201.593C52.9172 201.419 52.3082 200.897 52.6562 200.201C53.0912 199.332 54.2222 199.158 55.3531 199.245C56.3101 199.332 57.0061 199.68 57.0061 200.288C56.8321 201.332 55.5271 201.854 53.8742 201.593ZM99.0255 175.233C98.7645 175.233 98.3295 174.972 98.2425 174.711C97.0246 172.102 101.026 168.796 101.2 172.015C101.287 173.146 100.243 175.32 99.0255 175.233ZM133.824 121.208C133.737 121.382 133.737 121.469 133.65 121.643C133.302 122.252 132.606 122.252 132.084 122.426C127.821 123.47 124.255 125.819 121.21 128.951C117.817 132.344 115.12 136.172 112.945 140.435C110.248 145.916 107.986 151.57 106.333 157.486C105.55 160.444 104.506 163.315 103.549 166.186C103.288 166.882 103.027 167.665 102.592 168.274C102.418 168.622 101.896 168.796 101.461 168.883C100.939 168.883 100.765 168.361 100.765 167.926C100.765 167.665 100.765 167.317 100.852 167.056C103.897 157.834 106.072 148.177 110.683 139.478C113.641 133.823 117.295 128.864 122.254 124.862C124.255 123.209 126.516 121.991 129.039 121.034C130.17 120.599 131.388 120.425 132.519 120.338C132.867 120.425 133.215 120.512 133.476 120.599C133.911 120.599 133.998 120.773 133.824 121.208ZM176.975 128.342C176.714 128.081 176.54 127.559 176.627 127.298C176.714 127.037 177.323 126.776 177.671 126.776C182.02 127.733 186.37 132.866 186.457 137.477C186.37 137.651 186.283 138.26 186.109 138.695C186.022 138.869 185.674 139.043 185.5 139.13C185.239 139.13 184.891 139.043 184.804 138.869C184.63 138.521 184.543 138.086 184.456 137.738C184.108 134.693 182.368 132.431 180.019 130.604C178.975 129.821 177.932 129.125 176.975 128.342Z" fill="black"/>
<path d="M249.704 487.117C249.269 486.421 248.834 485.725 248.486 484.942C238.133 467.021 227.52 449.273 216.732 431.7C212.382 424.653 207.945 417.694 202.987 411.082C200.29 407.515 197.506 404.209 194.374 401.077C188.632 395.335 181.846 391.246 174.104 388.724C167.927 386.723 161.663 385.157 155.312 383.765C154.529 383.591 153.659 383.417 152.876 383.33C151.484 383.243 150.788 383.678 150.441 384.983C149.745 387.68 149.049 390.29 147.918 392.812C143.481 403.078 137.13 412.039 128.778 419.52C123.907 423.87 118.6 427.524 112.249 429.438C111.727 429.612 111.205 429.786 110.77 430.134C110.248 430.482 110.074 431.004 110.161 431.526C110.248 432.222 110.77 432.396 111.379 432.483C112.771 432.657 114.076 432.222 115.381 431.787C120.253 430.134 124.602 427.437 128.604 424.218C135.477 418.737 141.045 412.126 145.656 404.731C148.788 399.685 151.31 394.291 153.137 388.637C153.746 386.81 154.007 386.723 155.834 387.158C161.315 388.376 166.796 389.855 172.19 391.42C181.15 394.117 188.632 399.076 194.722 406.123C196.375 407.95 197.941 409.864 199.42 411.865C202.726 416.476 206.031 420.999 209.076 425.784C221.256 445.184 232.826 464.933 244.31 484.681C244.745 485.377 245.354 485.986 245.093 486.943C245.006 487.03 244.832 487.117 244.745 487.117C236.828 486.508 229.086 487.813 221.43 489.466C210.642 491.815 200.116 494.947 189.589 498.253C184.195 499.905 178.888 501.732 173.495 503.472C171.929 503.994 171.494 503.646 171.407 502.08C170.798 491.38 170.276 480.592 169.667 469.892C169.319 463.976 169.145 458.06 168.797 452.144C168.623 449.795 168.275 447.446 167.927 445.184C167.84 444.315 167.579 443.619 166.97 443.01C166.448 442.488 165.23 442.662 164.882 443.358C164.36 444.401 164.534 445.532 164.621 446.576C164.882 451.274 165.23 455.972 165.404 460.583C165.839 476.59 166.622 492.511 167.927 508.518C167.927 508.692 167.666 508.953 167.579 509.214C165.926 509.04 164.447 508.17 162.968 507.474C153.137 503.124 143.916 497.643 135.042 491.467C123.124 483.202 111.814 474.154 100.765 464.846C96.8505 461.54 93.0227 458.147 89.4558 454.58C87.0199 452.144 84.845 449.447 82.3221 447.098C81.0171 445.88 80.3211 444.575 79.7992 442.923C78.6682 439.617 77.5373 436.398 76.4063 433.179C73.5354 425.088 70.7515 417.085 67.7936 409.081C66.5757 405.688 65.5317 405.079 61.9648 405.166C60.7469 405.166 59.4419 405.34 58.311 405.514C51.2642 406.819 44.2175 408.124 37.1708 409.603C33.7779 410.299 30.472 411.082 27.1661 412.126C23.9473 413.17 23.1643 414.997 24.0342 418.215C24.9912 421.695 26.1222 425.088 27.1661 428.481C27.4271 429.264 27.8621 429.96 27.2531 431.091C24.4692 431.091 21.6853 432.135 18.6405 432.918C18.6405 431.352 18.6405 430.134 18.6405 428.916C18.6405 427.698 18.4665 426.48 17.9445 425.262C17.3355 423.783 16.4655 422.565 14.7256 422.478C13.1597 422.391 12.2027 423.348 11.3327 424.479C10.2888 425.958 9.76678 427.698 9.4188 429.438C8.54883 433.614 7.59186 437.79 6.72189 441.966C5.85193 446.315 4.98196 450.665 4.37298 455.015C2.98104 464.672 2.02407 474.415 1.41509 484.246C0.806117 493.207 0.545128 502.167 1.1541 511.128C1.41509 515.826 2.28506 520.437 3.85101 524.873C7.59187 535.313 16.2915 540.794 27.3401 539.663C32.4729 539.141 37.3448 537.662 42.0426 535.574C52.3952 531.05 62.1388 525.221 71.7955 519.393C72.4914 518.958 73.1874 518.436 73.7094 517.914C74.2314 517.392 74.2314 516.609 73.7964 516C73.4484 515.565 72.9264 515.217 72.3175 515.478C71.4475 515.826 70.5775 516.261 69.7076 516.783C63.2698 520.785 56.571 524.351 49.9593 528.005C45.8704 530.267 41.6076 532.181 37.1708 533.834C33.4299 535.226 29.515 536.183 25.5132 536.357C17.2485 536.792 10.7237 532.79 7.59186 525.048C6.98288 523.569 6.46091 521.916 6.11292 520.35C4.98196 515.652 4.54698 510.867 4.37298 505.995C4.19899 496.339 4.54698 486.682 5.41695 477.112C6.19992 468.5 6.98289 459.8 8.54883 451.274C9.76678 445.01 11.0717 438.834 12.4637 432.657C12.8987 430.743 12.6377 428.481 14.3776 427.002C14.9866 426.567 15.1606 427.698 15.2476 433.092C15.3346 434.919 14.8996 436.224 13.6816 437.529C13.0727 438.225 12.6377 439.182 12.5507 440.139C12.5507 440.748 12.7247 441.183 13.2466 441.531C13.7686 441.792 14.3776 441.705 14.8126 441.357C15.3346 440.922 15.6826 440.313 16.1175 439.791C18.2925 437.094 21.0764 435.528 24.4692 434.919C25.4262 434.745 26.3832 434.571 27.3401 434.484C28.8191 434.31 29.1671 434.658 29.602 436.659C29.863 437.877 28.9931 437.964 28.2101 438.138C23.7733 438.747 20.2934 441.096 17.3355 444.315C16.8135 444.924 16.3785 445.619 16.0306 446.402C15.7696 446.924 15.9436 447.533 16.4655 447.881C16.9005 448.316 17.5095 448.316 17.9445 447.968C18.5535 447.446 19.1624 446.837 19.7714 446.228C22.5553 443.184 26.2092 442.053 30.124 441.705C31.168 441.618 31.864 442.401 31.864 443.532C31.864 444.488 31.255 444.575 30.472 444.662C26.5572 445.097 23.5123 447.098 21.1634 450.143C20.5544 450.926 20.0324 451.709 20.0324 452.753C20.0324 453.101 20.2934 453.623 20.5544 453.797C20.8154 453.971 21.3374 454.058 21.6853 453.971C22.7293 453.797 23.1643 452.84 23.7733 452.144C25.9482 449.795 28.7321 448.751 31.777 448.316C32.2989 448.229 33.0819 448.229 33.2559 448.751C34.2999 451.709 37.0838 452.231 39.4327 453.101C51.5252 457.712 63.7048 462.062 76.1453 465.716C77.8852 466.238 79.6252 466.586 81.3651 466.934C82.7571 467.195 84.149 466.934 85.367 466.151C86.6719 465.368 87.2809 464.15 86.7589 462.671C86.1499 460.67 85.367 458.756 84.758 456.842C84.497 456.059 83.801 455.276 84.41 453.971C92.7617 463.106 102.331 470.501 111.814 478.504C110.335 479.809 109.03 480.94 107.725 482.158C103.984 485.725 100.678 489.553 97.8075 493.816C96.5025 495.73 96.4156 495.904 94.2406 495.208C91.4567 494.425 89.8038 495.295 88.4118 497.73C87.1939 499.905 86.3239 502.254 85.541 504.603C85.28 505.56 85.193 506.517 85.8889 507.387C88.9338 507.126 89.1078 504.429 90.0648 502.428C91.8047 498.861 93.1097 498.339 96.4156 500.514C98.7645 501.993 100.678 503.994 103.027 505.473C104.506 506.343 106.159 507.735 107.377 505.125C108.769 502.602 110.509 500.253 112.423 498.079C115.294 494.686 118.339 491.467 121.645 488.596C122.95 487.465 123.124 487.465 124.515 488.422C127.038 490.162 129.474 491.989 131.91 493.729C140.436 499.818 149.397 505.299 158.966 509.649C165.839 512.781 172.973 515.478 180.193 517.74C181.759 518.262 182.716 518.001 183.151 517.131C183.673 516.087 183.064 515.043 181.411 514.434C178.801 513.477 176.192 512.607 173.582 511.737C172.886 511.476 172.451 511.041 172.277 510.258C171.842 508.257 172.19 507.561 174.191 506.952C187.501 502.863 200.725 498.687 214.209 495.208C216.036 494.773 217.863 494.077 219.777 494.077C220.299 494.686 220.212 495.382 220.212 496.078C220.734 508.344 220.734 520.611 219.429 532.877C218.82 538.271 218.037 543.578 216.21 548.624C215.688 550.016 215.166 551.494 214.557 552.799C210.468 561.499 203.509 565.849 194.026 566.371C188.197 566.719 182.455 565.675 176.888 564.196C167.753 561.76 159.314 557.671 151.223 552.886C139.479 546.014 128.952 537.575 118.948 528.527C118.513 528.179 118.165 527.744 117.73 527.396C116.512 526.265 115.555 526.091 114.859 526.787C114.25 527.483 114.424 528.44 115.555 529.658C116.686 530.876 117.904 532.007 119.122 533.138C124.341 537.836 129.735 542.36 135.39 546.536C142.698 552.016 150.354 556.888 158.531 560.977C165.056 564.283 171.842 566.893 179.062 568.459C184.891 569.764 190.72 570.46 196.723 569.677C205.161 568.633 211.773 564.544 216.21 557.236C217.515 555.148 218.559 552.886 219.342 550.538C220.473 547.406 221.256 544.187 221.865 540.968C223.431 532.529 223.953 524.004 224.04 515.478C224.04 512.868 224.997 511.737 227.346 510.693C233.348 508.17 239.09 505.212 244.31 501.297C246.224 499.905 248.051 498.426 249.269 496.339C251.009 493.468 251.531 490.336 249.704 487.117ZM42.4776 428.916C43.0865 428.916 43.6955 429.264 43.7825 430.047C43.9565 430.917 43.3475 431.613 42.3906 431.7C41.6076 431.7 41.0856 431.265 40.9116 430.569C40.8246 429.699 41.5206 428.916 42.4776 428.916ZM39.9547 425.871C39.0847 425.871 38.4757 425.175 38.5627 424.305C38.6497 423.435 39.3457 422.913 40.2156 422.913C41.0856 422.913 41.6946 423.609 41.6076 424.479C41.5206 425.436 40.9116 425.958 39.9547 425.871ZM47.1754 438.051C44.9135 439.008 42.4776 439.617 39.9547 439.791C38.3017 439.878 36.9098 439.269 36.2138 437.703C34.0389 432.57 32.3859 427.35 31.864 422.217C31.864 419.259 32.6469 418.128 34.9958 417.172C36.8228 416.476 38.7367 416.215 40.6506 416.128C41.2596 416.128 41.9556 416.389 42.5646 416.737C42.8255 416.911 42.9995 417.433 42.9125 417.781C42.8255 418.129 42.5646 418.563 42.2166 418.737C41.6076 418.998 40.9116 418.998 40.2156 419.085C38.9977 419.259 37.7797 419.346 36.5618 419.694C34.9088 420.129 34.4739 420.738 34.7348 422.391C35.0828 424.566 35.6918 426.654 36.2138 428.829C36.8228 430.917 37.4317 433.092 38.1277 435.18C38.6497 436.746 39.1717 437.007 40.9986 436.833C41.4336 436.746 41.8686 436.746 42.2166 436.659C47.6974 435.267 47.6974 435.267 46.0444 430.134C45.4354 428.133 44.6525 426.219 43.9565 424.305C43.6955 423.696 43.5215 423 43.4345 422.304C43.3475 421.695 43.6085 421.173 44.1305 420.912C44.8265 420.564 45.5224 420.738 46.0444 421.26C46.3054 421.521 46.5664 421.956 46.7404 422.304C47.7844 425.871 49.0023 429.438 49.7853 433.005C50.5683 435.528 49.6983 437.007 47.1754 438.051ZM104.68 502.167C103.114 501.036 101.896 500.079 100.678 499.209C99.0254 497.905 99.0254 497.817 100.069 496.252C103.636 490.858 107.986 486.073 112.945 481.897C114.337 480.766 114.511 480.766 115.729 481.723C117.034 482.68 118.252 483.811 119.818 484.942C113.989 489.988 108.943 495.556 104.68 502.167Z" fill="black"/>
<path d="M196.462 353.316L196.375 353.142H196.549C196.549 353.229 196.462 353.316 196.462 353.316Z" fill="white"/>
<path d="M291.201 285.806C293.289 285.458 295.29 286.067 297.117 287.111C297.9 287.546 297.9 286.763 297.987 286.328C298.161 285.458 297.813 284.675 296.943 284.327C295.638 283.805 294.333 283.457 292.941 283.457C292.158 283.457 291.288 283.892 290.592 282.935C290.679 282.066 290.766 281.109 290.94 280.239C291.288 277.629 291.027 275.019 290.418 272.496C289.113 267.363 285.198 263.796 280.066 263.1C276.499 262.665 273.28 263.883 270.322 265.797C269.365 266.493 268.408 267.276 267.364 268.146C262.405 263.709 258.055 258.75 252.836 254.749C252.314 255.445 252.836 255.879 253.097 256.314C255.62 260.751 257.62 265.449 259.534 270.147C261.361 274.758 262.405 279.63 263.101 284.501C263.275 285.719 263.188 286.676 261.622 286.85C261.1 286.937 260.752 287.459 260.752 288.068C260.752 288.677 261.187 289.112 261.709 289.286C264.319 290.243 266.755 291.548 269.017 293.114C273.28 295.985 276.934 299.465 280.24 303.467C285.546 309.817 290.07 316.69 293.985 323.998C294.942 325.738 295.551 325.825 297.117 324.607C297.552 324.259 297.726 323.737 298.074 323.302C298.074 321.91 297.987 320.605 297.987 319.213C297.987 309.817 297.987 300.422 297.9 291.026C295.899 289.025 293.55 287.72 290.592 287.894C290.331 287.894 290.07 287.72 289.896 287.633C289.809 287.546 289.635 287.459 289.635 287.285C289.635 287.024 289.722 286.676 289.896 286.502C290.157 286.154 290.679 285.893 291.201 285.806ZM275.107 267.537C273.28 268.494 271.54 269.538 269.887 270.756C269.539 271.017 269.104 270.93 268.756 270.582C268.408 270.234 268.408 269.799 268.669 269.451C270.235 267.45 272.062 265.884 274.759 265.71C275.194 265.71 275.542 266.058 275.629 266.58C275.455 266.928 275.368 267.45 275.107 267.537Z" fill="black"/>
<path d="M74.1444 96.0667C72.6655 97.7196 71.5345 99.0246 70.3166 100.33C69.7946 100.851 69.0986 100.938 68.4896 100.504C67.7937 99.9815 67.7937 99.1986 68.1417 98.6766C69.1856 96.9366 70.4036 95.2837 71.6215 93.4568C70.9256 92.4998 70.3166 91.6298 69.7076 90.7599C69.4466 90.3249 69.1856 89.8029 69.0986 89.2809C69.0116 88.672 69.3596 88.15 69.8816 87.976C70.2296 87.802 70.7516 87.802 71.0126 87.889C71.4475 88.15 71.8825 88.4979 72.3175 88.9329C73.9704 90.4119 73.9704 90.4119 75.3624 88.585C75.9714 87.715 76.5803 86.758 77.2763 85.888C77.6243 85.4531 78.0593 85.1051 78.5813 84.9311C79.1033 84.6701 79.7122 84.7571 80.0602 85.2791C80.2342 85.6271 80.4952 86.149 80.3212 86.41C79.4512 88.063 78.4073 89.8029 77.4503 91.3688C76.4064 93.1088 76.4064 93.1088 77.6243 94.5007C78.3203 95.2837 79.1033 96.1537 79.7122 97.0236C80.0602 97.4586 79.9732 98.0676 79.5382 98.5896C79.0163 99.2856 78.2333 99.2855 77.7113 98.9376C76.4934 98.0676 75.4494 97.1106 74.1444 96.0667Z" fill="#000508"/>
<path d="M156.095 111.378C155.573 110.247 155.051 109.116 154.355 108.159C150.18 101.808 146.004 95.4576 141.828 89.1938C140.436 87.1059 138.957 85.192 137.478 83.191C135.825 81.0161 133.737 79.6242 130.953 79.4502C127.386 79.1892 123.819 78.6672 120.253 78.3192C119.035 78.1452 117.817 77.9712 116.686 77.2753C115.729 76.6663 115.642 75.6223 116.686 75.0133C118.252 74.0564 119.992 73.6214 121.732 73.1864C123.906 72.6644 125.907 71.8815 127.647 70.3155C129.213 68.9236 130.083 67.2706 129.735 65.1827C129.3 62.6598 127.212 60.5719 124.863 60.1369C122.428 59.7019 119.905 60.8329 118.6 63.1818C117.991 64.2258 117.73 65.5307 117.295 66.6617C117.034 67.1836 117.121 68.2276 116.164 68.0536C115.729 67.9666 115.381 67.2706 115.207 66.8357C114.859 66.0527 114.598 65.2697 114.598 64.4867C114.337 60.7459 115.033 57.266 118.252 54.9171C120.34 53.3512 122.776 53.0902 125.385 53.6992C126.081 53.8731 126.69 54.3081 127.386 54.0471C127.734 53.8731 128.082 53.6122 128.256 53.2642C128.343 52.9162 128.343 52.3942 128.169 52.1332C127.821 51.6982 127.386 51.3502 126.864 51.1762C122.515 49.3493 117.208 50.7413 114.163 54.4821C111.988 57.179 111.292 60.3979 111.379 63.7908C111.466 66.9227 112.423 69.7066 115.555 71.7075C114.685 72.5774 114.076 72.9254 113.728 73.5344C112.336 75.4483 112.423 77.4493 113.989 79.1892C114.772 80.0592 115.642 80.6681 116.773 80.9291C118.078 81.2771 119.47 81.6251 120.775 81.7991C123.819 82.1471 126.777 82.4951 129.822 82.7561C132.171 82.9301 133.998 83.974 135.477 85.801C136.434 87.0189 137.304 88.2369 138.174 89.4548C142.785 96.3276 147.309 103.2 151.919 110.073C152.615 111.117 153.398 112.074 154.268 112.944C154.616 113.379 155.312 113.292 155.834 112.944C156.008 112.422 156.356 111.987 156.095 111.378ZM121.123 64.7477C122.08 62.9208 124.254 62.6598 125.559 64.0518C126.69 65.1827 126.69 66.5747 125.559 67.7056C123.906 69.2716 121.993 70.0545 119.644 70.0545C119.731 67.9666 120.34 66.3137 121.123 64.7477Z" fill="black"/>
<path d="M111.988 511.041C111.988 511.041 97.2855 499.47 93.6316 500.862C89.9777 502.254 85.1059 510.171 89.3688 514.608C93.6316 519.045 103.462 526.091 105.376 523.481C107.203 520.872 113.728 514.434 111.988 511.041Z" fill="black"/>
<path d="M111.727 509.127C110.248 507.735 108.682 506.43 107.203 505.038C106.246 505.734 105.202 505.821 104.245 505.038C102.07 503.385 99.8954 501.819 97.7205 500.08C96.5025 499.123 95.2846 498.253 93.8926 497.731C92.2397 497.122 91.2827 497.383 90.4998 498.949C89.4558 501.037 88.5858 503.211 87.8029 505.386C87.4549 506.343 86.8459 507.039 85.8889 507.3C85.6279 508.344 85.454 509.388 85.106 510.432C84.41 512.52 85.019 514.173 86.4979 515.565C87.2809 516.348 88.0639 517.044 88.9338 517.653C90.5868 518.871 92.2397 520.089 93.8056 521.22C96.1546 523.308 99.1124 524.439 101.896 525.918C104.68 527.484 107.116 526.788 108.856 523.917C109.987 522.09 110.509 519.915 111.814 518.088C112.249 516.522 112.771 514.956 113.119 513.39C113.467 511.824 113.032 510.345 111.727 509.127ZM96.4155 515.391C95.8936 516.174 94.5016 515.739 94.5016 515.217C94.5016 514.173 95.1976 513.999 94.8496 513.477C94.6756 513.129 92.4137 512.085 92.1527 511.911C92.1527 512.172 92.2397 512.694 92.2397 512.955C92.0657 513.564 90.9348 513.477 90.7608 512.955C90.5868 512.433 90.4128 511.911 90.3258 511.389C90.2388 510.693 90.5868 509.301 91.1957 509.301C91.6307 509.301 95.8936 511.563 96.1546 511.476C96.5895 511.302 96.5895 510.693 96.8505 510.606C97.4595 510.519 98.2425 511.041 98.1555 511.476C97.9815 512.694 97.0245 514.347 96.4155 515.391ZM98.5905 508.866C97.4595 510.084 96.0676 510.258 94.5016 509.214C93.1097 508.257 92.5877 507.3 92.5877 505.821C92.5877 503.211 94.4146 501.993 96.6765 503.211C97.3725 503.559 98.0685 504.081 98.5905 504.69C99.7214 505.908 99.6344 507.735 98.5905 508.866ZM105.463 520.524C105.115 520.872 104.506 521.046 104.332 521.133C102.505 521.22 101.461 520.437 100.678 518.697C100.069 517.218 100.156 515.913 101.2 514.956C101.548 514.608 102.157 514.347 102.592 514.26C104.071 514.086 105.463 514.956 106.159 516.435C106.768 517.74 106.507 519.567 105.463 520.524ZM106.681 514.173C104.593 513.651 102.94 511.563 102.766 509.388C102.766 509.214 102.766 509.127 102.853 508.953C102.94 508.344 103.375 507.909 103.897 507.822C104.158 507.822 104.68 508.257 104.767 508.605C105.028 509.649 104.941 510.345 105.898 509.91C107.986 508.866 109.813 509.91 109.987 511.389C110.074 513.129 108.334 514.608 106.681 514.173Z" fill="#F8DB5E"/>
<path d="M208.902 37.4307C209.076 37.4307 209.511 37.4307 209.859 37.6047C211.251 38.3006 212.295 39.3446 212.904 40.7365C213.339 41.6065 213.078 42.3025 212.382 42.9115C211.773 43.4334 211.077 43.2595 210.555 42.8245C209.424 41.8675 208.38 40.7365 207.684 39.4316C207.249 38.5616 207.858 37.5177 208.902 37.4307Z" fill="#181818"/>
<path d="M202.813 48.3053C202.9 49.6973 202.204 50.8282 201.16 51.7852C200.725 52.1332 200.203 52.3942 199.681 52.2202C198.985 51.9592 198.463 51.5242 198.463 50.7412C198.376 49.0883 199.072 47.7833 200.377 46.9134C200.812 46.5654 201.421 46.6524 201.943 46.9134C202.465 47.1743 202.726 47.6093 202.813 48.3053Z" fill="#191919"/>
<path d="M237.089 80.5811C235.523 80.6681 234.479 81.712 233.174 82.234C232.479 82.495 231.783 82.408 231.348 81.712C230.913 81.016 231.174 80.3201 231.696 79.8851C233.609 78.2321 235.871 77.2752 238.133 76.1442C239.264 75.5352 240.395 75.1003 241.526 74.7523C242.222 74.5783 242.918 74.7523 243.179 75.6222C243.353 76.2312 243.179 76.7532 242.744 77.1012C242.222 77.5362 241.613 77.8842 241.004 78.1451C240.308 78.5801 240.134 79.1021 240.482 79.8851C241.004 81.103 241.526 82.408 241.961 83.7129C242.222 84.3219 242.396 85.0179 242.396 85.7139C242.483 86.4098 242.135 87.1058 241.352 87.2798C240.569 87.5408 239.96 87.2798 239.612 86.5838C238.916 85.1049 238.394 83.5389 237.785 81.973C237.698 81.451 237.35 81.016 237.089 80.5811Z" fill="#0C0C0C"/>
<path d="M95.1976 505.038C96.3286 504.951 97.3726 505.821 97.4596 506.865C97.4596 507.126 97.2856 507.387 97.1116 507.561C96.4156 508.083 95.8066 507.822 95.2846 507.3C94.7627 506.865 94.4147 506.256 94.6757 505.473C94.6757 505.299 95.0236 505.212 95.1976 505.038Z" fill="#F8DB5E"/>
<path d="M104.419 518.262C104.332 518.523 104.245 518.871 103.984 518.958C103.549 519.132 103.114 518.871 102.94 518.523C102.505 518.001 102.418 517.305 102.679 516.696C103.027 516.087 103.897 516.522 104.158 516.957C104.332 517.305 104.506 517.827 104.419 518.262Z" fill="#F8DB5E"/>
<path d="M107.725 511.215C107.899 511.302 108.073 511.476 108.073 511.737C108.073 512.085 107.812 512.259 107.551 512.346C107.116 512.433 106.594 512.433 106.333 511.998C105.985 511.563 106.507 511.215 106.942 511.128C107.116 510.954 107.464 511.041 107.725 511.215Z" fill="#F8DB5E"/>
<path d="M141.306 201.507C140.958 201.333 140.523 201.246 140.175 201.072C136.869 199.245 135.738 196.548 137.13 193.764C138.783 190.371 141.567 189.327 145.221 190.632C145.308 190.719 145.482 190.719 145.569 190.806C149.658 193.59 148.527 201.942 142.785 201.681C142.35 201.768 141.741 201.681 141.306 201.507Z" fill="#F8DB5E"/>
<path d="M93.6316 521.307C94.5886 520.959 95.5456 521.307 96.3285 521.829C97.8945 522.698 99.3734 523.655 100.939 524.525C101.896 525.047 102.853 525.569 103.897 525.917C105.028 526.352 106.072 526.004 106.768 524.96C107.377 523.916 107.986 522.785 108.595 521.742C109.03 520.872 109.378 520.002 109.813 519.132C110.161 518.436 110.944 518.436 111.553 518.349C111.64 518.697 111.901 519.132 111.901 519.48C111.466 522.089 110.509 524.525 108.943 526.613C107.377 528.875 105.376 529.484 102.853 528.527C99.6344 527.309 96.7635 525.395 94.0666 523.307C93.5446 522.698 93.5446 522.003 93.6316 521.307Z" fill="#100E09"/>
</g>
<defs>
<clipPath id="clip0_1_109">
<rect width="298" height="571" fill="white"/>
</clipPath>
</defs>
</svg>
