<svg width="20" height="20" viewBox="0 0 20 20" fill="none" xmlns="http://www.w3.org/2000/svg">
<mask id="mask0_1_566" style="mask-type:luminance" maskUnits="userSpaceOnUse" x="2" y="2" width="16" height="16">
<path d="M18 2H2V18H18V2Z" fill="white"/>
</mask>
<g mask="url(#mask0_1_566)">
<path d="M17.9968 18L18.0008 17.9993V12.1313C18.0008 9.26065 17.3828 7.04932 14.0268 7.04932C12.4135 7.04932 11.3308 7.93465 10.8888 8.77398H10.8422V7.31732H7.66016V17.9993H10.9735V12.71C10.9735 11.3173 11.2375 9.97065 12.9622 9.97065C14.6615 9.97065 14.6868 11.56 14.6868 12.7993V18H17.9968Z" fill="white"/>
<path d="M2.26562 7.31787H5.58297V17.9999H2.26562V7.31787Z" fill="white"/>
<path d="M3.92133 2C2.86067 2 2 2.86067 2 3.92133C2 4.982 2.86067 5.86067 3.92133 5.86067C4.982 5.86067 5.84267 4.982 5.84267 3.92133C5.842 2.86067 4.98133 2 3.92133 2Z" fill="white"/>
</g>
</svg>
