<svg width="160" height="160" viewBox="0 0 160 160" fill="none" xmlns="http://www.w3.org/2000/svg">
<g clip-path="url(#clip0_1_264)">
<path d="M127.785 48.214C111.836 35.366 72.999 19.714 34.457 42.307C17.623 52.201 17.327 68.297 24.267 74.351C33.128 82.178 52.768 85.722 58.527 93.844C66.797 105.362 65.025 139.474 89.538 138.293C129.705 136.373 159.682 73.909 127.785 48.214Z" fill="#0EB770"/>
<path d="M70.636 79.3721H110.803C111.836 79.3721 112.722 80.2581 112.427 81.2921C111.246 88.6751 106.077 114.961 95.74 125.888C95.445 126.184 95.002 126.479 94.559 126.479H54.393C53.063 126.479 52.178 124.855 53.063 123.821C57.493 117.619 67.388 101.523 69.012 80.9961C69.012 80.1111 69.75 79.3721 70.636 79.3721Z" fill="white"/>
<path d="M112.427 81.44C112.575 80.406 111.837 79.52 110.803 79.52H70.637C69.75 79.52 69.012 80.258 69.012 81.144C68.864 83.507 62.958 104.328 62.662 106.544C62.662 106.544 67.092 106.396 70.636 106.544C76.396 106.839 88.062 89.857 88.062 89.857H110.951L112.427 81.44Z" fill="#0EB770"/>
<path d="M88.21 71.103H95.002C95.15 71.103 95.297 71.398 95.297 71.693C95.15 73.761 94.264 80.701 92.492 83.803C92.492 83.95 92.344 83.95 92.344 83.95H85.551C85.256 83.95 85.108 83.507 85.256 83.212C85.994 81.587 87.618 77.157 87.914 71.693C87.914 71.398 88.062 71.103 88.21 71.103Z" fill="#0A1411"/>
<path d="M94.559 127.365H70.784L70.194 125.888H94.559C94.854 125.888 95.149 125.741 95.297 125.593C105.487 114.813 110.507 88.971 111.836 81.292C111.836 80.996 111.836 80.702 111.689 80.553C111.487 80.3683 111.224 80.2634 110.95 80.258H70.636C70.193 80.258 69.75 80.701 69.75 81.144L68.274 80.996C68.421 79.668 69.455 78.781 70.636 78.781H110.803C111.541 78.781 112.279 79.077 112.722 79.667C113.165 80.258 113.313 80.997 113.313 81.587C111.984 89.267 106.963 115.551 96.479 126.627C95.888 127.07 95.297 127.365 94.559 127.365Z" fill="#0A1411"/>
<path d="M96.036 104.033H80.235V105.51H96.035L96.036 104.033ZM93.082 111.712H77.725V113.189H93.082V111.712ZM74.328 106.248C74.5251 106.253 74.7213 106.219 74.9049 106.147C75.0885 106.075 75.2559 105.967 75.3971 105.829C75.5384 105.692 75.6506 105.527 75.7273 105.346C75.8039 105.164 75.8434 104.969 75.8434 104.771C75.8434 104.574 75.8039 104.379 75.7273 104.197C75.6506 104.016 75.5384 103.851 75.3971 103.714C75.2559 103.576 75.0885 103.468 74.9049 103.396C74.7213 103.324 74.5251 103.29 74.328 103.295C73.9431 103.305 73.5773 103.465 73.3085 103.741C73.0398 104.017 72.8894 104.386 72.8894 104.771C72.8894 105.157 73.0398 105.526 73.3085 105.802C73.5773 106.078 73.9431 106.238 74.328 106.248ZM71.375 113.927C71.5721 113.932 71.7683 113.898 71.9519 113.826C72.1355 113.754 72.3029 113.646 72.4442 113.508C72.5854 113.371 72.6976 113.206 72.7743 113.025C72.8509 112.843 72.8904 112.648 72.8904 112.45C72.8904 112.253 72.8509 112.058 72.7743 111.876C72.6976 111.695 72.5854 111.53 72.4442 111.393C72.3029 111.255 72.1355 111.147 71.9519 111.075C71.7683 111.003 71.5721 110.969 71.375 110.974C70.9901 110.984 70.6242 111.144 70.3555 111.42C70.0868 111.696 69.9364 112.065 69.9364 112.45C69.9364 112.836 70.0868 113.205 70.3555 113.481C70.6242 113.757 70.9901 113.917 71.375 113.927Z" fill="#0A1411"/>
<path d="M119.072 62.095C129.756 62.095 138.417 53.434 138.417 42.75C138.417 32.066 129.756 23.405 119.072 23.405C108.389 23.405 99.728 32.066 99.728 42.75C99.728 53.434 108.389 62.095 119.072 62.095Z" fill="white"/>
<path d="M119.072 62.833C107.997 62.833 98.989 53.825 98.989 42.75C98.989 31.675 107.997 22.667 119.072 22.667C130.148 22.667 139.156 31.675 139.156 42.75C139.156 53.825 130.148 62.833 119.072 62.833ZM119.072 24.143C108.883 24.143 100.466 32.561 100.466 42.75C100.466 52.94 108.883 61.356 119.072 61.356C129.262 61.356 137.679 52.939 137.679 42.75C137.679 32.56 129.262 24.143 119.072 24.143Z" fill="#0A1411"/>
<path d="M115.233 23.5529C115.233 23.5529 140.928 27.0969 134.135 54.8589C134.135 54.8589 145.21 41.4209 132.658 28.8689C125.127 21.4849 115.233 23.5529 115.233 23.5529Z" fill="#0EB770"/>
<path d="M119.072 62.833C107.997 62.833 98.989 53.825 98.989 42.75C98.989 31.675 107.997 22.667 119.072 22.667C130.148 22.667 139.156 31.675 139.156 42.75C139.156 53.825 130.148 62.833 119.072 62.833ZM119.072 24.143C108.883 24.143 100.466 32.561 100.466 42.75C100.466 52.94 108.883 61.356 119.072 61.356C129.262 61.356 137.679 52.939 137.679 42.75C137.679 32.56 129.262 24.143 119.072 24.143Z" fill="#0A1411"/>
<path d="M119.072 51.9051C118.629 51.9051 118.334 51.6101 118.334 51.1671V34.7761C118.334 34.3331 118.629 34.0371 119.072 34.0371C119.515 34.0371 119.811 34.3331 119.811 34.7761V51.1671C119.811 51.4621 119.515 51.9051 119.072 51.9051Z" fill="#0A1411"/>
<path d="M127.342 43.6359H110.803C110.36 43.6359 110.064 43.3399 110.064 42.8969C110.064 42.4549 110.36 42.1589 110.803 42.1589H127.194C127.637 42.1589 127.933 42.4549 127.933 42.8979C127.933 43.3399 127.637 43.6359 127.342 43.6359Z" fill="#0A1411"/>
<path d="M43.17 57.5171H84.074C85.108 57.5171 85.994 58.4031 85.847 59.5841C84.517 67.1151 79.349 93.8441 68.864 105.214C68.569 105.51 68.126 105.805 67.535 105.805H26.483C25.006 105.805 24.268 104.181 25.006 102.999C29.436 96.7971 39.626 80.2591 41.398 59.1411C41.545 58.2551 42.284 57.5171 43.17 57.5171Z" fill="white"/>
<path d="M67.535 106.396H26.483C25.597 106.396 24.711 105.953 24.268 105.067C23.825 104.181 23.972 103.295 24.416 102.556C28.698 96.5021 38.887 80.1111 40.659 59.1411C40.807 57.8121 41.841 56.7791 43.169 56.7791H84.074C84.813 56.7791 85.551 57.0741 85.994 57.6651C86.437 58.2551 86.733 58.9941 86.584 59.7321C85.256 67.7061 80.087 94.287 69.307 105.658C68.864 106.101 68.126 106.396 67.535 106.396ZM43.17 58.2561C42.579 58.2561 42.284 58.6981 42.136 59.1411C40.512 80.4061 30.027 97.0931 25.745 103.295C25.449 103.59 25.449 104.033 25.597 104.328C25.745 104.624 26.04 104.919 26.483 104.919H67.535C67.831 104.919 68.126 104.771 68.274 104.624C78.611 93.5491 83.779 67.2641 85.108 59.4371C85.108 59.1411 85.108 58.8461 84.96 58.6981C84.813 58.4031 84.517 58.4031 84.222 58.4031H43.17V58.2551V58.2561Z" fill="#0A1411"/>
<path d="M85.847 59.4369C85.994 58.4029 85.256 57.3689 84.075 57.3689H43.17C42.284 57.3689 41.545 58.1079 41.398 58.9939C41.2575 61.3244 40.9616 63.6429 40.512 65.9339H84.517L85.847 59.4369Z" fill="#0EB770"/>
<path d="M67.535 106.396H26.483C25.597 106.396 24.711 105.953 24.268 105.067C23.825 104.181 23.972 103.295 24.416 102.556C28.698 96.5021 38.887 80.1111 40.659 59.1411C40.807 57.8121 41.841 56.7791 43.169 56.7791H84.074C84.813 56.7791 85.551 57.0741 85.994 57.6651C86.437 58.2551 86.733 58.9941 86.584 59.7321C85.256 67.7061 80.087 94.287 69.307 105.658C68.864 106.101 68.126 106.396 67.535 106.396ZM43.17 58.2561C42.579 58.2561 42.284 58.6981 42.136 59.1411C40.512 80.4061 30.027 97.0931 25.745 103.295C25.449 103.59 25.449 104.033 25.597 104.328C25.745 104.624 26.04 104.919 26.483 104.919H67.535C67.831 104.919 68.126 104.771 68.274 104.624C78.611 93.5491 83.779 67.2641 85.108 59.4371C85.108 59.1411 85.108 58.8461 84.96 58.6981C84.813 58.4031 84.517 58.4031 84.222 58.4031H43.17V58.2551V58.2561Z" fill="#0A1411"/>
<path d="M72.409 75.09H54.836V76.566H72.409V75.09ZM69.16 82.326H53.064V83.802H69.16V82.326ZM66.059 90.152H50.406V91.629H66.059V90.152ZM48.781 77.305C49.1727 77.305 49.5484 77.1494 49.8254 76.8724C50.1024 76.5954 50.258 76.2197 50.258 75.828C50.258 75.4363 50.1024 75.0606 49.8254 74.7836C49.5484 74.5066 49.1727 74.351 48.781 74.351C48.3893 74.351 48.0136 74.5066 47.7366 74.7836C47.4596 75.0606 47.304 75.4363 47.304 75.828C47.304 76.2197 47.4596 76.5954 47.7366 76.8724C48.0136 77.1494 48.3893 77.305 48.781 77.305ZM46.862 84.54C47.0591 84.5452 47.2553 84.5108 47.4389 84.4389C47.6225 84.367 47.7899 84.259 47.9312 84.1214C48.0724 83.9838 48.1846 83.8193 48.2613 83.6376C48.3379 83.4559 48.3774 83.2607 48.3774 83.0635C48.3774 82.8663 48.3379 82.6711 48.2613 82.4894C48.1846 82.3077 48.0724 82.1432 47.9312 82.0056C47.7899 81.868 47.6225 81.7601 47.4389 81.6882C47.2553 81.6163 47.0591 81.5819 46.862 81.587C46.4703 81.587 46.0946 81.7426 45.8176 82.0196C45.5406 82.2966 45.385 82.6723 45.385 83.064C45.385 83.4557 45.5406 83.8314 45.8176 84.1084C46.0946 84.3854 46.4703 84.54 46.862 84.54ZM44.056 92.367C44.2531 92.3721 44.4493 92.3378 44.6329 92.2659C44.8165 92.194 44.9839 92.086 45.1252 91.9484C45.2664 91.8108 45.3786 91.6463 45.4553 91.4646C45.5319 91.2829 45.5714 91.0877 45.5714 90.8905C45.5714 90.6933 45.5319 90.4981 45.4553 90.3164C45.3786 90.1347 45.2664 89.9702 45.1252 89.8326C44.9839 89.695 44.8165 89.5871 44.6329 89.5152C44.4493 89.4433 44.2531 89.4089 44.056 89.414C43.6711 89.424 43.3053 89.584 43.0365 89.8598C42.7678 90.1356 42.6174 90.5055 42.6174 90.8905C42.6174 91.2756 42.7678 91.6454 43.0365 91.9212C43.3053 92.197 43.6711 92.357 44.056 92.367ZM61.333 47.77H69.012C69.16 47.77 69.307 48.066 69.307 48.361C69.012 50.576 68.126 58.698 66.059 62.095C66.059 62.242 65.911 62.242 65.763 62.242H58.233C57.937 62.242 57.789 61.799 57.937 61.356C58.823 59.436 60.743 54.563 61.037 48.214C61.037 47.918 61.185 47.77 61.333 47.77Z" fill="#0A1411"/>
<path d="M49.372 57.517C44.203 57.517 40.069 52.791 40.069 46.885C40.069 52.791 35.934 57.517 30.765 57.517C35.934 57.517 40.069 62.242 40.069 68.149C40.069 62.242 44.203 57.517 49.372 57.517Z" fill="#F8DB5E"/>
<path d="M40.069 68.888C39.625 68.888 39.33 68.592 39.33 68.149C39.33 62.685 35.49 58.255 30.765 58.255C30.322 58.255 30.027 57.96 30.027 57.517C30.027 57.074 30.322 56.778 30.765 56.778C35.491 56.778 39.33 52.348 39.33 46.885C39.33 46.442 39.626 46.146 40.069 46.146C40.511 46.146 40.807 46.442 40.807 46.885C40.807 52.348 44.647 56.779 49.372 56.779C49.815 56.779 50.11 57.074 50.11 57.517C50.11 57.96 49.815 58.255 49.372 58.255C44.646 58.255 40.807 62.685 40.807 68.149C40.807 68.592 40.512 68.888 40.069 68.888ZM34.309 57.517C36.967 58.698 39.035 60.913 40.069 63.867C41.102 60.913 43.169 58.551 45.828 57.517C43.17 56.336 41.102 54.12 40.068 51.167C39.035 53.973 36.968 56.336 34.309 57.517Z" fill="#0A1411"/>
</g>
<defs>
<clipPath id="clip0_1_264">
<rect width="160" height="160" fill="white"/>
</clipPath>
</defs>
</svg>
