<svg width="160" height="160" viewBox="0 0 160 160" fill="none" xmlns="http://www.w3.org/2000/svg">
<g clip-path="url(#clip0_1_340)">
<path d="M119.849 84.9539C117.76 97.7359 102.766 112.853 85.559 121.702C85.314 121.825 85.191 121.948 84.945 122.071C84.699 122.194 84.576 122.316 84.331 122.316C82.733 123.177 81.012 123.914 79.415 124.529C78.555 124.897 77.694 125.266 76.834 125.512C76.711 125.512 76.588 125.635 76.464 125.635C76.342 125.635 76.342 125.635 76.219 125.758C75.973 125.881 75.85 125.881 75.605 126.004C64.297 130.059 52.868 130.797 44.141 126.249C27.427 117.4 17.226 90.8539 20.791 66.8879C20.791 66.6419 20.791 66.5179 20.913 66.2729C20.913 66.0269 20.913 65.9039 21.036 65.6589C21.282 64.0609 21.65 62.5859 22.019 61.1109C22.265 60.1279 22.634 59.1449 23.002 58.1609C23.125 57.9159 23.125 57.7929 23.248 57.5469C23.371 57.3009 23.371 57.1779 23.494 56.9319C28.902 45.6249 44.51 34.6869 66.879 42.9219C103.503 56.6869 123.659 61.4799 119.849 84.9539Z" fill="#FDA162"/>
<path d="M83.593 31.614C69.46 31.614 58.03 43.044 58.03 57.178V60.988H69.09V57.178C69.09 45.011 77.694 34.81 89.124 32.229C87.404 31.86 85.56 31.615 83.594 31.615L83.593 31.614Z" fill="white"/>
<path d="M69.214 61.603H58.152C57.784 61.603 57.538 61.357 57.538 60.988V57.178C57.538 42.798 69.337 31 83.716 31C85.56 31 87.526 31.246 89.37 31.614C89.615 31.737 89.861 31.984 89.861 32.229C89.861 32.475 89.615 32.721 89.37 32.843C78.063 35.302 69.828 45.625 69.828 57.178V60.988C69.828 61.357 69.582 61.603 69.214 61.603ZM58.644 60.373H68.476V57.178C68.476 45.994 75.85 35.916 86.297 32.352C85.314 32.229 84.454 32.229 83.593 32.229C69.828 32.229 58.644 43.413 58.644 57.179V60.373Z" fill="#060606"/>
<path d="M94.778 31.614C92.811 31.614 90.968 31.86 89.247 32.229C100.677 34.81 109.28 45.011 109.28 57.179V83.725H120.341V57.178C120.341 43.044 108.911 31.614 94.778 31.614Z" fill="white"/>
<path d="M116.408 43.5359C116.408 43.5359 120.341 59.1449 109.28 60.9879H120.341C120.341 60.9879 121.201 50.9099 116.408 43.5359Z" fill="#FDA162"/>
<path d="M120.341 84.217H109.28C108.911 84.217 108.665 83.971 108.665 83.602V57.178C108.665 45.625 100.431 35.302 89.124 32.844C88.878 32.721 88.632 32.474 88.632 32.229C88.632 31.983 88.878 31.737 89.124 31.615C90.968 31.245 92.934 31 94.777 31C109.157 31 120.956 42.799 120.956 57.178V83.725C120.956 83.971 120.71 84.217 120.341 84.217ZM109.772 82.987H119.604V57.179C119.604 43.414 108.42 32.23 94.654 32.23C93.794 32.23 92.811 32.23 91.951 32.353C102.397 35.917 109.772 45.873 109.772 57.179V82.989V82.987Z" fill="black"/>
<path d="M68.968 57.67H23.125C22.634 58.899 22.142 60.005 21.896 61.234L20.79 66.396H67.616C68.7477 66.3889 69.8696 66.6066 70.9165 67.0365C71.9635 67.4663 72.9147 68.0998 73.7149 68.9C74.5152 69.7003 75.1486 70.6515 75.5785 71.6984C76.0083 72.7454 76.226 73.8672 76.219 74.999V125.881C79.169 124.775 82.119 123.546 84.945 122.071V73.647C84.9492 71.5476 84.5388 69.4682 83.7374 67.5278C82.936 65.5875 81.7593 63.8245 80.2749 62.3401C78.7904 60.8557 77.0275 59.679 75.0871 58.8775C73.1468 58.0761 71.0673 57.6657 68.968 57.67Z" fill="#FDA162"/>
<path d="M76.465 76.597V125.881C76.342 125.881 76.342 125.881 76.219 126.004C64.666 130.182 52.991 131.165 44.142 126.372C27.304 117.523 16.98 90.485 20.79 66.396H66.264C71.917 66.396 76.464 70.943 76.464 76.596L76.465 76.597Z" fill="white"/>
<path d="M79.415 75.737V124.652C78.555 125.02 77.694 125.389 76.833 125.635V74.753C76.588 68.608 71.549 66.888 67.616 66.273C71.057 65.413 79.415 65.781 79.415 75.737Z" fill="white"/>
<path d="M68.968 57.0549H23.37C23.247 57.3009 23.124 57.4239 23.124 57.6699C23.001 57.9159 23.001 58.0379 22.878 58.2839H68.967C77.447 58.2839 84.452 65.1669 84.452 73.7699V122.439C84.698 122.317 84.822 122.194 85.067 122.194C85.313 122.194 85.436 121.948 85.682 121.825V73.6469C85.559 64.5519 78.185 57.0549 68.968 57.0549Z" fill="black"/>
<path d="M67.616 65.781H20.913C20.913 66.027 20.913 66.151 20.79 66.396C20.79 66.642 20.79 66.765 20.667 67.01H67.616C68.6658 67.0079 69.7057 67.2131 70.676 67.6139C71.6463 68.0147 72.5278 68.6032 73.2701 69.3456C74.0124 70.088 74.6008 70.9696 75.0014 71.9399C75.4021 72.9103 75.6072 73.9502 75.605 75V126.126C75.85 126.004 75.973 126.004 76.219 125.881C76.342 125.881 76.342 125.881 76.465 125.758C76.588 125.758 76.711 125.635 76.834 125.635V74.999C76.834 69.96 72.654 65.781 67.616 65.781Z" fill="black"/>
<path d="M60.365 113.836V117.892C60.365 118.507 59.75 118.752 59.258 118.384L56.678 116.417C56.308 116.171 56.308 115.68 56.678 115.311L59.258 113.345C59.75 112.976 60.365 113.345 60.365 113.836Z" fill="white"/>
<path d="M59.627 119.121C59.381 119.121 59.013 118.998 58.89 118.875L56.309 116.909C55.94 116.663 55.817 116.294 55.817 115.926C55.817 115.557 55.94 115.188 56.309 114.942L58.889 112.976C59.259 112.73 59.75 112.607 60.242 112.853C60.733 113.099 60.979 113.468 60.979 113.959V118.015C60.979 118.507 60.733 118.998 60.242 119.121H59.627ZM59.75 113.836L57.17 115.803L59.75 117.892V113.836Z" fill="#060606"/>
<path d="M55.449 120.35H47.583C46.6 120.35 45.739 119.49 45.739 118.507V113.59C45.739 112.607 46.599 111.747 47.583 111.747H55.449C56.432 111.747 57.292 112.607 57.292 113.59V118.507C57.292 119.613 56.432 120.35 55.449 120.35Z" fill="white"/>
<path d="M55.449 120.965H47.583C46.9317 120.963 46.3078 120.703 45.8473 120.243C45.3868 119.782 45.1271 119.158 45.125 118.507V113.59C45.1271 112.939 45.3868 112.315 45.8473 111.854C46.3078 111.394 46.9317 111.134 47.583 111.132H55.449C56.1003 111.134 56.7242 111.394 57.1847 111.854C57.6452 112.315 57.9049 112.939 57.907 113.59V118.507C57.9049 119.158 57.6452 119.782 57.1847 120.243C56.7242 120.703 56.1003 120.963 55.449 120.965ZM47.583 112.484C46.968 112.484 46.353 112.976 46.353 113.713V118.629C46.353 119.244 46.845 119.858 47.583 119.858H55.449C56.063 119.858 56.678 119.367 56.678 118.629V113.713C56.678 113.099 56.186 112.484 55.448 112.484H47.583Z" fill="#060606"/>
<path d="M62.208 106.708H40.086C38.488 106.708 37.259 105.479 37.259 103.881V81.7589C37.259 80.1609 38.488 78.9319 40.086 78.9319H62.086C63.683 78.9319 64.912 80.1609 64.912 81.7589V103.758C65.035 105.356 63.683 106.708 62.208 106.708Z" fill="#FDA162"/>
<path d="M60.365 106.708C59.75 99.088 55.817 93.188 51.147 93.188C46.477 93.188 42.544 99.088 41.929 106.708M51.024 93.066C52.3604 93.066 53.6421 92.5351 54.5871 91.5901C55.5321 90.6452 56.063 89.3635 56.063 88.027C56.063 86.6906 55.5321 85.4089 54.5871 84.4639C53.6421 83.5189 52.3604 82.988 51.024 82.988C49.6876 82.988 48.4059 83.5189 47.4609 84.4639C46.5159 85.4089 45.985 86.6906 45.985 88.027C45.985 89.3635 46.5159 90.6452 47.4609 91.5901C48.4059 92.5351 49.6876 93.066 51.024 93.066Z" fill="white"/>
<path d="M53.85 93.803C53.85 93.803 61.84 106.585 44.51 106.585C49.55 106.462 60.365 106.585 60.365 106.585C60.365 106.585 60.242 98.105 53.851 93.803H53.85Z" fill="#FDA162"/>
<path d="M62.208 107.322H40.086C38.242 107.322 36.645 105.725 36.645 103.881V81.7589C36.645 79.9149 38.242 78.3169 40.085 78.3169H62.085C63.929 78.3169 65.527 79.9149 65.527 81.7589V103.758C65.65 105.725 64.052 107.322 62.208 107.322ZM40.086 79.5459C38.856 79.5459 37.874 80.5299 37.874 81.7589V103.758C37.874 104.987 38.857 105.97 40.086 105.97H62.086C62.3768 105.971 62.665 105.915 62.9339 105.804C63.2028 105.693 63.4471 105.53 63.6528 105.325C63.8584 105.119 64.0213 104.875 64.132 104.606C64.2428 104.337 64.2992 104.049 64.298 103.758V81.7579C64.2992 81.467 64.2427 81.1787 64.1319 80.9098C64.0211 80.6408 63.8582 80.3964 63.6524 80.1908C63.4467 79.9851 63.2022 79.8222 62.9332 79.7116C62.6642 79.6009 62.3759 79.5446 62.085 79.5459H40.086Z" fill="black"/>
<path d="M42.544 106.708L41.314 106.585C42.052 98.473 46.108 92.575 51.147 92.575C56.186 92.575 60.242 98.473 60.979 106.585L59.75 106.708C59.136 99.334 55.449 93.803 51.147 93.803C46.845 93.803 43.158 99.333 42.544 106.708Z" fill="black"/>
<path d="M53.85 83.8479C53.85 83.8479 55.449 91.2219 48.566 92.3279C48.566 92.3279 53.728 93.9259 55.571 89.9929C57.415 86.1829 53.851 83.8479 53.851 83.8479H53.85Z" fill="#FDA162"/>
<path d="M51.024 93.6799C50.281 93.682 49.5449 93.5372 48.8581 93.2539C48.1712 92.9706 47.5471 92.5543 47.0217 92.0289C46.4962 91.5036 46.0798 90.8796 45.7964 90.1928C45.5129 89.506 45.368 88.7699 45.37 88.0269C45.37 84.8309 47.829 82.3729 51.024 82.3729C54.219 82.3729 56.678 84.8309 56.678 88.0269C56.678 91.2219 54.219 93.6799 51.024 93.6799ZM51.024 83.6019C50.4422 83.5994 49.8657 83.7121 49.3277 83.9336C48.7897 84.1551 48.3009 84.4809 47.8895 84.8923C47.4781 85.3037 47.1522 85.7926 46.9307 86.3306C46.7092 86.8686 46.5965 87.4451 46.599 88.0269C46.5966 88.6086 46.7095 89.185 46.931 89.7229C47.1526 90.2608 47.4784 90.7495 47.8898 91.1608C48.3012 91.5721 48.79 91.8979 49.3279 92.1193C49.8658 92.3407 50.4423 92.4534 51.024 92.4509C51.6057 92.4534 52.1822 92.3407 52.7201 92.1193C53.2581 91.8979 53.7468 91.5721 54.1582 91.1608C54.5696 90.7495 54.8955 90.2608 55.117 89.7229C55.3386 89.185 55.4514 88.6086 55.449 88.0269C55.4515 87.4451 55.3388 86.8686 55.1173 86.3306C54.8958 85.7926 54.57 85.3037 54.1586 84.8923C53.7472 84.4809 53.2584 84.1551 52.7204 83.9336C52.1824 83.7121 51.6058 83.5994 51.024 83.6019ZM28.656 63.3229C29.0146 63.3229 29.3585 63.1805 29.612 62.9269C29.8656 62.6734 30.008 62.3295 30.008 61.9709C30.008 61.6123 29.8656 61.2684 29.612 61.0149C29.3585 60.7613 29.0146 60.6189 28.656 60.6189C28.2974 60.6189 27.9536 60.7613 27.7 61.0149C27.4465 61.2684 27.304 61.6123 27.304 61.9709C27.304 62.3295 27.4465 62.6734 27.7 62.9269C27.9536 63.1805 28.2974 63.3229 28.656 63.3229Z" fill="black"/>
<path d="M96.99 113.099H76.341V108.306H96.988C99.0874 108.31 101.167 107.9 103.108 107.098C105.048 106.297 106.811 105.12 108.296 103.636C109.78 102.151 110.957 100.388 111.758 98.4476C112.56 96.5071 112.97 94.4275 112.966 92.3281V84.8311H117.759V92.3281C117.759 103.758 108.419 113.099 96.99 113.099Z" fill="white"/>
<path d="M96.99 113.713H76.341C75.972 113.713 75.726 113.468 75.726 113.099V108.306C75.726 107.937 75.972 107.691 76.341 107.691H96.988C105.469 107.691 112.351 100.809 112.351 92.328V84.831C112.351 84.463 112.597 84.217 112.966 84.217H117.759C118.128 84.217 118.373 84.463 118.373 84.831V92.328C118.373 104.127 108.787 113.713 96.988 113.713H96.99ZM76.956 112.484H96.99C108.175 112.484 117.146 103.39 117.146 92.328V85.446H113.582V92.328C113.582 101.423 106.085 108.92 96.99 108.92H76.956V112.484Z" fill="black"/>
<path d="M89.247 112.853C87.895 115.065 84.945 116.54 81.381 116.54C76.711 116.54 72.778 113.836 72.778 110.518C72.778 107.2 76.588 104.496 81.381 104.496C84.945 104.496 87.895 105.97 89.247 108.183V112.853Z" fill="white"/>
<path d="M84.576 104.987C84.576 104.987 86.543 106.954 84.453 111.255C83.224 113.959 80.029 115.557 74.129 113.836C74.129 113.836 82.119 119.981 89.246 112.976C89.246 112.976 89.738 109.289 89.246 108.306C88.509 106.954 84.576 104.987 84.576 104.987Z" fill="#FDA162"/>
<path d="M81.38 117.155C76.342 117.155 72.163 114.205 72.163 110.518C72.163 106.831 76.219 103.881 81.381 103.881C84.945 103.881 88.263 105.479 89.738 107.814C89.738 107.937 89.861 108.06 89.861 108.183V112.853C89.861 112.976 89.861 113.099 89.738 113.222C88.263 115.68 84.944 117.155 81.38 117.155ZM81.38 105.11C76.956 105.11 73.392 107.568 73.392 110.518C73.392 113.468 76.956 115.926 81.381 115.926C84.576 115.926 87.403 114.697 88.632 112.73V108.306C87.28 106.462 84.452 105.11 81.38 105.11Z" fill="black"/>
<path d="M140.251 104.987C135.458 104.987 131.525 100.563 131.525 95.032C131.525 100.563 127.592 104.987 122.799 104.987C127.592 104.987 131.525 109.412 131.525 114.942C131.402 109.412 135.335 104.987 140.251 104.987Z" fill="#FAE041"/>
<path d="M131.402 115.557C131.034 115.557 130.788 115.311 130.788 114.942C130.788 109.78 127.101 105.602 122.676 105.602C122.307 105.602 122.062 105.356 122.062 104.987C122.062 104.619 122.307 104.373 122.676 104.373C127.101 104.373 130.788 100.194 130.788 95.033C130.788 94.663 131.034 94.418 131.402 94.418C131.771 94.418 132.017 94.663 132.017 95.032C132.017 100.194 135.704 104.373 140.128 104.373C140.497 104.373 140.743 104.619 140.743 104.987C140.743 105.356 140.497 105.602 140.128 105.602C135.581 105.602 132.017 109.78 132.017 114.942C132.017 115.311 131.771 115.557 131.402 115.557ZM125.872 104.987C128.453 105.97 130.542 108.306 131.525 111.132C132.508 108.306 134.598 105.97 137.179 104.987C134.598 104.004 132.508 101.669 131.525 98.842C130.419 101.669 128.453 104.004 125.872 104.987Z" fill="#060606"/>
<path d="M118.375 100.563C125.011 100.563 130.296 91.713 130.296 80.775C130.296 69.837 125.011 60.988 118.375 60.988H108.911V100.563H118.375Z" fill="black"/>
<path d="M118.375 101.177H108.911C108.542 101.177 108.297 100.931 108.297 100.563V60.988C108.297 60.62 108.542 60.374 108.911 60.374H118.375C125.257 60.374 130.911 69.591 130.911 80.775C130.911 91.96 125.257 101.177 118.375 101.177ZM109.526 99.948H118.375C124.643 99.948 129.682 91.345 129.682 80.776C129.682 70.206 124.643 61.603 118.375 61.603H109.526V99.948Z" fill="black"/>
<path d="M100.922 94.049C100.554 96.384 104.61 100.194 108.911 100.563C114.81 101.177 120.833 94.049 120.833 77.457C114.933 103.758 101.537 90.731 100.922 94.049Z" fill="black"/>
<path d="M109.526 101.177H108.788C105.593 100.931 102.889 98.965 101.414 97.121C100.554 96.015 100.185 94.909 100.308 93.926C100.431 93.434 100.677 93.189 100.8 93.066C101.414 92.574 102.397 92.82 103.749 93.189C105.962 93.68 109.157 94.418 112.23 92.574C115.671 90.362 118.375 85.323 120.218 77.334C120.341 77.088 120.587 76.843 120.833 76.843C121.201 76.843 121.324 77.088 121.324 77.457C121.324 87.658 118.989 95.278 114.933 98.965C113.336 100.44 111.492 101.177 109.526 101.177ZM100.922 94.049L101.537 94.172C101.414 94.786 101.783 95.524 102.397 96.384C103.626 97.982 106.084 99.703 108.911 99.948C110.755 100.194 112.598 99.457 114.196 97.982C116.04 96.262 119.112 92.082 119.972 82.742C118.129 88.027 115.794 91.714 112.844 93.434C109.28 95.647 105.716 94.786 103.381 94.294C102.643 94.172 101.66 93.926 101.414 94.049H100.922Z" fill="black"/>
<path d="M118.375 101.177H108.911C108.542 101.177 108.297 100.931 108.297 100.563V60.988C108.297 60.62 108.542 60.374 108.911 60.374H118.375C125.257 60.374 130.911 69.591 130.911 80.775C130.911 91.96 125.257 101.177 118.375 101.177ZM109.526 99.948H118.375C124.643 99.948 129.682 91.345 129.682 80.776C129.682 70.206 124.643 61.603 118.375 61.603H109.526V99.948Z" fill="black"/>
<path d="M108.911 100.563C115.495 100.563 120.833 91.703 120.833 80.775C120.833 69.847 115.495 60.988 108.911 60.988C102.327 60.988 96.99 69.848 96.99 80.775C96.99 91.704 102.327 100.563 108.911 100.563Z" fill="#FDA162"/>
<path d="M97.235 85.323C97.235 85.323 100.923 58.284 114.81 64.675C114.81 64.675 109.28 56.687 101.414 65.413C96.252 70.943 97.235 85.323 97.235 85.323Z" fill="white"/>
<path d="M108.911 101.177C102.029 101.177 96.375 91.96 96.375 80.775C96.375 69.591 102.029 60.374 108.911 60.374C115.794 60.374 121.447 69.591 121.447 80.775C121.447 91.96 115.794 101.177 108.911 101.177ZM108.911 61.603C102.643 61.603 97.604 70.206 97.604 80.775C97.604 91.345 102.643 99.948 108.911 99.948C115.179 99.948 120.218 91.345 120.218 80.776C120.218 70.206 115.179 61.603 108.911 61.603Z" fill="black"/>
<path d="M108.42 90.6081C110.795 90.6081 112.721 86.2061 112.721 80.7751C112.721 75.3451 110.795 70.9431 108.42 70.9431C106.044 70.9431 104.118 75.3451 104.118 80.7751C104.118 86.2051 106.044 90.6081 108.42 90.6081Z" fill="white"/>
<path d="M108.42 91.2221C105.593 91.2221 103.503 86.6751 103.503 80.7751C103.503 74.8761 105.716 70.3291 108.42 70.3291C111.123 70.3291 113.336 74.8761 113.336 80.7761C113.459 86.6751 111.246 91.2221 108.42 91.2221ZM108.42 71.5581C106.699 71.5581 104.733 75.3681 104.733 80.7751C104.733 86.1831 106.699 89.9931 108.42 89.9931C110.14 89.9931 112.107 86.1831 112.107 80.7751C112.107 75.3681 110.263 71.5581 108.42 71.5581Z" fill="black"/>
</g>
<defs>
<clipPath id="clip0_1_340">
<rect width="160" height="160" fill="white"/>
</clipPath>
</defs>
</svg>
