<svg width="80" height="106" viewBox="0 0 80 106" fill="none" xmlns="http://www.w3.org/2000/svg">
<g clip-path="url(#clip0_1_532)">
<path fill-rule="evenodd" clip-rule="evenodd" d="M58.2045 55.8785C58.4696 54.311 58.5023 52.7299 58.4684 51.1449C58.4558 50.5622 58.2829 50.0237 58.0084 49.5138C57.4862 48.5437 56.5626 48.4817 55.8918 49.3696C55.3387 50.1018 55.2949 50.9571 55.3199 51.8182C55.3611 53.2502 55.2236 54.6673 54.9955 56.0757C54.889 56.7321 54.7129 57.383 54.3375 57.9453C53.9288 58.5581 53.4236 58.5815 52.9166 58.0602C52.3082 57.4347 51.993 56.6552 51.7523 55.8291C51.1092 53.6205 51.3215 51.3768 51.4285 49.1364C51.468 48.3057 51.2698 47.5767 50.3599 47.3818C49.4083 47.1781 49.0197 47.8813 48.7022 48.6105C47.7378 50.8253 47.8419 53.1294 48.2335 55.425C48.5444 57.2487 49.1289 58.9764 50.5716 60.2977C52.6345 62.1868 55.4519 61.8051 56.9069 59.4235C57.5783 58.3243 58.002 57.1448 58.2045 55.8785ZM46.4312 72.6982C46.7416 71.0336 46.5358 69.4704 46.0459 67.9491C45.35 65.7878 42.8961 64.4396 40.7449 64.9812C38.6246 65.5149 36.834 67.9502 36.888 70.2849C36.9311 72.1499 37.5107 73.8624 38.3882 75.5095C39.2759 77.1755 40.5993 78.519 41.6282 80.0764C42.6825 81.6721 43.2412 83.3733 42.7256 85.2847C42.4558 86.285 41.6124 86.5287 40.8392 85.8427C40.307 85.3707 39.9931 84.7522 39.7703 84.0813C39.4192 83.024 39.3378 81.9197 39.1482 80.8331C39.0257 80.1317 38.7608 79.4087 37.8905 79.4009C37.0642 79.3938 36.7935 80.0747 36.6645 80.7515C36.3178 82.5678 36.4819 84.3565 37.2237 86.0496C38.2757 88.4507 40.6883 89.7174 42.8156 89.0975C45.3647 88.3548 46.4469 85.593 45.9946 82.8687C45.5591 80.2453 44.1668 78.1515 42.4776 76.1799C41.2969 74.8015 40.323 73.2797 39.8771 71.4858C39.6407 70.5355 39.6037 69.5912 40.1795 68.7403C40.5143 68.2452 40.8897 67.7446 41.6111 67.8264C42.3217 67.9071 42.747 68.3467 43.0028 68.9734C43.297 69.6941 43.3274 70.4422 43.2758 71.2126C43.2174 72.0881 43.0374 72.9655 43.322 73.8454C43.6923 74.9916 44.8757 75.3039 45.683 74.4308C46.1484 73.9277 46.403 73.3184 46.4312 72.6982ZM22.223 79.1532C22.102 79.8395 21.9199 80.5218 21.8749 81.2132C21.814 82.1523 21.6177 83.1104 21.9487 84.0371C22.1475 84.5931 22.4554 85.0576 23.1483 85.099C23.8105 85.1387 24.1054 84.7324 24.3631 84.2219C24.5811 83.7906 24.7016 83.3361 24.7906 82.8687C25.0104 81.7169 25.2366 80.5663 25.4386 79.4117C25.5126 78.9888 25.6639 78.713 26.1492 78.6912C27.3531 78.6372 28.5714 78.6537 29.7537 78.4601C30.6719 78.3095 30.775 78.7124 30.7887 79.4097C30.8309 81.5603 30.8372 83.7136 30.9607 85.86C31.0634 87.6448 30.8455 89.471 31.5351 91.1982C31.8013 91.865 32.0904 92.5705 32.9387 92.533C33.8214 92.4939 34.0684 91.746 34.2856 91.0312C34.6912 89.697 34.5417 88.3315 34.4987 86.9768C34.3487 82.2389 34.197 77.5008 33.9993 72.7648C33.919 70.8423 33.8233 68.8935 32.9021 67.1364C31.6332 64.7159 28.8279 64.3763 26.9622 66.3697C26.3044 67.0725 25.8135 67.8823 25.4131 68.7437C23.8696 72.0654 22.9322 75.5771 22.223 79.1532ZM37.4607 44.9624C37.4085 43.6421 37.4148 42.5312 37.1627 41.4458C37.0324 40.8835 36.7159 40.4557 36.0894 40.3963C35.4645 40.3369 35.0696 40.6531 34.8704 41.2323C34.7676 41.5313 34.6199 41.8215 34.5632 42.1288C34.1954 44.1244 33.9093 46.1357 33.8912 48.1653C33.8693 50.6321 33.8979 53.1015 33.9897 55.5665C34.0425 56.9806 34.1519 58.4046 34.6195 59.7676C34.789 60.2611 35.07 60.6063 35.6306 60.6186C36.191 60.6308 36.5256 60.2716 36.6874 59.8142C36.9082 59.1904 37.0698 58.5393 37.1878 57.8874C37.2943 57.2993 37.4151 57.0657 37.9971 57.5434C39.4414 58.7284 40.9007 59.8971 42.391 61.0241C44.1088 62.3234 45.8385 63.616 47.8358 64.4798C48.4298 64.7366 49.0346 64.7762 49.4949 64.2286C49.9878 63.6419 49.8276 63.028 49.395 62.4953C49.0215 62.035 48.5866 61.6213 48.1579 61.209C45.8421 58.9817 43.0823 57.3183 40.5918 55.3121C40.347 55.1149 39.9503 54.912 39.9929 54.648C40.0508 54.2876 40.5074 54.28 40.8424 54.2009C44.5445 53.3268 47.1692 50.1062 47.2832 46.3541C47.3204 45.1222 46.8789 44.113 45.9617 43.3323C44.2679 41.8907 42.3978 42.1093 40.4918 42.8328C39.3533 43.2648 38.485 44.098 37.4607 44.9624ZM18.4845 46.1312C18.0503 48.5848 17.609 50.7004 18.093 52.867C18.2229 53.4488 18.5 54.0653 19.093 54.0609C19.8047 54.0558 20.5084 53.766 20.6602 52.8492C21.2545 49.2553 22.0519 45.7048 23.1156 42.2204C23.5485 40.8021 24.0519 39.3906 24.9899 38.204C25.5406 37.5073 26.237 36.9719 27.199 37.2501C28.1222 37.5173 28.4926 38.2678 28.7187 39.1515C29.1172 40.7098 28.4628 42.0083 27.7747 43.2993C27.0547 44.6504 25.7563 45.3464 24.5049 46.1041C23.3086 46.8284 23.3095 47.616 24.4602 48.4363C24.8727 48.7304 25.3098 48.9907 25.7248 49.2816C28.0837 50.9348 28.8678 53.1053 28.0935 55.8209C27.4909 57.9345 25.5564 58.672 23.6904 57.4896C22.81 56.9319 22.0418 56.2021 21.0296 55.8462C20.4072 55.6273 19.856 55.642 19.3539 56.1034C18.8616 56.5561 18.9823 57.0944 19.1923 57.5989C20.617 61.022 25.1082 63.1518 28.8055 60.92C32.3246 58.7957 33.7802 52.3814 30.2458 48.7496C29.7819 48.273 29.0052 47.8557 28.9187 47.3239C28.8243 46.7457 29.7389 46.3913 30.132 45.8683C30.2834 45.6672 30.4359 45.4657 30.5708 45.2534C32.4082 42.3595 33.0278 39.3959 31.1436 36.2493C29.9671 34.2844 27.8715 33.2305 25.7443 33.7309C23.82 34.1837 22.6163 35.5932 21.6473 37.1871C19.9102 40.0438 18.9591 43.1852 18.4845 46.1312ZM63.3374 28.7427C65.5275 31.7686 65.1218 35.3059 65.2451 38.7059C65.4207 43.5495 65.1099 48.3935 65.0493 53.2379C65.0145 56.0236 65.0163 58.8101 65.0263 61.5962C65.0283 62.1845 64.847 62.5757 64.342 62.9282C60.4749 65.6277 56.7018 68.4549 52.9856 71.3566C52.7319 71.5546 52.509 71.7616 52.1214 71.7833C52.1368 70.9024 52.1614 70.0281 52.1624 69.1537C52.1628 68.8091 52.1526 68.4544 52.0738 68.1215C51.8951 67.365 51.5172 66.715 50.642 66.7087C49.7751 66.7023 49.3675 67.3506 49.1762 68.0852C48.8798 69.2247 48.8783 70.4078 48.773 71.5753C48.4058 75.6463 48.1925 79.727 47.9906 83.8086C47.9736 84.154 48.0263 84.5026 48.0364 84.8501C48.0609 85.6749 48.4125 86.2789 49.2657 86.4179C49.9952 86.5369 50.6765 85.9098 50.883 84.9799C51.1724 83.6777 51.3174 82.3545 51.4094 81.0235C51.4922 79.8252 51.6147 78.6294 51.7368 77.2375C52.7253 78.244 53.6844 79.0245 54.7927 79.6176C56.2108 80.3764 57.6952 80.8869 59.3023 81.0155C60.0563 81.0758 60.8435 81.0913 61.1236 80.2008C61.3729 79.4088 60.8547 78.9148 60.254 78.4914C58.7214 77.4111 56.8841 76.8829 55.3727 75.7492C53.3895 74.2617 53.7524 74.6322 55.3578 73.4301C58.2926 71.2319 61.2718 69.0926 64.2349 66.9318C64.4096 66.8046 64.6054 66.7059 64.86 66.5526C65.1423 67.8932 64.9785 69.1835 64.9486 70.4483C64.8519 74.5639 64.8276 78.6818 64.696 82.7947C64.5969 85.8933 64.2622 88.9907 63.6447 92.0456C63.4226 93.1442 63.0784 94.21 62.5685 95.1806C61.6852 96.8621 60.0403 97.5703 58.2731 97.7727C54.007 98.261 49.7122 98.2959 45.4205 98.2675C41.5762 98.2418 37.7333 98.1837 33.8887 98.3204C27.9076 98.5332 21.9431 98.4243 16.0188 97.3762C12.4435 96.7438 10.8672 94.3658 10.6006 91.1278C10.219 86.4893 10.2325 81.8394 10.3068 77.19C10.3502 74.4689 10.4026 71.7477 10.4044 69.0264C10.4047 68.4371 10.4721 68.1607 11.1601 68.1891C12.5559 68.2466 13.955 68.2297 15.3525 68.216C15.8671 68.2109 16.0025 68.4435 15.9961 68.9115C15.9409 72.9625 15.8811 77.0137 15.8654 81.0652C15.8615 82.1046 15.8085 83.1553 16.0379 84.188C16.1807 84.8304 16.5139 85.3257 17.1866 85.4192C17.9228 85.5213 18.3627 85.053 18.6634 84.4423C18.8787 84.0049 18.9124 83.5231 18.9443 83.0517C19.1602 79.8608 19.3091 76.6673 19.2852 73.4668C19.2731 71.8561 19.3027 70.2451 19.2986 68.6344C19.2977 68.2311 19.5313 68.1699 19.8499 68.1635C20.4857 68.1509 21.1275 68.1797 21.7555 68.1018C22.6672 67.9891 23.4625 67.1866 23.48 66.4567C23.4978 65.7208 22.8371 65.0184 21.8785 64.8215C21.4777 64.7393 21.0556 64.7288 20.6441 64.7359C17.5624 64.7892 14.4793 64.8152 11.4006 64.9434C10.5687 64.978 10.4242 64.649 10.4273 63.9877C10.4412 60.7632 10.4705 57.5385 10.4532 54.3139C10.4297 49.9222 10.5927 45.5318 10.3243 41.1377C10.1758 38.7064 10.3142 36.2547 10.7055 33.8405C11.3003 30.1711 14.5261 27.3 18.6076 26.7054C22.0473 26.2043 25.5152 26.34 28.972 26.2302C31.7637 26.1416 34.5562 26.0772 37.3483 26.0018C40.0797 25.9281 42.8094 25.8357 45.5418 26.0484C48.3326 26.2653 51.1284 26.2385 53.9273 26.1993C55.9832 26.1703 58.0698 26.1591 60.0227 27.0167C58.3426 28.8228 56.6601 30.6273 54.9817 32.4358C53.6911 33.8266 52.2875 35.1135 51.1023 36.6013C50.5959 37.2372 50.6099 37.9459 51.1076 38.5176C51.5811 39.0613 52.265 39.1495 52.9414 38.7897C53.1901 38.6573 53.4529 38.5354 53.6681 38.3588C57.2003 35.4621 60.2606 32.094 63.3374 28.7427Z" fill="#00BA63"/>
<mask id="mask0_1_532" style="mask-type:alpha" maskUnits="userSpaceOnUse" x="61" y="8" width="19" height="19">
<path fill-rule="evenodd" clip-rule="evenodd" d="M64.002 8.3457L79.3955 11.06L76.6816 26.4513L61.288 23.737L64.002 8.3457Z" fill="white"/>
</mask>
<g mask="url(#mask0_1_532)">
<path fill-rule="evenodd" clip-rule="evenodd" d="M73.0168 14.7512C72.9492 15.3574 73.3311 15.7667 73.949 15.8908C74.6551 16.0327 75.049 15.512 75.1547 14.9446C75.263 14.3621 74.8859 13.8593 74.2759 13.7925C73.6853 13.7278 73.1296 13.9224 73.0168 14.7512ZM65.181 16.8057C65.135 17.1825 65.0525 17.5591 65.0502 17.9362C65.0439 18.9214 65.5801 19.729 66.3066 19.8325C67.287 19.9721 67.7258 19.2683 67.9297 18.5446C68.3481 17.06 68.9231 15.7952 70.475 15.1302C71.0237 14.8951 71.3319 14.2529 71.0777 13.5859C70.8421 12.9677 70.2494 12.8377 69.6747 12.7822C69.3672 12.7525 69.0322 12.7993 68.7365 12.894C66.8016 13.5144 65.5227 14.7381 65.181 16.8057ZM64.326 22.1942C62.8518 20.3446 62.1132 18.293 62.6786 15.9267C63.6001 12.07 66.6207 9.28622 71.0028 9.63321C73.9959 9.87016 76.244 11.1602 77.5097 13.8664C79.7518 18.6597 76.3894 24.627 71.1326 25.1806C69.6793 25.3338 68.3604 25.0408 67.046 24.5248C66.1391 23.7483 65.2326 22.9713 64.326 22.1942Z" fill="#FB5E93"/>
</g>
<path fill-rule="evenodd" clip-rule="evenodd" d="M64.3256 22.1938C65.2323 22.9708 66.1387 23.7478 67.0456 24.5243C65.8105 25.9295 64.5749 27.3352 63.3388 28.7417C60.2616 32.0943 57.2013 35.4622 53.669 38.3589C53.4539 38.5354 53.1911 38.6574 52.9423 38.7897C52.266 39.1497 51.5821 39.0616 51.1086 38.5178C50.6108 37.9462 50.5968 37.2373 51.1032 36.6015C52.2885 35.1136 53.692 33.8268 54.9827 32.4359C56.661 30.6275 58.3436 28.8228 60.0237 27.0169C61.5576 25.4982 62.9296 23.8353 64.3256 22.1938Z" fill="white"/>
<path fill-rule="evenodd" clip-rule="evenodd" d="M65.181 16.8053C65.5227 14.7377 66.8016 13.514 68.7365 12.8936C69.0322 12.7989 69.3674 12.7521 69.6747 12.7818C70.2494 12.8373 70.8421 12.9673 71.0777 13.5855C71.3319 14.2525 71.0237 14.8947 70.475 15.1298C68.9231 15.7948 68.3481 17.0596 67.9297 18.5442C67.7258 19.2679 67.287 19.9717 66.3066 19.8321C65.5801 19.7286 65.044 18.921 65.0502 17.9358C65.0525 17.5587 65.135 17.1821 65.181 16.8053Z" fill="white"/>
<path fill-rule="evenodd" clip-rule="evenodd" d="M73.0169 14.7514C73.1296 13.9226 73.6854 13.728 74.276 13.7927C74.886 13.8595 75.2631 14.3623 75.1547 14.9448C75.0491 15.5122 74.6552 16.0329 73.9491 15.891C73.3311 15.7669 72.9492 15.3576 73.0169 14.7514Z" fill="white"/>
<path fill-rule="evenodd" clip-rule="evenodd" d="M37.7807 50.3855C38.2976 48.4 39.3099 46.6599 41.4001 45.7122C41.7586 45.5497 42.1243 45.4625 42.4923 45.419C43.5265 45.2968 44.0873 45.877 43.8646 46.8934C43.5229 48.4538 42.6261 49.6281 41.2053 50.4016C40.3893 50.8459 39.4987 51.0819 38.62 51.3399C37.6788 51.6162 37.5639 51.4788 37.7807 50.3855Z" fill="#00BA63"/>
<path fill-rule="evenodd" clip-rule="evenodd" d="M26.6906 74.4053C27.302 72.6057 27.8522 70.7897 28.8238 69.1453C29.0087 68.8322 29.2184 68.3905 29.6332 68.4515C30.0292 68.5099 30.0104 68.9941 30.0958 69.3178C30.5349 70.9812 30.4573 72.6974 30.5962 74.3914C30.6222 74.7086 30.4985 74.9366 30.1127 74.9449C29.0963 74.9667 28.0974 75.144 27.0921 75.2768C26.1438 75.402 26.7923 74.7224 26.6906 74.4053Z" fill="#00BA63"/>
</g>
<defs>
<clipPath id="clip0_1_532">
<rect width="80" height="106" fill="white"/>
</clipPath>
</defs>
</svg>
