<svg width="20" height="20" viewBox="0 0 20 20" fill="none" xmlns="http://www.w3.org/2000/svg">
<path d="M16.356 7.242C17.0067 6.78 17.554 6.20333 18 5.53933C17.4047 5.79999 16.7713 5.97267 16.11 6.05667C16.79 5.65067 17.3093 5.01267 17.5533 4.244C16.9193 4.622 16.2193 4.88867 15.4733 5.038C14.8713 4.39667 14.0133 4 13.0773 4C11.2613 4 9.79933 5.474 9.79933 7.28067C9.79933 7.54067 9.82133 7.79067 9.87533 8.02867C7.14867 7.89533 4.73533 6.58867 3.114 4.59733C2.83133 5.08867 2.66467 5.65067 2.66467 6.25533C2.66467 7.39133 3.24933 8.398 4.122 8.98133C3.59467 8.97133 3.078 8.818 2.64 8.57733V8.61333C2.64 10.2073 3.77667 11.5313 5.268 11.8367C5.00067 11.91 4.71 11.9447 4.408 11.9447C4.198 11.9447 3.986 11.9327 3.78733 11.8887C4.212 13.1873 5.41867 14.1427 6.852 14.174C5.736 15.0467 4.31867 15.5727 2.78467 15.5727C2.516 15.5727 2.258 15.5607 2 15.528C3.45333 16.4647 5.17467 17 7.032 17C12.8207 17 16.5933 12.1707 16.356 7.242Z" fill="white"/>
</svg>
