<svg width="350" height="609" viewBox="0 0 350 609" fill="none" xmlns="http://www.w3.org/2000/svg">
<g clip-path="url(#clip0_1_32)">
<path d="M250.74 285.651C249.442 284.872 248.231 284.093 246.933 283.401C244.943 282.276 242.866 281.238 240.876 280.113C237.588 277.864 234.301 277.172 230.84 279.681C225.043 280.546 219.246 281.671 213.622 283.488C207.998 285.218 203.153 288.16 199.173 292.486C193.116 299.062 187.406 305.897 182.215 313.165C181.782 313.857 181.263 314.549 180.744 315.155C179.359 316.885 179.359 316.885 177.456 315.847C175.206 314.549 172.957 313.251 170.621 312.04C165.862 309.531 160.844 307.714 155.479 306.848C144.232 305.032 134.282 307.714 126.062 315.933C124.072 317.923 122.342 320 120.871 322.336C120.006 323.72 119.054 324.412 117.41 324.845C105.643 328.046 99.9325 340.938 101.836 349.331C102.182 350.715 102.009 352.013 101.49 353.311C100.452 355.647 100.452 358.069 100.365 360.578C100.365 363.261 101.144 365.683 101.403 368.279C101.23 369.144 101.317 370.096 101.49 370.961C101.749 370.788 101.922 370.528 102.182 370.355C103.22 371.307 103.134 372.518 103.047 373.643C102.788 376.931 102.182 380.219 101.144 383.42C100.971 383.334 100.884 383.334 100.711 383.247C100.711 383.334 100.711 383.334 100.711 383.42C103.566 386.448 107.806 386.535 111.959 383.766C115.939 381.084 118.102 375.806 116.458 372.518C116.112 371.913 115.593 371.48 114.901 371.307C114.814 371.307 114.728 371.307 114.641 371.307C114.641 371.394 114.641 371.394 114.728 371.48C114.295 371.826 113.949 372.172 113.43 372.518C110.834 374.508 109.017 374.595 106.508 371.221C105.124 369.317 104.518 367.068 104.086 364.731C103.393 361.011 103.307 357.377 104.778 353.83C106.681 349.244 110.575 348.033 114.728 350.715C116.199 351.667 117.41 353.051 118.621 354.349C119.227 355.041 119.919 355.82 120.611 356.425C121.909 357.723 122.082 357.723 123.812 356.945C129.956 354.176 134.801 349.763 138.954 344.658C143.972 338.515 147.26 331.507 149.596 323.98C149.769 323.461 149.855 322.942 150.029 322.422C150.202 321.99 150.634 321.903 150.98 322.163C151.326 322.422 151.586 322.768 151.759 323.115C154.874 327.787 158.508 332.113 162.92 335.66C163.785 336.352 164.045 337.045 163.526 338.169C162.315 340.592 162.142 343.188 162.401 345.783C162.834 349.59 163.353 353.397 163.872 357.204C163.959 357.723 164.132 358.242 164.305 358.761C164.91 361.617 166.814 363.78 170.102 363.347C170.621 363.261 171.14 363.434 171.745 363.52C171.832 363.52 172.005 363.607 172.092 363.693C172.524 365.164 171.745 366.375 170.88 367.414C170.275 368.192 169.582 368.798 168.977 369.577C168.544 370.182 168.458 370.874 169.15 371.394C169.755 371.913 170.534 371.826 171.053 371.394C173.043 369.836 174.601 367.933 175.293 365.424C176.158 362.136 174.601 360.059 171.226 359.973C170.707 359.973 170.102 360.059 169.582 360.059C168.458 360.146 167.765 359.454 167.592 358.415C167.246 356.945 166.987 355.474 166.727 354.003C166.295 350.455 165.516 346.995 165.602 343.361C165.602 342.409 165.689 341.457 165.862 340.505C165.949 339.9 166.295 339.294 166.554 338.688C167.938 338.688 168.717 339.467 169.669 339.986C174.514 342.582 179.619 344.572 185.329 344.399C186.8 344.312 187.06 344.658 187.06 346.043C187.146 350.888 186.887 358.502 184.81 366.375C183.426 371.653 181.868 376.931 179.359 381.863C177.715 385.064 175.725 388.006 173.13 390.515C170.102 393.543 166.468 395.187 162.142 395.533C156.777 395.966 151.759 394.841 147.087 392.418C142.674 390.169 138.694 387.314 134.887 384.112C134.022 383.42 133.33 382.555 132.205 382.295C131.772 382.209 131.34 382.209 131.167 382.641C130.994 382.988 130.821 383.42 130.907 383.766C131.08 384.285 131.34 384.804 131.686 385.151C138.262 391.294 145.616 396.312 154.614 398.215C156.172 398.561 157.902 398.561 159.546 398.734C160.152 398.821 160.584 399.081 160.584 399.686C160.671 400.378 160.671 401.071 160.065 401.59C159.805 401.849 159.286 401.936 158.94 402.109C151.413 404.964 143.712 405.31 135.925 403.407C133.676 402.887 131.513 401.936 129.523 400.638C129.09 400.292 128.658 399.946 128.139 399.686C127.619 399.427 127.1 399.513 126.668 399.946C126.235 400.378 126.149 400.897 126.408 401.417C127.187 402.974 128.658 403.753 130.042 404.618C130.561 404.877 130.821 405.397 130.561 406.002C127.879 414.049 125.197 422.095 122.515 430.142C122.169 431.094 121.649 431.267 120.611 430.747C116.891 428.931 113.343 426.854 110.488 423.739C109.277 422.441 109.277 422.441 110.315 420.971C114.987 414.741 118.189 407.819 119.573 400.119C121.303 390.774 122.601 381.43 121.996 371.913C121.909 370.269 121.996 368.625 121.909 366.981C121.909 366.289 121.649 365.597 120.871 365.424C120.179 365.251 119.573 365.424 119.14 366.116C118.621 366.894 117.496 368.279 116.891 369.058C116.804 368.971 117.064 370.788 117.237 372.086C118.189 380.911 112.219 387.141 103.307 386.535C102.269 386.448 101.144 386.102 100.106 386.621C99.1538 388.611 98.3751 390.688 97.2503 392.505C90.4151 403.58 80.9843 410.155 67.4004 409.204C65.0643 409.031 62.7282 408.944 60.3921 408.771C54.8547 408.425 49.6634 409.723 45.2508 412.924C35.0413 420.278 29.6769 430.055 30.8882 442.861C31.6669 451.253 34.9548 458.694 39.8865 465.529C41.1843 467.26 42.5687 468.99 43.953 470.72C44.6452 471.586 44.7317 472.364 44.2126 473.316C43.0878 475.652 41.963 477.988 40.9247 480.411C37.2908 488.803 34.5221 497.629 31.9265 506.454C27.9465 519.692 24.9182 533.189 22.1495 546.773C20.3326 555.339 18.6887 563.991 17.5639 572.643C16.9583 577.575 16.4391 582.506 17.1313 587.438C18.3426 595.831 22.8417 601.541 30.9748 604.137C32.6187 604.656 34.4356 605.002 36.1661 605.262C42.6552 606.127 48.9713 605.002 55.2008 603.012C62.2956 600.762 68.9578 597.561 75.4469 594.1C88.1656 587.265 99.846 578.872 111.094 569.874C127.446 556.723 141.29 541.236 155.566 526.008C155.999 525.489 156.431 524.97 156.777 524.364C157.123 523.672 156.864 522.98 156.258 522.547C155.825 522.201 155.22 522.114 154.787 522.46C154.095 523.066 153.403 523.758 152.711 524.45C146.654 530.853 140.684 537.256 134.628 543.572C134.022 544.177 133.589 545.216 132.465 545.129C132.205 544.956 131.945 544.87 131.772 544.696C131.34 544.35 130.994 543.918 130.648 543.485C123.207 535.093 119.054 524.969 116.026 514.327C115.679 513.03 116.199 512.251 117.15 511.472C123.812 506.021 129.955 499.878 136.964 494.773C137.656 494.254 138.348 493.735 137.915 492.783C137.569 491.918 136.531 491.659 135.493 492.351C134.628 492.783 133.849 493.389 133.07 493.908C130.734 495.812 128.398 497.715 126.062 499.619C118.362 506.021 110.834 512.597 103.047 518.913C86.089 532.67 68.4386 545.389 48.7117 554.993C48.106 555.252 47.5004 555.598 46.8947 555.944C46.6352 556.117 46.3756 556.29 46.2891 556.463C46.116 556.809 46.0295 557.242 46.0295 557.588C46.0295 558.28 46.7217 558.453 47.2408 558.453C48.6252 558.453 49.8365 557.675 51.0478 557.156C57.9695 553.781 64.7182 550.234 71.2073 546.081C77.783 541.841 84.2721 537.429 90.5882 532.843C91.1938 532.41 91.7129 531.545 92.8377 532.151C94.2221 538.38 96.2986 544.437 99.0673 550.234C101.922 556.031 105.902 561.136 110.315 565.635C109.796 566.932 108.758 567.452 107.979 568.144C102.701 572.383 97.4234 576.45 91.7995 580.17C82.6282 586.4 73.0243 592.024 62.9012 596.523C57.883 598.772 52.6917 600.589 47.3273 601.541C41.6169 602.493 35.82 602.493 30.3691 600.243C25.7835 598.34 22.7552 595.052 21.2843 590.293C20.5922 588.044 20.4191 585.708 20.3326 583.372C20.2461 578.007 21.0248 572.729 21.8035 567.452C23.0148 559.492 24.6587 551.532 26.3026 543.658C29.4174 528.344 33.1378 513.203 37.8965 498.321C40.6652 489.669 43.8665 481.276 48.0195 473.143C53.4704 462.414 61.4304 454.195 71.7264 448.052C77.3503 444.677 83.0608 441.39 88.7712 438.102C95.1738 434.381 101.49 430.488 106.768 425.21C106.854 425.124 107.027 425.124 107.287 425.037C107.546 425.21 107.892 425.383 108.152 425.729C112.305 430.488 117.756 433.43 123.639 435.506C133.33 438.967 143.28 438.967 153.23 436.717C159.286 435.333 165.083 433.43 170.102 429.45C170.967 428.757 171.572 428.93 172.265 429.536C176.677 433.257 181.782 435.333 187.406 436.544C188.185 436.717 188.963 436.89 189.828 437.15C194.068 438.188 198.394 439.054 202.547 440.524C208.777 442.687 213.449 446.667 216.65 452.464C218.121 455.147 219.246 457.915 219.851 460.857C220.717 465.01 221.409 469.163 222.274 473.403C222.447 474.181 222.534 475.047 222.88 475.825C223.139 476.517 223.745 476.95 224.437 476.863C225.216 476.777 225.648 476.171 225.648 475.479C225.648 474.527 225.562 473.576 225.475 472.624C225.043 470.028 224.524 467.519 224.178 464.924C224.005 464.058 223.572 463.107 224.351 462.068C225.129 462.155 225.908 462.155 226.687 462.241C237.675 463.107 247.019 455.839 250.48 447.792C251.864 444.591 252.47 441.217 252.211 437.756C251.518 427.027 243.731 417.769 233.176 415.087C229.455 414.135 225.648 413.616 221.841 413.27C216.564 412.751 211.199 412.232 206.008 410.848C200.384 409.377 195.625 406.694 191.818 402.195C188.963 398.821 186.627 395.101 185.243 390.948C184.551 388.871 183.858 386.794 183.253 384.718C181.868 382.814 188.012 369.663 189.05 362.309C189.828 356.858 190.434 351.407 190.607 345.956C190.694 344.399 191.04 343.361 192.511 342.755C194.328 341.976 195.625 340.592 196.75 338.948C201.249 332.286 198.827 323.72 191.472 320.259C189.05 319.135 186.541 318.702 183.945 318.529C183.08 318.442 182.82 317.837 183.339 317.145C184.983 315.068 186.541 313.078 188.185 311.002C192.77 305.205 197.356 299.408 202.288 293.87C205.402 290.409 209.209 288.073 213.535 286.689C218.64 285.045 223.918 284.093 229.109 283.055C235.598 281.757 241.309 282.969 246.673 286.516C247.452 287.035 248.317 287.554 249.096 287.987C250.307 288.765 251.172 289.804 251.605 291.102V291.188C251.605 292.053 251.605 292.832 251.605 293.697C251.432 293.784 251.259 293.87 251.172 293.957H251.259C250.221 297.245 250.653 297.764 253.681 297.245C253.854 296.898 253.941 296.552 254.114 296.12C254.287 295.514 254.547 294.822 254.633 294.216C255.152 290.582 253.941 287.641 250.74 285.651ZM134.109 343.793C134.022 344.053 133.936 344.312 133.762 344.572C131.946 347.341 129.609 349.59 126.581 351.148C126.235 351.321 125.802 351.407 125.37 351.494C125.024 351.234 124.591 351.061 124.418 350.801C124.245 350.455 124.245 350.023 124.332 349.677C124.332 349.417 124.591 349.158 124.764 348.985C127.36 347.427 129.177 345.005 131.167 342.668C131.34 342.495 131.513 342.236 131.772 342.063C132.378 341.63 133.07 341.544 133.676 341.976C134.282 342.409 134.368 343.101 134.109 343.793ZM129.696 546.859C130.388 547.552 130.388 548.244 129.609 548.936C124.764 553.781 119.832 558.54 114.555 562.866C113.43 563.818 112.911 563.645 111.786 562.52C111.007 561.741 110.921 561.222 111.699 560.443C113.43 558.713 115.247 556.983 117.064 555.339C120.698 552.051 124.332 548.676 128.052 545.389C128.658 545.994 129.263 546.34 129.696 546.859ZM98.8077 526.786C102.874 523.499 106.854 520.211 110.834 517.01C111.526 516.404 112.132 515.539 113.343 515.625C113.862 517.529 114.468 519.519 115.074 521.422C113.949 523.239 111.872 523.931 110.229 525.056C106.681 527.565 102.961 529.901 99.3268 532.237C98.5481 532.756 97.7695 533.362 96.8177 533.362C95.4334 528.603 94.9142 529.901 98.8077 526.786ZM97.9425 538.121C97.6829 537.256 97.9425 536.65 98.8077 536.131C104.086 532.756 109.363 529.296 114.555 525.921C116.026 524.97 116.285 525.056 116.977 526.527C117.496 527.652 117.929 528.776 118.535 530.161C112.132 534.746 106.335 539.419 100.106 543.658C98.9808 541.841 98.5481 539.938 97.9425 538.121ZM101.403 547.206C102.269 545.302 104.172 544.696 105.643 543.572C109.277 540.716 112.997 537.948 116.804 535.266C117.756 534.573 118.621 533.622 119.919 533.449C123.034 538.294 122.947 537.169 119.054 540.457C115.42 543.572 111.699 546.513 108.066 549.628C106.941 550.58 105.729 551.532 104.345 552.656C102.874 550.753 102.096 549.023 101.403 547.206ZM110.402 557.675C108.844 559.146 108.585 559.059 107.287 557.415C107.114 557.156 106.941 556.983 106.854 556.723C105.989 555.512 106.076 555.252 107.114 554.387C111.44 550.839 115.766 547.206 120.092 543.658C121.39 542.62 122.601 541.582 123.986 540.37C125.11 541.063 125.629 541.841 125.976 542.706C125.976 543.658 125.197 544.091 124.591 544.61C119.832 548.936 115.074 553.262 110.402 557.675ZM46.9813 420.451C46.3756 421.403 45.77 422.268 45.0778 423.047C41.5304 427.373 39.2808 432.305 38.9347 438.015C38.5887 443.466 39.4539 448.657 41.5304 453.676C42.136 455.06 42.7417 456.444 43.3473 457.829C43.6069 458.434 43.78 459.127 43.8665 459.819C43.953 460.338 43.6069 460.857 43.0878 461.117C42.5687 461.376 41.8765 461.29 41.5304 460.943C40.8382 460.165 40.146 459.213 39.6269 458.261C36.6852 452.551 35.1278 446.494 35.2143 440.092C35.2143 432.564 37.81 426.162 43.0878 420.797C43.8665 420.019 44.5586 419.154 45.77 418.98C46.116 418.894 46.6352 419.154 46.8082 419.413C46.8947 419.586 47.0678 420.192 46.9813 420.451ZM54.1626 416.385C53.1243 417.337 51.913 417.942 50.6152 418.115C49.923 418.202 49.3173 417.769 48.9713 417.164C48.7117 416.644 48.7982 416.125 49.1443 415.693C50.0095 414.481 51.2208 413.962 52.5186 413.703C53.3839 413.53 54.4221 414.395 54.5086 415.52C54.5086 415.606 54.4221 416.125 54.1626 416.385ZM137.656 409.117C137.396 411.453 136.964 413.703 136.704 416.039C136.099 422.095 135.493 428.238 134.801 434.727C131.686 434.554 128.917 433.862 126.149 432.997C125.716 432.824 125.283 432.391 125.543 431.699C128.139 423.826 130.734 415.866 133.33 407.992C133.849 406.435 134.022 406.435 135.752 406.781C137.829 407.127 137.829 407.127 137.656 409.117ZM147.173 434.468C146.481 434.641 145.789 434.814 145.183 434.814C136.704 434.987 138.175 436.285 138.694 428.238C139.127 421.922 139.732 415.693 140.771 409.463C141.03 407.733 141.117 407.646 142.847 407.646C143.28 407.646 143.712 407.646 144.059 407.646C144.837 407.733 145.27 408.165 145.356 408.944C145.443 410.069 145.443 411.107 145.443 412.232C145.443 419.24 145.702 426.248 147.346 433.084C147.346 433.516 147.173 433.949 147.173 434.468ZM151.24 434.035C149.769 430.921 149.596 427.892 149.336 424.951C148.817 419.759 148.731 414.568 148.558 409.377C148.471 407.906 148.644 407.733 150.115 407.56C151.067 407.473 151.932 406.954 153.143 407.56C153.835 415.779 154.787 423.999 157.902 431.959C155.739 433.343 153.316 433.17 151.24 434.035ZM164.218 429.623C160.93 431.353 160.844 431.353 159.805 427.806C157.902 421.49 156.864 415.001 156.345 408.425C156.172 406.694 156.345 406.089 158.075 405.743C158.854 405.57 159.546 405.051 160.671 405.397C161.449 408.944 161.795 412.751 163.18 416.385C164.478 419.846 166.381 423.047 168.631 426.162C167.592 427.979 165.862 428.757 164.218 429.623ZM241.049 447.273C241.309 447.014 241.655 446.667 242.001 446.581C242.347 446.494 242.866 446.494 243.126 446.667C243.385 446.84 243.645 447.36 243.645 447.706C243.645 448.225 243.472 448.744 243.299 449.263C242.607 450.82 241.568 452.032 240.357 453.157C237.069 456.098 233.176 457.656 229.196 458.175C228.59 458.088 228.331 458.088 228.071 458.088C227.379 457.915 226.86 457.483 226.687 456.79C226.6 456.185 226.946 455.666 227.379 455.406C227.811 455.147 228.331 454.974 228.85 454.8C233.522 453.157 237.675 450.907 241.049 447.273ZM225.648 418.288C227.292 417.164 230.667 417.683 231.878 419.327C232.397 420.019 231.878 421.403 231.013 421.576C230.494 421.663 229.975 421.663 229.455 421.749C228.071 421.749 226.773 421.49 225.648 420.711C224.783 420.105 224.87 418.807 225.648 418.288ZM184.464 400.378C185.243 400.292 185.675 400.811 186.022 401.417C191.559 410.328 199.778 415.26 210.075 416.904C213.103 417.337 216.045 417.51 219.073 417.51C220.544 417.51 221.322 418.029 221.149 418.807C220.976 419.759 220.284 420.105 219.419 420.192C217.688 420.365 215.871 420.538 213.968 420.624C203.932 420.797 195.193 417.769 188.185 410.328C186.714 408.684 185.329 407.041 184.378 405.051C183.945 404.185 183.685 403.32 183.426 402.368C183.166 401.417 183.772 400.465 184.464 400.378ZM184.983 322.509C185.243 322.336 185.502 322.249 185.762 322.249C189.309 321.817 193.635 324.153 195.366 327.354C195.885 328.392 196.145 329.431 196.058 330.382C195.972 331.421 195.452 332.113 194.587 332.199C193.808 332.286 193.289 331.853 193.03 331.161C192.77 330.555 192.511 329.863 192.251 329.258C191.213 327.181 189.396 326.056 187.233 325.364C186.454 325.105 185.675 325.018 184.897 324.672C184.637 324.585 184.378 324.066 184.291 323.72C184.032 323.115 184.551 322.768 184.983 322.509Z" fill="black"/>
<path d="M0.0864258 375.633C7.52729 376.758 15.0547 376.498 22.5821 376.498C25.1777 376.498 27.7733 376.585 30.369 377.19C31.9264 377.537 33.3973 377.969 33.8299 379.7C34.2625 381.603 33.2242 382.901 31.7533 383.853C30.6286 384.545 29.3307 385.237 28.0329 385.583C24.8316 386.448 21.6303 387.14 18.429 387.833C18.0829 387.919 17.5638 387.833 17.2177 387.66C16.8716 387.487 16.6121 387.054 16.5255 386.708C16.439 386.362 16.6121 385.843 16.8716 385.67C17.3908 385.323 18.0829 384.977 18.6886 384.804C20.246 384.458 21.8899 384.199 23.5338 383.853C25.5238 383.333 27.5138 382.814 29.3307 381.863C29.8499 381.603 30.369 381.343 30.369 380.738C30.369 380.046 29.7633 379.959 29.1577 379.959C28.379 379.873 27.5138 379.786 26.7351 379.786C17.8234 379.613 8.99815 379.786 0.0864258 379.094C0.0864258 377.796 0.0864258 376.671 0.0864258 375.633Z" fill="black"/>
<path d="M0.0865216 294.909C3.89347 293.697 7.6139 294.303 11.3343 295.341C17.0448 296.985 22.1495 299.84 27.3408 302.522C27.6869 302.695 28.033 302.955 28.2926 303.215C28.8982 303.82 29.3308 304.512 28.8982 305.378C28.5521 306.156 27.86 306.329 26.8217 305.81C24.3991 304.599 21.9765 303.301 19.5539 302.003C16.8717 300.619 14.103 299.494 11.2478 298.542C8.13303 297.504 4.93173 296.985 1.55739 297.504C1.03826 297.591 0.51913 297.331 0 297.245C0.0865216 296.552 0.0865216 295.774 0.0865216 294.909Z" fill="black"/>
<path d="M0.0864258 414.308C5.71033 414.049 11.2477 413.443 16.6986 411.972C21.1112 410.848 25.3507 409.55 29.3307 407.3C30.0229 406.868 30.8016 406.435 31.6668 406.695C32.0129 406.781 32.4455 407.041 32.6186 407.387C32.7916 407.733 32.7051 408.165 32.532 408.512C32.186 409.29 31.3207 409.55 30.6286 409.982C26.562 412.318 22.0629 413.616 17.5638 414.741C11.8534 416.212 6.05642 417.337 0.172947 416.731C0.0864258 415.952 0.0864258 415.087 0.0864258 414.308Z" fill="black"/>
<path d="M153.576 282.017C156.691 278.988 159.286 275.787 162.92 273.711C166.381 271.634 170.275 270.855 174.341 270.163C172.524 265.405 170.534 260.905 168.285 256.493C165.862 251.734 163.18 247.062 160.671 242.39C159.546 240.227 159.373 239.016 160.325 238.842C162.142 238.41 162.574 240.054 163.266 241.092C171.486 254.33 178.061 268.26 182.128 283.315C182.82 285.824 183.166 288.419 184.464 290.669C185.502 290.323 185.502 289.371 185.848 288.765C189.223 280.805 191.299 272.413 192.597 263.847C193.116 260.559 193.635 257.358 194.155 254.07C194.241 253.378 194.414 252.686 194.674 252.08C195.279 250.609 196.664 250.09 198.048 250.955C199 251.561 199.865 252.253 200.557 253.032C204.278 257.791 207.652 262.809 210.421 268.173C210.507 268.433 210.68 268.692 210.767 268.952C211.718 271.375 210.94 272.759 208.344 272.759C204.883 272.845 201.509 272.672 198.048 272.672C197.615 272.672 197.183 272.586 196.923 272.326C196.491 272.067 196.058 271.634 196.058 271.029C196.058 270.423 196.491 269.904 196.923 269.731C197.702 269.471 198.481 269.298 199.346 269.298C201.509 269.298 203.758 269.385 205.921 269.385C206.527 269.385 206.873 268.779 206.614 268.26C204.191 263.761 201.422 259.521 198.308 255.541C198.221 255.368 197.788 255.368 197.615 255.455C197.442 255.541 197.183 255.801 197.096 255.974C196.404 260.04 195.885 264.107 195.193 268.173C193.635 276.999 191.213 285.478 187.233 293.611C186.714 294.562 186.281 295.601 185.589 296.466C184.464 297.85 183.08 297.677 182.474 296.033C182.215 295.428 182.128 294.735 181.955 294.043C180.225 287.814 178.581 281.584 176.504 275.528C175.898 273.711 175.466 273.365 173.562 273.624C168.804 274.143 164.651 276.22 161.103 279.421C159.719 280.719 158.421 282.19 157.037 283.488C156.345 284.18 155.739 284.872 154.96 285.478C153.316 286.689 151.326 286.343 150.375 284.612C149.769 283.574 149.423 282.363 149.077 281.152C148.125 277.95 147.952 274.662 147.692 271.375C147.26 265.924 147.433 260.386 147.606 254.935C147.692 253.292 147.779 251.648 148.471 250.09C148.644 249.571 149.163 249.225 149.769 249.312C150.375 249.398 150.894 249.658 151.067 250.263C151.24 250.869 151.24 251.561 151.326 252.253C151.413 256.925 151.499 261.598 151.672 266.27C151.845 270.509 152.278 274.749 152.624 278.988C152.538 279.767 152.624 280.805 153.576 282.017Z" fill="#020202"/>
<path d="M79.773 354.522C79.8595 358.156 79.2539 361.617 78.2156 365.078C77.5235 367.327 76.4852 369.404 75.1874 371.307C72.9378 374.509 69.9095 376.412 66.1026 377.104C61.6035 377.969 57.3639 377.364 53.3839 375.287C49.3174 373.124 45.9431 370.269 43.0013 366.722C38.5022 361.444 35.3874 355.387 32.9648 348.898C30.7152 342.842 29.2444 336.612 28.7252 330.123C28.7252 329.69 28.5522 329.344 28.6387 328.912C28.7252 328.219 29.1579 327.7 29.9366 327.614C30.7152 327.527 31.3209 327.873 31.4939 328.652C31.7535 330.123 31.9266 331.594 32.0996 333.151C33.0513 340.592 35.3009 347.514 38.8483 354.176C41.3574 358.935 44.3857 363.261 48.2791 366.981C50.0961 368.712 51.9996 370.182 54.1626 371.394C55.8065 372.345 57.6235 373.211 59.4404 373.557C67.1409 375.201 71.2074 372.605 73.9761 366.808C76.3987 361.617 76.8313 355.993 76.3121 350.282C75.8795 345.783 74.8413 341.371 73.1974 337.131C72.9378 336.352 72.3322 335.66 72.5917 334.795C72.6782 334.449 72.9378 334.103 73.2839 333.843C73.63 333.497 74.0626 333.757 74.4087 334.016C75.1874 334.622 75.5335 335.574 75.8795 336.439C78.3887 342.322 79.6865 348.292 79.773 354.522Z" fill="black"/>
<path d="M264.843 378.229C261.555 379.094 258.786 379.873 256.017 380.219C254.201 380.392 252.47 380.479 250.74 379.873C248.231 379.008 247.452 376.758 249.096 374.682C250.307 373.124 251.864 372.086 253.681 371.394C254.201 371.221 254.806 371.221 255.152 371.74C255.585 372.432 255.325 373.124 254.806 373.557C254.027 374.249 253.076 374.855 252.211 375.547C251.778 375.893 251.259 376.239 251.605 376.845C251.778 377.104 252.297 377.277 252.643 377.277C254.027 377.277 255.412 377.364 256.71 377.191C260.517 376.672 264.151 375.46 267.698 373.816C269.082 373.124 270.12 372.086 271.159 370.961C271.591 370.529 272.111 370.529 272.63 370.961C273.062 371.394 273.149 371.913 272.976 372.432C272.37 373.903 271.332 374.941 269.947 375.633C268.909 376.239 268.217 376.931 268.131 378.142C268.131 378.402 267.957 378.662 267.871 378.921C267.525 379.7 267.352 380.652 266.833 381.084C263.977 383.593 263.112 387.314 260.863 390.255C260.517 390.688 260.084 391.121 259.651 391.294C256.537 392.332 254.893 395.36 252.037 396.745C249.442 398.042 246.76 398.302 244.077 397.004C242.261 396.139 240.444 395.793 238.54 395.706C232.224 395.36 225.994 395.014 219.678 394.668C218.467 394.582 217.256 394.495 216.044 394.322C215.439 394.235 215.093 393.803 215.006 393.197C215.006 392.419 215.525 391.986 216.304 391.899C216.823 391.813 217.429 391.813 217.948 391.813C225.475 392.159 233.003 392.505 240.53 392.938C241.914 393.024 243.212 393.37 244.424 393.976C246.067 394.755 247.884 394.928 249.615 394.322C249.788 394.235 250.047 394.062 250.134 393.803C250.307 393.543 250.134 393.284 249.788 393.197C248.75 392.938 247.625 392.678 246.673 392.332C245.635 391.986 244.77 391.294 244.251 390.255C243.818 389.304 243.818 388.439 244.51 387.573C245.029 386.881 246.327 386.708 246.5 387.487C247.106 389.909 248.923 390.169 250.913 390.169C252.989 390.255 255.066 390.255 256.969 389.39C257.661 389.044 258.354 388.525 258.959 388.006C259.219 387.746 259.565 387.4 259.392 386.968C259.219 386.535 258.873 386.535 258.44 386.622C256.277 387.141 254.114 387.141 251.864 386.881C250.221 386.708 248.663 386.189 247.452 384.891C246.327 383.68 246.327 381.949 247.365 380.825C247.711 380.392 248.317 380.306 248.923 380.479C249.355 380.565 249.701 380.998 249.615 381.344C249.269 383.507 250.653 383.939 252.211 384.112C256.45 384.545 260.43 384.026 263.631 380.825C263.891 380.565 264.151 380.219 264.324 379.873C264.324 379.613 264.41 379.267 264.843 378.229Z" fill="black"/>
<path d="M68.5251 143.236C68.4386 152.148 68.4386 158.291 69.1308 164.434C69.3903 166.337 69.6499 168.241 70.169 170.058C70.5151 171.182 71.0342 172.394 71.7264 173.345C73.3703 175.682 75.1873 176.028 77.7829 174.73C79.5999 173.778 81.2438 172.48 82.7146 171.096C90.4151 163.915 97.6829 156.214 103.739 147.476C104.605 146.264 105.383 144.88 106.595 143.928C107.027 143.582 107.633 143.409 108.152 143.669C108.844 144.015 109.017 144.707 108.844 145.399C108.585 146.783 107.633 147.822 106.854 148.946C102.874 154.57 98.3751 159.675 93.6164 164.693C91.1072 167.376 88.5116 170.058 85.8294 172.653C84.0125 174.47 82.0225 176.201 79.6864 177.412C75.4468 179.662 71.7264 178.796 68.8712 174.903C67.0542 172.394 66.189 169.539 65.8429 166.51C65.4968 162.963 65.2373 159.416 65.0642 155.868C64.7181 147.389 65.3238 138.91 66.016 130.431C66.1025 128.96 66.4486 127.489 66.7947 126.018C66.8812 125.499 67.5734 125.239 68.179 125.413C68.5251 125.499 68.9577 125.932 68.9577 126.191C69.0442 127.316 69.1307 128.354 69.0442 129.479C68.8712 135.016 68.6116 140.467 68.5251 143.236Z" fill="black"/>
<path d="M75.0142 115.203C74.8411 114.857 74.7546 114.511 74.4951 114.165C73.0242 111.742 71.4668 109.319 69.9959 106.81C69.4768 106.032 69.0442 105.08 68.6981 104.215C68.4385 103.523 68.5251 102.83 69.2172 102.398C69.8229 102.052 70.2555 102.398 70.6881 102.744C71.0342 103.003 71.2938 103.349 71.5533 103.609C75.2738 108.108 77.9559 113.126 80.2055 118.491C80.465 119.096 80.5516 119.789 80.6381 120.481C80.6381 120.827 80.292 121.173 79.9459 121.433C79.5998 121.779 79.1672 121.519 78.8211 121.346C78.7346 121.259 78.5616 121.173 78.4751 121.086C77.7829 118.318 75.8794 118.577 73.7164 118.75C62.0359 119.529 51.5668 123.596 42.2225 130.517C37.8964 133.719 33.9164 137.266 30.1095 141.073C23.4473 147.649 17.2177 154.57 11.1612 161.665C10.3825 162.617 9.69036 163.655 8.56558 164.261C8.39253 164.347 8.04645 164.261 7.78688 164.174C7.61384 164.001 7.4408 163.655 7.4408 163.482C7.52732 162.963 7.78688 162.444 8.04645 162.011C8.6521 161.146 9.34427 160.281 10.0364 159.416C16.5256 151.282 23.5338 143.496 30.9747 136.228C36.5986 130.69 42.8281 126.018 49.8364 122.471C57.0177 118.837 64.5451 116.414 72.6781 116.414C73.3703 116.414 74.0624 116.328 74.7546 116.241C74.8411 115.895 74.9277 115.463 75.0142 115.203Z" fill="#050505"/>
<path d="M240.79 280.113C237.502 279.248 234.127 279.248 230.753 279.681C229.455 277.777 228.157 275.874 226.86 273.97C224.697 270.942 222.534 268 220.457 264.885C219.678 263.761 218.9 262.549 218.381 261.338C217.515 259.348 218.208 257.358 219.938 256.32C221.582 255.195 223.572 255.454 225.129 257.098C225.475 257.444 225.821 257.877 226.167 258.396C231.186 265.578 236.291 272.672 240.79 280.113Z" fill="#0EB770"/>
<path d="M264.324 314.549C260.863 314.808 257.315 314.722 253.854 314.549C251.432 310.742 249.009 306.935 246.673 303.128C245.808 301.744 245.029 300.273 244.251 298.888C242.693 296.293 244.51 292.918 248.058 293.178C249.182 293.264 250.221 293.524 251.172 294.13C251.172 294.562 251.172 294.908 251.172 295.341C251.259 297.417 251.259 297.417 253.595 297.417C256.969 302.522 260.257 307.627 263.545 312.732C263.891 313.251 264.064 313.943 264.324 314.549Z" fill="#0EB770"/>
<path d="M236.896 306.676C237.675 307.541 238.54 307.281 239.319 307.368C240.53 307.454 241.136 306.762 241.136 305.637C241.049 304.599 240.876 303.474 240.617 302.436C239.665 298.802 238.367 295.428 236.896 291.967C236.55 291.188 236.291 290.496 236.031 289.717C235.858 289.198 236.118 288.593 236.55 288.333C237.242 287.987 237.935 288.16 238.454 288.593C238.8 288.852 238.973 289.198 239.146 289.631C241.395 294.043 243.126 298.629 244.164 303.474C244.337 304.166 244.337 304.859 244.337 305.551C244.251 308.925 241.655 311.348 238.367 310.396C236.464 309.877 235.598 310.223 234.993 311.953C234.906 312.213 234.733 312.386 234.474 312.646C234.041 312.992 233.608 313.251 233.003 312.992C232.484 312.732 232.224 312.213 232.224 311.694C232.224 311.261 232.397 310.915 232.57 310.483C234.128 306.762 233.955 303.042 233.262 299.148C232.916 297.504 232.57 295.947 232.138 294.303C231.965 293.611 231.965 292.919 232.311 292.313C232.484 291.88 233.349 291.621 233.695 291.88C234.301 292.313 234.474 292.919 234.733 293.611C236.377 297.85 237.156 302.263 236.896 306.676Z" fill="#0A0A0A"/>
<path d="M135.579 32.3154C136.098 32.4019 136.445 33.0941 136.185 33.5267C135.839 33.9593 135.579 34.3919 135.147 34.8245C130.821 39.3236 128.571 46.678 133.416 54.0323C135.06 56.5414 136.358 59.3101 137.137 62.2519C138.175 66.0588 138.348 69.7792 136.704 73.4997C136.531 74.0188 136.185 74.4514 135.839 74.7975C135.579 75.0571 135.06 75.0571 134.714 74.9705C134.368 74.884 134.022 74.4514 134.022 74.1053C134.022 73.3266 134.108 72.4614 134.368 71.6827C135.579 68.2219 134.887 64.934 133.762 61.6462C132.897 59.1371 131.599 56.974 130.302 54.7245C128.571 51.6962 127.446 48.4949 127.706 44.9475C128.052 40.2754 129.955 36.2954 133.416 33.0076C133.935 32.4884 134.628 32.0558 135.579 32.3154Z" fill="black"/>
<path d="M76.7447 497.888C76.6582 495.985 76.8312 494.081 77.5234 492.178C77.6964 491.572 78.2155 491.226 78.7347 491.313C79.2538 491.313 79.7729 491.659 79.946 492.264C80.119 493.216 80.3786 494.168 80.4651 495.12C81.2438 501.349 82.4551 507.579 84.4451 513.549C84.5316 513.808 84.7047 514.068 84.7047 514.327C85.0508 515.539 84.7047 516.404 83.8395 516.75C83.0608 517.096 81.936 516.837 81.3303 515.971C80.2921 514.674 79.6864 513.116 79.1673 511.559C77.6099 507.146 77.0042 502.561 76.7447 497.888Z" fill="#090909"/>
<path d="M24.8317 394.409C21.9765 394.409 20.8517 393.889 21.0247 392.938C21.2843 391.467 22.5821 391.553 23.6204 391.467C28.3791 391.207 32.6186 389.563 36.7717 387.227C38.3291 386.362 39.8865 385.497 41.4439 384.718C41.963 384.459 42.4821 384.286 43.0012 384.199C43.6069 384.026 44.0395 384.459 44.3856 384.891C44.7317 385.41 44.7317 386.102 44.2125 386.362C38.156 390.342 31.9265 393.976 24.3991 394.495C24.1395 394.409 24.053 394.409 24.8317 394.409Z" fill="black"/>
<path d="M24.3991 401.071C24.053 400.984 23.7934 401.071 23.5339 400.897C23.1878 400.638 22.8417 400.292 22.8417 399.946C22.7552 399.6 23.0147 399.167 23.2743 398.821C23.5339 398.561 23.9665 398.388 24.3125 398.302C29.9365 396.831 34.8682 393.889 39.7999 391.034C40.8382 390.428 41.963 389.823 43.0877 389.39C43.7799 389.131 44.4721 389.304 44.8182 390.082C45.0777 390.601 44.8182 391.121 44.4721 391.64C44.299 391.813 44.0395 391.986 43.8664 392.159C39.1943 395.187 34.4356 398.129 29.1578 400.032C27.5138 400.551 25.9565 401.157 24.3991 401.071Z" fill="black"/>
<path d="M122.688 56.8009C123.12 56.9739 123.466 57.147 123.466 57.6661C123.466 57.9257 123.466 58.2717 123.38 58.4448C121.822 61.2135 122.688 63.7226 124.159 66.1452C125.024 67.5296 125.975 68.9139 126.754 70.3848C127.533 71.6826 127.965 73.1535 127.792 74.7109C127.706 75.23 127.533 75.7491 127.187 76.1817C127.014 76.4413 126.495 76.6143 126.149 76.6143C125.716 76.7008 125.283 76.2683 125.283 75.9222C125.37 72.6343 123.38 70.2983 121.736 67.7891C120.698 66.3183 120.005 64.6743 119.659 62.8574C119.227 60.8674 119.746 59.0504 120.871 57.4065C121.39 56.9739 121.995 56.6278 122.688 56.8009Z" fill="black"/>
<path d="M153.489 503.339C154.008 503.512 154.528 503.858 154.614 504.377C154.701 504.897 154.701 505.502 154.528 505.935C154.008 507.665 153.143 509.223 152.105 510.607C150.202 513.03 148.125 515.452 146.135 517.875C145.962 518.048 145.789 518.307 145.529 518.48C144.837 519.086 143.885 519.086 143.366 518.567C142.761 517.961 142.847 517.269 143.28 516.663C143.972 515.625 144.837 514.76 145.529 513.808C147 511.991 148.558 510.261 149.855 508.444C150.807 507.146 151.413 505.589 152.192 504.118C152.365 503.599 152.884 503.339 153.489 503.339Z" fill="black"/>
<path d="M147.779 525.402C147.173 525.488 146.308 524.71 146.395 524.104C146.568 523.498 146.741 522.806 147.087 522.201C147.952 520.989 148.904 519.778 149.769 518.567C151.499 516.144 153.316 513.722 154.268 510.866C154.614 509.828 155.479 509.482 156.172 509.828C157.037 510.261 157.21 511.039 157.037 511.905C156.777 512.943 156.431 513.981 155.912 514.933C154.095 518.307 151.759 521.335 149.423 524.364C148.99 524.969 148.471 525.402 147.779 525.402Z" fill="black"/>
<path d="M39.1077 306.502C38.5886 306.329 38.156 305.983 37.9829 305.464C37.8964 305.032 37.8099 304.599 37.9829 304.253C38.2425 303.388 38.6751 302.436 38.9347 301.571C39.2808 300.619 40.7516 299.927 40.146 298.802C39.7999 298.11 38.5886 297.85 37.7234 297.418C37.2042 297.072 37.0312 296.639 37.2908 296.033C37.5503 295.514 37.9829 295.168 38.5021 295.082C39.0212 295.082 39.6268 295.168 40.0595 295.341C42.9147 296.466 45.0777 298.542 46.8947 300.965C47.2407 301.484 47.1542 302.003 46.8081 302.436C46.289 303.128 45.6834 303.042 44.9912 302.609C44.5586 302.263 44.126 301.917 43.6934 301.571C43.0012 301.052 42.309 301.311 41.9629 301.917C41.2708 303.128 40.7516 304.339 40.2325 305.551C40.146 306.243 39.7134 306.416 39.1077 306.502Z" fill="black"/>
<path d="M25.1779 407.214C24.6587 407.127 24.1396 407.041 23.88 406.435C23.707 405.829 23.88 405.397 24.3126 404.964C24.4857 404.791 24.7452 404.618 25.0048 404.531C29.4174 403.061 33.2244 400.378 37.2044 397.956C38.6752 397.091 39.627 397.091 40.0596 397.869C40.4922 398.648 40.1461 399.34 38.9348 400.205C35.82 402.368 32.6187 404.445 29.1578 406.089C27.86 406.608 26.6487 407.127 25.1779 407.214Z" fill="black"/>
<path d="M172.784 101.705C172.611 101.879 172.438 102.398 172.178 102.484C171.399 102.744 170.621 102.917 169.756 102.917C166.468 103.003 163.18 103.176 160.065 104.388C159.719 104.561 159.2 104.561 158.854 104.388C158.508 104.215 158.162 103.869 158.075 103.522C157.989 103.176 158.075 102.744 158.248 102.398C158.421 102.052 158.854 101.792 159.2 101.619C163.007 99.802 167.073 99.4559 171.226 99.802C172.178 99.9751 172.87 100.84 172.784 101.705Z" fill="#121212"/>
<path d="M197.096 215.222C197.269 213.924 197.356 212.367 198.74 211.415C199.259 211.069 199.778 210.982 200.211 211.328C200.471 211.588 200.644 211.934 200.817 212.367C200.903 212.626 200.817 212.886 200.73 213.145C199.865 215.482 200.73 217.385 202.288 219.029C202.807 219.635 203.412 220.154 203.932 220.846C204.278 221.278 204.364 221.884 204.018 222.317C203.585 222.922 202.98 223.268 202.288 223.009C199.432 222.057 197.096 218.423 197.096 215.222Z" fill="#131313"/>
<path d="M162.488 105.772C164.651 105.945 167.16 106.551 169.409 107.849C169.928 108.108 170.274 108.454 170.448 108.973C170.707 109.579 170.274 110.531 169.669 110.617C169.15 110.617 168.544 110.704 168.111 110.531C165.343 109.319 162.401 108.8 159.373 108.887C159.027 108.887 158.594 108.714 158.248 108.541C157.988 108.281 157.642 107.935 157.642 107.589C157.642 107.243 157.902 106.81 158.161 106.551C159.373 105.599 160.757 105.772 162.488 105.772Z" fill="#151515"/>
<path d="M47.8465 69.433C45.2509 69.3465 43.3474 68.7408 41.8765 67.1834C41.3574 66.6643 41.0978 66.0587 41.1844 65.3665C41.2709 64.8474 41.8765 64.3282 42.3091 64.5013C42.9148 64.8474 43.4339 65.28 43.9531 65.626C46.2026 67.1834 48.4522 67.1834 50.7883 65.7991C51.74 65.28 52.4322 64.3282 53.6435 64.2417C53.9896 64.2417 54.5087 64.4147 54.6817 64.6743C54.8548 64.9339 54.8548 65.5395 54.6817 65.7126C52.8648 68.1352 50.3557 69.26 47.8465 69.433Z" fill="#111111"/>
<path d="M146.568 62.5977C146.568 63.5495 146.481 64.2416 145.962 64.7608C145.702 65.0203 145.27 65.1934 144.924 65.1934C144.405 65.2799 144.058 64.8473 144.058 64.5012C144.058 61.9056 142.761 59.829 141.722 57.5795C141.03 56.1086 140.598 54.4647 140.944 52.8208C141.03 52.3017 141.463 51.8691 141.722 51.4365C141.982 51.0904 143.107 51.1769 143.107 51.6095C143.28 55.1569 145.097 58.0986 146.308 61.2134C146.568 61.7325 146.481 62.3382 146.568 62.5977Z" fill="black"/>
<path d="M29.9365 320.865C29.9365 322.249 30.3691 323.288 29.2443 323.893C28.3791 324.326 27.6869 323.634 27.1678 321.99C26.3891 319.308 26.216 316.626 26.1295 313.857C26.1295 313.338 26.216 312.732 26.4756 312.299C26.6486 312.04 27.0813 311.694 27.4273 311.694C27.7734 311.694 28.2926 311.867 28.4656 312.213C28.7252 312.646 28.9847 313.165 29.0713 313.684C29.4173 316.193 29.6769 318.789 29.9365 320.865Z" fill="black"/>
<path d="M169.323 207.176C169.236 207.954 168.198 208.646 167.679 208.387C167.333 208.214 166.9 208.041 166.641 207.781C164.91 205.618 163.266 203.542 161.622 201.292C161.19 200.686 161.103 199.994 161.795 199.475C162.401 199.042 163.18 199.129 163.699 199.562C164.91 200.686 166.035 201.898 167.073 203.109C167.852 204.061 168.458 205.099 169.063 206.137C169.323 206.57 169.323 207.002 169.323 207.176Z" fill="#141414"/>
<path d="M159.805 111.742C162.661 111.915 164.824 113.3 166.727 115.117C167.419 115.809 167.592 116.674 166.987 117.28C166.468 117.885 165.775 117.799 165.17 117.453C163.007 116.328 160.93 114.944 158.508 114.252C157.989 114.079 157.556 113.646 157.642 113.04C157.729 112.175 158.335 111.915 159.027 111.829C159.286 111.742 159.632 111.742 159.805 111.742Z" fill="#191919"/>
<path d="M43.7799 85.2666C43.4338 85.0935 42.7416 84.834 42.2225 84.4879C41.9629 84.3148 41.7899 83.7957 41.8764 83.4496C41.9629 83.1035 42.3955 82.5844 42.5686 82.6709C45.9429 83.3631 47.2407 81.6327 47.8464 78.6044C47.9329 78.2583 48.279 77.9122 48.5386 77.6527C48.9712 77.2201 50.0959 77.6527 50.269 78.1718C51.1342 81.7192 47.7599 85.6992 43.7799 85.2666Z" fill="#151515"/>
<path d="M227.898 305.897C227.898 305.378 227.984 303.993 228.158 302.695C228.244 302.176 228.677 301.744 229.282 301.657C229.888 301.657 230.321 301.917 230.494 302.522C231.359 305.378 231.359 308.146 230.494 311.002C230.321 311.694 229.628 312.126 228.936 311.953C228.417 311.867 227.898 311.434 227.898 310.829C227.898 309.444 227.898 308.06 227.898 305.897Z" fill="#242424"/>
<path d="M92.5782 308.319C89.9825 308.233 87.9925 307.194 86.8678 304.858C86.5217 304.253 86.4351 303.561 86.7812 302.868C86.9543 302.522 87.3004 302.176 87.5599 302.09C87.906 302.003 88.3386 302.176 88.6847 302.349C88.8578 302.436 89.0308 302.782 89.2038 302.955C90.0691 305.031 91.6264 305.724 93.7895 305.377C94.5682 305.291 95.4334 305.118 95.7795 306.156C96.039 306.935 95.2604 307.887 94.1356 308.06C93.5299 308.233 93.0108 308.233 92.5782 308.319Z" fill="black"/>
<path d="M82.9742 275.614C82.8876 275.787 82.8011 276.306 82.455 276.479C80.7246 277.604 78.9942 278.642 77.2637 279.594C76.8311 279.854 76.485 279.594 76.1389 279.334C75.6198 278.988 75.5333 278.296 75.7929 277.864C77.1772 275.701 79.1672 274.403 81.6763 274.057C82.3685 274.057 83.1472 274.922 82.9742 275.614Z" fill="black"/>
<path d="M207.219 190.996C207.133 191.256 207.046 191.688 206.7 191.948C205.056 193.159 203.412 194.284 201.682 195.409C201.249 195.668 200.644 195.668 200.211 195.236C199.692 194.63 199.692 193.938 200.125 193.419C201.509 191.688 203.412 190.65 205.402 189.785C206.008 189.352 207.306 190.217 207.219 190.996Z" fill="#191919"/>
<path d="M209.036 206.051C209.555 206.051 210.075 205.964 210.68 205.964C211.286 205.964 211.718 206.31 211.805 206.916C211.978 207.522 211.805 208.127 211.372 208.387C209.728 209.338 207.912 209.858 206.008 208.906C205.575 208.646 205.229 208.214 205.229 207.608C205.316 207.002 205.748 206.57 206.181 206.483C207.219 206.137 208.171 206.137 209.036 206.051Z" fill="#292929"/>
<path d="M103.047 286.083C102.961 286.948 102.615 287.468 101.922 287.641C101.23 287.814 100.625 287.468 100.279 286.775C99.7594 285.91 99.5864 285.045 99.8459 284.007C100.019 283.401 100.452 283.055 100.971 282.882C101.49 282.709 102.009 283.055 102.355 283.401C102.961 284.266 103.047 285.218 103.047 286.083Z" fill="black"/>
<path d="M84.1855 289.371C84.099 289.89 84.0125 290.236 83.926 290.582C83.5799 291.447 82.2821 291.707 81.5899 291.015C80.8112 290.15 80.6382 289.111 80.8112 288.073C80.8977 287.294 81.7629 286.602 82.5416 286.689C83.3203 286.775 83.7529 287.208 84.0125 287.9C84.099 288.333 84.099 288.852 84.1855 289.371Z" fill="black"/>
<path d="M111.007 141.679C110.315 141.506 109.969 140.987 109.969 140.467C109.969 139.17 110.661 138.131 111.872 137.526C112.218 137.353 112.738 137.439 112.997 137.612C113.257 137.785 113.603 138.218 113.603 138.564C113.603 140.035 112.651 141.246 111.353 141.592C111.267 141.679 111.094 141.679 111.007 141.679Z" fill="#1B1B1B"/>
<path d="M83.926 294.995C84.7047 294.995 85.4834 295.86 85.3969 296.552C85.3104 297.331 84.4452 298.11 83.753 297.85C83.1473 297.677 82.5417 297.244 82.5417 296.466C82.3687 295.774 83.1473 294.995 83.926 294.995Z" fill="black"/>
<path d="M79.2539 296.207C80.0326 296.207 80.5517 296.466 80.7247 297.245C80.8978 298.023 80.1191 298.975 79.4269 298.889C78.7347 298.802 78.2156 298.37 78.1291 297.591C78.0426 296.899 78.4752 296.38 79.2539 296.207Z" fill="black"/>
<path d="M83.9261 300.965C83.9261 301.571 83.4935 302.003 82.7148 302.176C81.9361 302.349 81.1574 301.571 81.2439 300.705C81.3304 299.927 81.8496 299.494 82.5417 299.494C83.2339 299.494 83.9261 300.186 83.9261 300.965Z" fill="black"/>
<path d="M59.2673 76.7009C59.3539 77.4796 58.9212 77.9122 58.2291 78.1718C57.6234 78.3448 56.9312 77.7392 56.8447 77.1335C56.8447 76.3548 57.3639 75.9222 58.056 75.8357C58.5752 75.8357 59.1808 76.0953 59.2673 76.7009Z" fill="black"/>
<path d="M52.9513 73.7593C52.9513 73.3267 53.2108 73.0671 53.6434 72.9806C54.1626 72.8075 54.6817 73.4132 54.5086 73.9323C54.4221 74.2784 54.1626 74.6245 53.6434 74.538C53.2973 74.3649 52.8647 74.2784 52.9513 73.7593Z" fill="black"/>
<path d="M60.3055 70.8177C60.219 71.2503 60.1325 71.8559 59.4403 71.7694C59.0077 71.7694 58.7481 71.4233 58.6616 71.0772C58.5751 70.4716 58.9212 70.1255 59.6134 70.1255C59.9595 70.1255 60.219 70.3851 60.3055 70.8177Z" fill="black"/>
<path d="M253.941 296.293L253.854 296.12L254.027 296.206L254.114 296.379L253.941 296.293Z" fill="#0EB770"/>
<path d="M251.518 293.87C251.605 294.389 251.345 294.303 251.086 294.13C250.999 293.87 250.999 293.87 251.518 293.87Z" fill="#0EB770"/>
<path d="M191.991 364.126C190.953 363.52 189.569 363.434 188.877 362.309C188.531 363.347 188.184 364.472 188.444 365.597C193.722 367.933 196.058 371.999 195.279 377.364C194.587 382.036 190.261 384.285 186.108 382.122C185.243 381.69 184.551 381.084 183.685 380.565C182.647 381.863 182.128 383.247 183.08 384.804C184.378 384.285 185.502 385.064 186.627 385.497C190.694 386.967 195.798 384.891 197.788 380.305C200.211 374.595 197.702 367.154 191.991 364.126Z" fill="#F6709E"/>
<path d="M248.49 176.893C247.538 170.75 243.039 167.289 236.896 167.808C235.425 167.981 233.954 168.327 232.484 168.587C231.791 168.673 231.186 168.933 230.494 169.02C229.628 169.193 228.85 169.02 228.331 168.241C227.725 167.462 227.033 166.77 226.514 166.078C223.572 162.444 220.284 159.156 216.91 155.868C211.545 150.677 205.402 146.61 198.481 143.755C197.183 143.236 195.885 142.803 194.587 142.371C193.549 142.025 193.116 141.333 193.116 140.208C193.03 136.747 192.597 133.373 191.991 129.998C190.521 121.346 188.358 112.867 184.551 104.907C183.512 102.83 182.474 100.754 181.176 98.8505C179.273 95.9953 176.677 93.9187 173.216 93.5727C171.918 93.3996 171.313 92.794 170.621 91.9288C167.506 88.0353 164.045 87.1701 159.373 89.0735C158.594 89.4196 157.902 89.8522 157.123 90.1118C156.864 90.1983 156.258 89.7657 156.172 89.5061C156.085 88.814 156.085 88.1218 156.258 87.5161C156.864 85.2666 155.825 83.7957 154.008 82.7575C152.624 81.8922 151.153 81.1135 149.509 80.854C147.087 80.4214 144.664 79.9888 142.242 79.7292C133.849 78.864 125.543 79.5562 117.41 81.9788C115.074 82.6709 112.738 83.6227 110.661 84.9205C108.671 86.2183 107.719 87.8622 107.806 90.3714C108.066 101.273 109.623 111.915 113.17 122.298C114.555 126.191 116.112 129.912 118.535 133.373C122.255 138.65 127.273 141.592 133.849 141.246C135.06 141.16 136.358 141.16 137.569 141.073C142.415 140.727 146.222 138.65 148.644 134.324C148.817 133.978 149.077 133.632 149.25 133.286C150.202 131.902 150.202 131.729 151.845 132.248C154.701 133.113 157.296 132.421 159.719 131.123C160.671 130.604 161.449 129.825 162.142 129.306C163.007 129.306 163.266 129.912 163.526 130.344C165.343 132.767 166.987 135.276 168.89 137.612C170.102 139.17 170.794 139.429 171.486 138.997C172.351 138.391 172.351 137.612 171.14 135.795C167.333 130.085 163.439 124.461 159.546 118.837C159.2 118.318 158.681 117.712 158.162 117.28C157.729 116.933 157.123 116.933 156.691 117.366C156.258 117.712 156.258 118.145 156.431 118.491C157.383 120.308 158.335 122.125 159.373 123.855C160.757 126.191 160.411 127.403 158.075 128.787C156.604 129.652 154.96 129.825 153.316 129.652C151.845 129.479 151.413 128.873 151.932 127.403C155.393 117.539 156.345 107.33 156.431 97.0335C156.431 94.6109 157.21 93.14 159.373 92.2748C160.411 91.8422 161.363 91.3231 162.401 91.15C164.391 90.7174 166.208 91.2366 167.679 92.7074C168.112 93.14 168.025 93.8322 167.506 94.0053C165.429 94.6974 163.353 95.3031 161.276 96.0818C160.411 96.4279 159.546 96.8605 158.854 97.6392C158.594 97.9853 158.508 98.4179 158.681 98.764C158.94 99.2831 159.373 99.7157 159.978 99.5426C160.93 99.2831 161.709 98.8505 162.661 98.5044C165.343 97.4661 168.025 96.5144 170.967 96.2548C173.822 95.9953 176.158 96.8605 177.888 99.11C178.927 100.408 179.792 101.792 180.571 103.263C185.935 113.819 188.444 125.153 189.742 136.747C189.915 138.045 190.261 139.429 189.309 140.9C186.021 140.121 182.561 140.035 179.186 140.121C166.468 140.467 156.258 145.832 148.471 155.782C147.346 157.166 146.827 159.243 145.443 160.108C143.972 161.06 141.809 161.06 139.992 161.492C134.282 163.05 130.907 167.03 130.388 172.913C130.042 176.374 130.475 179.748 131.686 183.036C132.984 186.41 134.714 189.439 136.791 192.38C140.511 197.658 144.751 202.503 149.596 206.829C151.413 208.473 152.538 209.944 152.884 212.54C153.576 217.645 156.95 219.721 161.968 218.683C162.574 218.51 163.266 218.077 163.785 218.856C162.574 225.432 159.546 230.882 154.441 235.382C147.173 241.784 138.867 246.11 129.09 246.889C128.312 246.976 127.446 247.062 126.668 247.235C126.408 247.322 126.235 247.841 126.149 248.273C126.062 248.446 126.322 248.792 126.495 248.966C127.014 249.485 127.706 249.658 128.398 249.658C130.907 249.744 133.33 249.658 135.752 249.139C143.453 247.495 150.028 243.774 155.998 238.669C161.709 233.824 165.429 227.681 166.9 220.327C167.16 219.029 167.073 217.472 167.765 216.347C168.458 215.309 169.928 214.703 170.967 213.924C171.399 213.578 171.832 213.232 172.178 212.886C172.611 212.453 172.611 211.848 172.351 211.329C172.092 210.809 171.486 210.55 170.967 210.896C169.496 211.675 168.112 212.453 166.727 213.319C164.997 214.357 163.266 215.482 161.19 216.001C158.248 216.693 156.864 215.914 155.912 212.973C154.96 210.031 155.133 207.003 155.652 204.061C155.998 202.071 156.518 200.081 157.729 198.264C159.459 195.582 162.228 194.716 165.256 195.755C167.073 196.447 168.717 197.485 170.102 198.869C171.399 200.081 172.611 201.379 173.735 202.763C174.947 204.234 175.725 204.666 177.196 202.59C178.494 200.859 179.705 198.956 180.744 197.053C185.502 188.833 190.175 180.613 194.847 172.48C195.193 171.875 195.279 170.923 196.231 170.75C196.404 170.836 196.577 170.836 196.664 170.923C197.356 171.788 198.048 172.567 198.74 173.432C204.018 180.527 210.161 186.756 217.602 191.602C217.861 191.775 218.121 191.861 218.294 192.034C218.64 192.467 218.9 192.899 218.467 193.419C216.131 195.928 215.785 199.043 216.045 202.244C216.131 203.888 216.304 205.532 216.65 207.176C217.083 209.339 217.602 211.415 218.035 213.578C218.381 215.395 218.121 215.741 216.564 216.433C215.439 216.952 214.314 217.299 213.189 217.904C212.67 218.164 212.584 218.769 212.757 219.375C212.93 219.981 213.535 220.327 214.055 220.24C216.218 219.894 218.294 219.202 220.111 217.818C220.89 217.212 221.322 216.347 221.322 215.309C221.236 214.184 221.236 213.146 220.976 212.021C220.717 210.896 220.457 209.858 220.284 208.733C220.025 208.3 219.851 207.781 219.851 207.262C219.851 207.089 219.851 206.829 219.851 206.57C219.159 204.407 219.073 202.244 219.159 199.994C219.159 198.61 219.419 197.312 220.111 196.101C221.322 194.111 223.485 193.765 225.302 195.322C225.562 195.582 225.821 196.014 225.821 196.36C225.908 199.043 225.908 201.811 225.908 204.493C225.908 205.272 225.302 205.618 224.61 205.791C224.178 205.878 223.745 205.964 223.399 205.878C222.88 205.791 222.534 205.791 222.101 205.964C222.101 206.051 222.015 206.051 222.015 206.137V206.224V206.31V206.397C222.015 206.483 221.928 206.656 221.928 206.743C221.928 206.743 221.928 206.743 221.928 206.829C221.928 206.916 221.928 206.916 221.928 207.003C221.928 207.089 221.928 207.176 221.928 207.349C221.928 207.435 221.928 207.435 221.928 207.522C221.928 207.608 222.015 207.608 222.015 207.695C222.015 207.695 222.015 207.781 222.101 207.781C222.188 207.868 222.188 207.868 222.274 207.954C222.361 208.041 222.361 208.041 222.447 208.127L222.534 208.214C222.707 208.3 222.88 208.473 223.053 208.56C223.745 208.56 224.351 208.646 225.043 208.733C225.735 208.819 225.995 209.252 225.995 209.858C225.821 212.453 225.648 215.049 225.302 217.645C224.783 222.144 223.831 226.556 222.188 230.796C221.149 233.392 219.938 235.814 218.121 237.891C214.401 242.39 209.642 244.207 203.845 243.342C199.865 242.736 196.231 241.092 192.77 239.102C187.838 236.247 183.599 232.613 179.532 228.719C178.84 228.027 178.148 227.422 177.369 226.902C176.85 226.556 176.331 226.729 175.898 227.162C175.466 227.595 175.293 228.114 175.639 228.633C175.898 229.066 176.245 229.498 176.677 229.931C181.09 234.257 185.848 238.15 191.213 241.352C194.674 243.428 198.221 244.986 202.201 245.851C209.815 247.495 215.958 245.159 220.803 239.102C222.88 236.506 224.264 233.565 225.389 230.45C227.292 225.086 228.244 219.635 228.677 214.011C229.023 209.079 229.196 204.147 228.85 199.216C228.677 196.966 228.504 196.187 231.359 196.533C232.57 196.706 233.781 196.62 235.079 196.447C242.001 195.668 246.587 191.775 248.663 185.113C248.836 182.344 248.923 179.575 248.49 176.893ZM110.921 88.1218C111.786 86.997 113.084 86.4779 114.295 85.8722C117.842 84.3148 121.476 83.3631 125.283 82.7575C128.658 82.2383 132.032 81.7192 135.493 81.8057C139.127 82.0653 142.847 82.2383 146.481 82.6709C148.385 82.844 150.202 83.4496 151.932 84.4014C153.316 85.1801 153.403 86.824 152.105 87.7757C151.672 88.1218 151.153 88.3814 150.721 88.6409C149.423 89.3331 149.336 89.4196 148.298 87.9488C147.433 86.7374 146.308 86.1318 144.924 85.9587C143.02 85.6992 141.117 85.4396 139.213 85.4396C133.157 85.4396 127.187 85.7857 121.303 86.9105C118.362 87.4296 115.333 88.0353 113.43 90.7174C112.911 91.4096 111.872 91.0635 111.007 90.1118C110.402 89.3331 110.402 88.7274 110.921 88.1218ZM149.163 124.98C148.298 127.835 147.173 130.604 145.443 133.2C143.712 135.882 141.29 137.526 138.089 137.872C135.752 138.131 133.503 138.218 131.167 138.045C127.706 137.785 124.937 136.228 122.774 133.546C120.871 131.21 119.227 128.7 118.016 125.932C114.987 119.443 113.17 112.607 112.132 105.513C111.613 102.311 111.353 99.0235 111.007 95.7357C110.921 95.2166 110.834 94.6109 111.353 94.0918C111.613 94.0918 112.046 94.0053 112.392 94.0918C120.005 96.6009 127.706 96.2548 135.493 95.3031C141.203 94.6109 146.827 93.4861 152.192 91.3231C152.451 91.2366 152.711 91.3231 153.143 91.4096C153.403 102.744 152.538 113.992 149.163 124.98ZM151.067 161.752C150.288 161.925 149.423 161.06 149.509 160.281C149.769 158.637 150.634 157.512 151.932 156.733C152.624 156.301 153.749 156.906 153.835 157.685C154.008 159.156 152.451 161.406 151.067 161.752ZM177.975 145.918C177.196 146.178 176.331 146.264 175.552 146.351C169.409 147.043 163.958 149.552 159.027 153.186C158.335 153.705 157.729 154.138 156.95 154.484C156.691 154.657 156.085 154.57 155.825 154.397C155.306 154.051 155.133 153.446 155.393 152.926C155.566 152.407 155.912 151.975 156.258 151.629C162.142 146.437 168.977 143.755 176.85 143.409C177.283 143.409 177.715 143.496 178.062 143.669C178.408 143.842 178.581 144.274 178.84 144.447C178.754 145.226 178.581 145.745 177.975 145.918ZM219.592 187.968C219.332 188.227 218.986 188.66 218.64 188.66C217.602 188.833 216.823 188.227 216.304 187.362C216.045 186.843 215.958 186.324 216.391 185.805C216.564 185.632 216.823 185.459 216.996 185.372C218.294 185.113 219.505 185.891 219.678 187.189C219.765 187.449 219.765 187.708 219.592 187.968ZM242.953 188.227C240.963 190.65 238.454 192.207 235.425 192.813C234.128 193.073 232.743 193.159 231.964 193.246C228.85 193.159 226.427 192.899 224.178 191.775C223.572 191.429 223.053 191.083 222.534 190.563C222.361 190.304 222.274 189.785 222.447 189.439C222.62 189.179 222.966 188.92 223.312 188.833C224.178 188.573 224.87 189.179 225.648 189.352C228.59 190.131 231.445 190.65 234.474 189.871C237.242 189.179 239.492 187.968 241.136 185.545C241.482 185.026 241.914 184.42 242.434 184.074C242.693 183.901 243.212 183.901 243.558 184.074C243.904 184.247 244.164 184.68 244.164 185.026C244.337 186.237 243.731 187.362 242.953 188.227Z" fill="black"/>
<path d="M121.736 255.801C120.957 255.368 119.746 255.628 119.313 254.33C119.486 253.984 119.832 253.465 120.006 253.032C122.169 248.447 120.871 245.072 116.285 242.996C114.122 242.044 111.786 241.698 109.45 241.958C107.546 242.131 107.46 242.131 106.941 240.314C105.037 234.171 97.5964 230.796 90.6747 233.738C89.1173 235.468 87.6464 234.776 85.916 233.911C79.7729 230.796 73.4569 228.201 66.8812 226.384C59.0077 224.221 51.0478 223.269 42.9147 225.432C41.0112 225.951 40.9247 225.951 40.146 224.134C37.4639 218.078 34.2626 212.367 30.8017 206.743C30.023 205.445 29.3308 204.061 28.6387 202.763C24.6587 195.582 24.2261 188.228 26.9082 180.527C28.6387 175.769 30.8017 171.183 33.1378 166.684C34.9547 163.136 36.7717 159.589 38.5021 156.042C38.8482 155.349 39.1078 154.484 39.2808 153.705C39.3673 153.446 39.0212 152.927 38.6752 152.754C38.4156 152.581 37.8099 152.667 37.5504 152.84C36.9447 153.446 36.4256 154.052 36.0795 154.744C33.3973 159.329 30.7152 164.002 28.1195 168.674C26.216 172.135 24.5721 175.768 23.3608 179.575C22.4091 182.431 21.7169 185.372 21.4574 188.401C21.1113 193.159 22.2361 197.658 24.1395 201.985C25.6969 205.618 27.7734 209.079 29.9365 212.367C32.7052 216.607 34.9547 221.192 37.3773 225.605C38.156 226.989 38.0695 227.076 36.7717 228.287C36.3391 228.633 35.993 228.979 35.5604 229.412C33.4839 231.402 32.5321 233.911 32.3591 236.766C32.3591 237.545 32.9647 238.41 32.013 239.102C31.4073 239.189 30.7152 239.189 30.1095 239.362C25.0047 240.314 21.89 243.775 21.4574 248.879C21.3708 250.523 21.3708 252.167 21.7169 253.811C21.89 254.59 22.4956 255.282 21.7169 256.147C21.3708 256.234 20.9382 256.32 20.5921 256.32C15.3143 256.753 11.2478 259.954 12.0265 267.395C12.113 268.087 12.1995 268.779 12.3726 269.385C12.9782 272.067 14.0165 274.576 15.3143 277.085C19.0348 284.526 24.2261 290.842 29.9365 296.899C30.8882 297.851 31.4073 298.716 31.4073 300.014C31.3208 302.696 32.013 305.205 33.1378 307.541C35.2143 311.954 39.8865 313.857 44.5586 312.386C47.5004 311.434 49.8365 309.444 51.913 307.281C52.086 307.108 52.2591 306.762 52.2591 306.589C52.2591 306.243 52.1725 305.811 51.9995 305.464C51.8265 304.945 51.3073 304.945 50.9612 305.118C50.2691 305.464 49.5769 305.984 48.9712 306.503C47.6734 307.541 46.4621 308.666 44.9912 309.358C41.4439 311.002 37.6369 309.964 36.0795 306.762C34.0895 302.609 34.0895 298.283 35.4739 293.957C35.6469 293.438 35.9065 292.919 36.2526 292.486C37.6369 290.41 39.5404 289.804 41.963 290.496C44.3856 291.188 46.3756 292.659 48.2791 294.303C48.9712 294.909 49.6634 295.601 50.3556 296.293C50.8747 296.726 51.5669 296.812 52.2591 296.553C53.1243 296.207 53.5569 295.601 53.5569 294.649C53.4704 292.832 53.2973 291.102 53.2108 289.285C53.1243 285.391 52.9512 285.478 56.4121 284.18C60.4786 282.623 61.5169 280.633 61.1708 276.22C61.0843 274.749 61.0843 274.749 62.6417 274.317C65.3238 273.624 67.9195 272.932 70.2556 271.375C74.4086 268.52 75.3603 264.28 73.1108 259.868C72.6782 259.002 71.7264 258.31 71.5534 257.185C73.8895 255.715 75.966 256.32 77.956 257.445C80.3786 258.829 82.2821 260.819 84.099 262.896C87.5599 266.789 90.7612 270.856 94.8277 274.403C93.5299 277.778 93.0973 281.325 92.7512 284.872C92.4916 287.468 92.8377 290.064 93.5299 292.573C93.876 293.871 94.3951 295.255 95.7794 295.861C96.9042 296.38 97.9425 295.774 98.8942 295.341C99.1538 295.255 99.4999 295.168 99.6729 295.255C100.019 295.428 100.452 295.601 100.625 295.861C101.057 296.466 101.057 297.158 100.884 297.851C100.625 299.062 100.019 300.1 99.3268 301.225C98.8942 301.917 99.1538 302.523 99.846 302.955C100.365 303.301 100.971 303.215 101.403 302.782C103.134 300.879 104.172 298.716 103.912 296.12C103.653 293.784 101.749 292.313 99.3268 292.313C98.4616 292.313 97.5099 293.178 96.3851 292.227C95.0007 287.208 95.6064 282.104 96.9042 276.999C96.9907 276.48 97.4234 275.961 98.1155 276.134C99.3268 276.48 100.452 276.912 101.576 277.258C102.874 277.691 104.345 277.172 105.643 278.037C106.422 285.045 107.287 291.967 107.892 298.889C108.325 303.647 108.412 308.493 108.152 313.251C107.979 316.28 107.287 319.221 105.816 321.904C104.605 324.153 102.874 325.884 100.452 326.749C98.202 327.441 95.9525 327.787 93.5299 327.354C90.4151 326.835 87.4734 325.624 84.6181 324.24C78.9942 321.384 73.5434 318.27 68.179 314.895C66.189 313.684 64.199 312.473 62.209 311.261C61.7764 311.002 61.2573 310.742 60.7382 310.656C60.3921 310.569 59.873 310.829 59.6999 311.175C59.5269 311.434 59.4404 311.954 59.6134 312.3C59.9595 313.078 60.7382 313.424 61.4304 313.857C65.5834 316.453 69.823 319.048 74.149 321.73C72.8512 323.547 71.5534 325.278 70.2556 327.095C68.6982 329.258 67.4003 331.421 66.5351 333.93C65.6699 336.353 65.6699 338.775 66.2756 341.198C66.4486 341.804 66.7947 342.409 67.2273 343.015C67.4869 343.361 67.9195 343.534 68.3521 343.188C68.6117 342.928 68.8712 342.582 69.0443 342.236C69.1308 342.063 69.0443 341.717 68.9577 341.457C67.9195 338.429 68.8712 335.747 70.3421 333.238C72.159 330.21 74.2356 327.268 76.2256 324.326C76.7447 323.547 77.5234 323.374 78.3021 323.894C81.1573 325.537 84.0125 327.095 87.1273 328.393C90.1555 329.604 93.3568 330.469 96.7312 330.296C102.269 329.95 106.335 327.441 108.758 322.336C109.709 320.26 110.402 318.01 110.748 315.674C111.44 311.002 111.44 306.416 111.007 301.744C110.315 294.217 109.536 286.776 108.671 279.248C108.498 277.778 108.412 276.653 109.882 275.701C111.526 274.576 112.305 272.759 112.219 270.683C112.219 270.164 112.132 269.558 112.651 269.212C114.295 269.039 115.939 268.952 117.496 268.693C120.438 268.087 122.861 266.703 124.505 264.021C126.235 260.646 125.197 257.531 121.736 255.801ZM64.7182 229.671C64.6316 229.931 64.4586 230.191 64.199 230.277C63.853 230.45 63.4203 230.537 63.5069 230.537C60.3056 230.277 57.6234 230.018 54.8547 229.845C51.5669 229.671 48.2791 229.845 45.0778 230.969C41.8765 232.094 39.1078 233.738 37.8099 237.112C37.4639 237.891 37.1178 238.583 36.0795 238.583C35.3008 238.497 34.9547 237.372 35.3008 236.161C36.2526 233.305 38.156 231.229 40.7517 229.758C44.8182 227.508 49.2308 226.643 53.8164 226.903C56.8447 227.076 59.7864 227.595 62.7282 228.114C63.2473 228.201 63.7664 228.46 64.199 228.72C64.6316 228.806 64.8912 229.239 64.7182 229.671ZM71.6399 231.488C71.4669 232.094 70.9477 232.267 70.5151 232.44C69.2173 232.527 68.0925 232.008 67.833 231.056C67.7464 230.796 67.9195 230.191 68.179 230.018C68.9577 229.239 69.9095 229.585 70.7747 229.931C71.5534 230.191 71.8129 230.71 71.6399 231.488ZM106.681 273.711C105.729 274.663 104.518 274.663 103.307 274.749C101.057 274.663 99.0673 274.057 97.2503 272.673C97.0773 272.5 96.8177 272.327 96.6447 272.154C96.2986 271.721 96.1255 271.115 96.3851 270.683C96.6447 270.164 97.2503 269.991 97.7694 270.337C100.279 271.894 102.961 272.586 105.902 271.808C106.162 271.721 106.681 271.981 106.854 272.327C107.2 272.759 107.114 273.278 106.681 273.711ZM116.112 266.097C115.852 266.011 115.679 265.838 115.593 265.578C115.506 265.318 115.506 264.886 115.593 264.799C117.323 263.501 119.054 262.29 120.784 261.079C121.13 260.819 121.995 261.338 121.995 261.771C121.995 261.944 122.082 262.031 121.995 262.204C121.476 264.626 118.448 266.616 116.112 266.097Z" fill="black"/>
<path d="M103.48 37.074C97.0773 27.3836 89.0308 19.8562 77.0043 17.9527C71.6399 17.0875 66.3621 17.174 61.0843 18.5584C51.3938 21.0675 43.6069 26.2588 38.8482 35.4301C38.156 36.7279 37.2908 37.5931 35.993 38.1988C32.3591 39.9292 29.0713 42.0923 26.3891 45.1205C23.1878 48.6679 20.8517 52.6479 20.2461 57.4066C19.8134 61.3001 20.6787 64.7609 24.053 67.1835C25.87 68.4814 25.87 68.5679 24.9182 71.1635C23.88 71.8557 23.6204 72.9805 23.3608 74.0187C23.6204 74.0187 23.9665 74.1053 24.2261 74.2783C23.7934 76.7874 23.4474 79.2966 23.0147 81.8057C22.6687 81.8057 22.3226 81.8057 22.063 81.7192C22.063 81.8057 22.063 81.8922 22.063 81.8922C22.063 83.1035 22.3226 84.1418 22.9282 85.18C23.1013 86.824 23.1878 88.4679 23.4474 90.1118C24.9182 98.2448 29.6769 103.177 37.8099 105.08C41.6169 105.945 45.4239 105.859 49.2308 105.426C53.5569 104.993 57.883 104.301 62.2091 103.263C66.5351 102.138 70.9477 101.013 75.2738 99.8887C76.9177 99.4561 77.5234 98.7639 77.3503 97.8122C77.0908 96.6874 76.0525 96.2548 74.3221 96.6009C73.3703 96.7739 72.5051 97.0335 71.5534 97.2931C63.9395 99.11 56.4121 101.187 48.6252 102.052C44.0395 102.571 39.6269 102.484 35.3008 100.84C30.7152 99.11 27.86 95.8222 26.6487 91.15C26.043 88.7274 25.87 86.3048 26.1295 83.7957C26.6487 77.5661 28.3791 71.6827 30.4556 65.8857C30.8017 65.0205 30.8882 63.9822 31.84 63.3766C32.8782 63.9822 34.176 63.9822 35.0413 65.107C34.4356 66.3183 33.83 67.6161 33.2243 68.8274C31.7534 71.9422 30.4556 75.057 29.5039 78.3448C28.8982 80.5079 29.5039 81.7192 31.6669 82.3248C32.3591 82.4979 32.9647 82.6709 33.6569 82.6709C34.5221 82.7574 35.6469 83.1035 36.166 81.8922C36.5121 81.1135 35.82 80.5944 33.9165 80.0753C33.6569 79.9887 33.3973 79.9887 33.1378 79.9022C32.013 79.5561 31.7534 79.1235 32.0995 78.1718C32.8782 76.0953 33.5704 74.0188 34.4356 72.0288C35.6469 69.2601 37.0313 66.5779 38.3291 63.8957C38.8482 62.7709 39.3673 61.6462 39.7999 60.5214C40.0595 59.9157 40.146 59.137 39.2808 58.8775C38.6752 58.7044 38.3291 59.137 37.983 59.6562C37.3773 60.6944 37.0313 61.9922 35.993 62.7709C35.2143 62.3383 34.3491 61.9057 33.6569 61.3001C32.9647 60.7809 32.7052 60.0022 33.0513 59.137C34.7817 54.984 36.6852 50.9175 39.2808 47.1105C40.146 47.9757 40.146 48.9275 40.4056 49.7927C41.1843 52.9075 42.7417 55.5896 44.6452 58.1853C46.0295 60.0888 47.7599 61.6462 49.923 62.6844C50.6152 63.0305 51.3938 63.5496 52.1725 62.8575C52.6917 62.4249 52.4321 61.5596 51.1343 60.6079C47.3273 57.8392 44.8182 54.2053 43.1743 49.8792C42.9147 49.2736 42.3956 48.4083 43.3473 47.7162C52.086 59.9157 64.3721 65.6261 78.9077 66.7509C79.5134 67.7027 78.9942 68.4814 78.9942 69.3466C78.9942 70.1253 78.8212 70.9905 78.8212 71.7692C78.8212 72.4614 79.1673 73.067 79.946 73.3266C80.6382 73.4996 81.5899 72.9805 81.8495 72.1153C82.109 71.3366 82.1955 70.4714 82.3686 69.6927C82.6282 68.6544 82.8877 67.5296 83.3203 66.5779C84.4451 64.0688 86.9542 62.7709 89.7229 63.2901C91.1073 63.5496 92.3186 64.0688 93.4434 64.934C95.9525 66.8375 97.3368 69.2601 96.8177 72.3748C96.2986 75.4031 93.7895 78.6909 87.7329 77.3066C84.7912 76.5279 82.8012 77.5661 84.0125 78.7774C84.7912 79.5561 89.3768 81.3731 93.5299 79.9887C98.029 78.5179 100.625 75.4031 100.279 70.3848C100.192 69.087 100.798 68.3083 101.49 67.5296C103.739 65.0205 105.21 62.1653 106.162 58.964C108.498 51.0905 107.892 43.8227 103.48 37.074ZM24.7452 62.5979C24.1395 62.6844 23.6204 62.4249 23.3608 61.9922C21.9765 59.3966 21.9765 56.7144 23.3608 54.1188C23.5339 53.8592 24.1395 53.6862 24.3991 53.6862C24.7452 53.7727 25.1778 54.1188 25.1778 54.4649C25.2643 55.2436 25.1778 56.1088 25.1778 57.5796C25.2643 58.2718 25.4374 59.6562 25.6104 60.954C25.7834 61.7327 25.6104 62.4248 24.7452 62.5979ZM75.8795 24.0092C74.9277 24.0958 73.976 24.0092 73.0243 24.0958C70.6882 24.1823 68.3521 24.2688 66.1025 24.5284C59.4404 25.3071 53.6434 28.3353 48.2791 32.2288C47.5869 32.7479 46.9812 33.2671 46.3756 33.7862C45.0778 34.7379 44.2991 34.911 43.953 34.2188C43.3473 33.094 44.2126 32.4018 44.8182 31.7962C51.9995 24.961 60.3056 20.6349 71.3803 20.981C72.4186 21.0675 74.3221 21.2406 76.2256 21.4136C76.9177 21.5001 77.5234 21.7597 77.6099 22.6249C77.6099 23.3171 76.9177 23.9227 75.8795 24.0092ZM84.1855 25.0475C83.1473 25.6532 81.6764 25.134 81.1573 24.0092C80.9842 23.7497 81.1573 23.2306 81.3303 22.8845C81.7629 22.2788 82.4551 22.2788 83.1473 22.4519C84.0125 22.6249 84.5316 23.144 84.7912 24.1823C84.6182 24.4419 84.5316 24.8745 84.1855 25.0475Z" fill="black"/>
<path d="M257.402 490.361C256.364 489.063 254.893 488.198 253.422 487.419C249.009 484.997 245.375 486.294 243.472 490.967C242.52 493.303 242.434 495.812 242.52 498.234C242.607 500.657 242.866 503.166 243.645 505.502C244.078 506.973 243.731 508.098 242.607 509.136C239.319 512.424 236.118 515.885 232.916 519.259C231.272 520.903 229.715 522.634 228.071 524.277C227.811 524.537 227.379 524.797 227.033 524.45C226.86 524.277 226.687 524.018 226.6 523.845C226.341 521.768 226.254 519.778 225.995 517.702C224.956 509.828 223.918 501.955 222.88 494.081C222.62 492.351 222.274 490.534 222.015 488.804C221.668 486.554 220.457 484.737 218.64 483.353C216.391 481.536 213.882 480.151 211.199 479.113C207.998 477.815 204.71 476.95 201.336 476.431C191.992 474.787 182.734 475.306 173.995 479.286C167.333 482.314 160.498 484.391 153.403 486.121C144.145 488.371 138.089 494.341 135.233 503.426C134.628 505.329 134.282 506.8 131.946 506.54C131.859 506.54 131.599 506.541 131.599 506.627C131.34 506.973 131.08 507.233 130.994 507.665C130.907 508.184 131.08 508.79 131.599 509.05C132.119 509.309 132.638 509.396 133.157 509.482C136.358 509.655 139.473 509.309 142.501 508.357C144.578 507.665 146.135 506.454 146.654 504.204C146.914 502.907 147.519 501.868 148.558 501.176C151.24 499.359 154.095 498.148 157.296 497.975C160.584 497.802 162.747 499.792 163.18 503.08C163.353 504.464 163.353 505.848 163.266 507.146C162.834 513.03 162.488 518.913 161.969 524.797C161.449 531.372 160.671 537.861 160.152 544.437C159.632 551.013 161.882 556.55 166.9 560.876C168.631 562.433 170.707 563.558 172.87 564.51C184.637 569.355 196.75 570.48 209.123 567.452C214.92 566.067 220.111 563.385 224.61 559.232C227.033 557.069 228.763 554.473 229.196 551.186C229.369 549.628 230.061 548.33 230.84 547.033C235.858 539.159 240.79 531.286 246.241 523.758C247.279 522.374 248.231 520.903 249.442 519.259C250.394 520.384 251.172 521.249 251.951 522.201C253.508 523.931 255.152 525.575 257.315 526.614C261.295 528.517 264.67 527.306 266.487 523.326C267.352 521.422 267.784 519.432 267.784 517.356C267.438 506.887 263.804 498.061 257.402 490.361ZM247.019 516.837C246.76 517.269 246.414 517.788 246.154 518.221C240.79 525.835 235.425 533.449 230.58 541.409C229.888 542.62 229.196 542.62 228.071 541.928C227.119 541.322 226.168 542.014 226.081 543.226C225.995 544.177 226.081 545.129 226.168 546.081C226.514 551.272 224.61 555.339 220.371 558.453C216.131 561.568 211.372 563.731 206.181 564.683C195.452 566.673 184.897 565.721 174.774 561.568C172.697 560.703 170.794 559.751 169.063 558.367C164.737 554.82 162.747 550.147 163.18 544.61C163.439 541.236 163.785 537.775 164.132 534.4C164.91 525.662 165.602 516.923 166.295 508.184C166.381 506.541 166.468 504.897 166.295 503.253C165.862 497.542 162.142 494.341 156.431 494.774C152.451 495.033 149.077 496.677 146.135 499.359C144.924 500.484 143.972 501.868 143.539 503.512C143.193 504.81 142.501 505.329 141.29 505.589C140.252 505.762 139.127 505.848 137.396 506.021C139.906 497.11 144.837 491.486 153.316 489.236C155.306 488.717 157.383 488.544 159.373 488.111C163.526 487.16 167.506 485.689 171.313 483.785C176.591 481.103 182.301 479.373 188.185 478.94C196.923 478.334 205.402 479.632 213.449 483.18C213.968 483.439 214.401 483.699 214.92 483.958C218.035 485.516 219.592 488.111 219.765 491.486C220.198 499.878 221.841 508.098 222.793 516.317C223.485 522.028 224.091 527.738 224.783 533.449C224.87 534.227 224.87 535.093 225.475 535.785C225.735 536.044 226.168 536.217 226.514 536.304C227.119 536.39 227.552 535.958 227.811 535.439C228.244 534.4 227.985 533.276 227.725 532.237C227.119 530.334 227.725 528.95 229.109 527.479C233.435 523.066 237.675 518.567 241.915 514.068C242.866 513.116 243.818 512.164 244.943 511.126C246.414 512.251 246.587 513.981 247.365 515.366C247.625 515.885 247.279 516.404 247.019 516.837ZM264.237 520.038C264.064 520.99 263.718 521.855 263.285 522.72C262.334 524.277 260.776 524.71 259.046 524.104C257.488 523.499 256.191 522.46 255.066 521.336C252.989 519.259 251.432 516.837 250.134 514.327C247.365 509.05 245.721 503.426 245.548 497.456C245.462 495.466 245.808 493.649 246.5 491.832C247.019 490.534 247.798 489.409 249.355 489.236C250.307 489.15 251.259 489.15 251.518 490.447C251.691 491.14 251.951 491.832 252.816 491.745C255.412 491.486 256.191 493.649 257.488 495.12C258.094 495.812 257.402 496.244 257.056 496.85C256.45 497.802 256.969 498.58 258.008 498.321C259.132 498.061 259.824 498.148 260.257 499.273C260.603 500.051 260.949 500.744 261.295 501.522C261.901 502.647 261.988 503.426 260.69 504.204C259.911 504.724 260.257 506.108 261.036 506.108C263.112 506.021 263.372 507.233 263.804 508.79C264.151 510.174 263.891 510.607 262.593 511.213C261.382 511.732 261.641 513.289 263.026 513.462C264.324 513.635 264.67 514.068 264.67 515.193C264.497 516.75 264.497 518.394 264.237 520.038Z" fill="#020202"/>
<path d="M123.466 5.40701C120.006 2.81136 116.112 1.08093 111.872 0.388759C106.595 -0.476458 101.49 0.0426717 96.7312 2.5518C91.3669 5.32049 88.4251 9.90614 87.3869 15.7896C87.0408 17.7796 86.9543 18.5583 89.1173 19.337C89.2038 19.4235 89.3769 19.4235 89.4634 19.51C97.3369 23.7496 102.961 30.0657 106.941 38.0257C107.546 39.237 107.546 40.8809 108.844 41.4865C110.142 42.0057 111.526 41.6596 112.911 41.4865C114.382 41.227 115.852 40.9674 117.323 40.4483C125.889 37.5065 131.772 29.46 131.686 20.0292C131.34 14.4053 128.658 9.21396 123.466 5.40701ZM121.217 34.2187C121.13 34.7379 120.611 35.1705 120.179 35.1705C119.486 35.1705 118.967 34.4783 119.054 33.7861C119.14 33.0939 119.659 32.9209 120.179 32.8344C120.784 32.8344 121.303 33.5265 121.217 34.2187ZM125.283 30.1522C124.937 30.6713 124.418 30.8444 123.812 30.4983C123.293 30.2387 123.034 29.7196 123.207 29.1139C123.293 28.5948 123.553 28.0757 123.726 27.5566C125.283 24.0957 125.802 20.4618 125.283 16.7413C125.197 16.3087 125.197 15.8761 125.283 15.53C125.456 15.184 125.802 14.7514 126.149 14.7514C126.495 14.6648 127.014 14.8379 127.187 15.0974C128.312 16.9144 128.485 18.9044 128.571 21.5866C128.398 24.3553 127.187 27.3835 125.283 30.1522Z" fill="black"/>
<path d="M311.651 332.545C310.613 326.056 307.411 320.778 301.701 317.145C300.057 316.106 298.586 315.587 296.769 315.587C287.425 315.328 278.167 315.068 268.823 314.808C267.352 314.808 247.279 314.635 243.991 314.635C243.212 314.635 242.347 314.462 241.655 315.068C241.395 315.328 241.049 315.76 241.136 316.02C241.136 316.366 241.482 316.885 241.741 316.972C242.693 317.145 243.645 317.231 244.597 317.318C252.384 317.491 260.257 317.577 268.044 317.75C277.129 317.923 286.127 318.356 295.212 318.442C298.5 318.442 301.009 319.827 303.258 321.99C305.508 324.153 306.979 326.748 308.017 329.604C311.651 339.986 308.19 353.224 300.057 360.578C299.105 361.357 298.154 362.136 297.115 362.741C294.606 364.299 292.011 365.078 288.982 364.905C277.994 364.558 267.092 364.385 256.104 364.126C252.124 364.039 248.144 363.953 244.164 363.866C243.818 363.866 243.299 363.607 243.126 363.347C242.953 363.001 243.212 362.655 243.472 362.309C246.673 359.367 249.096 355.993 250.653 351.926C254.287 342.236 253.681 333.151 247.279 324.758C244.77 321.384 241.568 318.875 237.415 317.664C231.445 315.933 226.514 317.75 223.226 322.336C221.149 325.191 220.111 328.479 220.284 332.026C220.457 334.016 219.678 335.401 218.64 336.871C213.362 344.399 208.171 352.013 202.98 359.54C202.374 360.405 201.682 361.357 201.768 362.482C201.768 362.828 202.028 363.347 202.288 363.434C202.634 363.52 203.153 363.434 203.412 363.174C204.191 362.222 204.97 361.271 205.662 360.319C209.988 354.089 214.141 347.86 218.467 341.717C221.322 337.65 224.351 333.757 227.292 329.777C228.59 328.046 230.061 326.748 232.484 327.7C233.349 328.046 234.387 327.787 235.339 327.787C238.194 327.873 241.136 328.046 243.991 327.96C245.808 327.96 246.846 328.738 247.452 330.296C247.884 331.334 248.404 332.286 248.75 333.324C251.605 341.717 249.442 354.435 240.184 361.444C239.232 362.222 238.194 362.915 237.242 363.693C236.637 364.212 236.983 365.51 237.761 365.77C238.973 366.116 240.184 366.375 241.395 366.462C243.126 366.635 244.943 366.635 246.76 366.635C261.036 366.981 275.312 367.154 289.501 367.673C292.443 367.76 294.866 367.241 297.288 365.856C298.932 364.905 300.576 363.866 301.961 362.568C310.267 354.176 313.468 344.053 311.651 332.545ZM242.347 325.191C239.319 325.105 236.291 325.191 233.349 324.845C229.628 324.499 226.6 325.451 224.524 328.652C224.264 328.998 224.005 329.258 223.226 330.296C224.264 321.644 230.58 317.75 237.588 320.605C239.492 321.384 241.222 322.509 242.693 323.98C242.866 324.153 242.866 324.499 242.866 324.758C242.866 325.105 242.693 325.191 242.347 325.191Z" fill="#020202"/>
<path d="M133.762 235.728C133.503 234.516 133.07 233.392 132.638 232.18C128.658 221.365 124.678 210.636 120.698 199.821C120.265 198.696 119.746 197.572 119.227 196.447C117.064 191.429 113.257 188.4 108.066 186.843C105.124 185.978 102.182 185.459 99.1538 185.459C93.7029 185.372 88.1656 185.459 82.7147 185.459C82.7147 185.372 82.7147 185.372 82.7147 185.286C77.956 185.372 73.1108 185.372 68.3521 185.632C62.9878 185.891 57.7099 185.978 52.4321 187.016C51.1343 187.276 49.7499 187.622 48.5386 188.227C46.2891 189.352 44.9913 191.169 45.1643 193.851C45.2508 195.236 45.3373 196.62 45.77 197.918C46.9813 201.119 48.106 204.32 49.4039 207.522C51.5669 212.8 55.4604 215.828 60.9978 216.866C64.8047 217.558 68.6117 217.731 72.4186 217.818C82.0225 218.077 91.6264 218.25 101.144 218.51C105.643 218.683 110.142 219.029 114.641 219.375C116.631 219.548 118.102 220.413 119.313 222.144C122.255 226.383 125.456 230.536 128.571 234.69C129.35 235.641 129.955 236.68 131.08 237.372C131.599 237.631 132.119 237.718 132.638 237.458C133.589 237.112 134.022 236.506 133.762 235.728ZM125.629 225.691C123.899 223.355 122.255 221.019 120.698 218.683C119.832 217.472 118.881 216.866 117.41 216.693C111.699 215.741 105.989 215.655 100.192 215.395C92.2321 215.136 84.2721 215.136 76.3986 214.963C72.4186 214.876 68.4386 214.616 64.5451 214.357C63.7665 214.27 62.9012 214.184 62.1225 214.011C57.1908 213.232 53.9895 210.463 52.1726 205.878C51.1343 203.196 50.0095 200.6 48.8847 197.918C48.7117 197.399 48.5386 196.88 48.4521 196.36C47.5004 192.38 48.4521 190.737 52.5186 189.958C54.9412 189.439 57.3639 189.179 59.873 189.006C71.3804 188.314 82.8877 187.881 94.3951 188.141C97.5099 188.227 100.711 188.573 103.826 188.92C105.297 189.093 106.768 189.439 108.239 189.958C111.872 191.169 114.728 193.419 116.285 197.053C117.064 198.783 117.842 200.6 118.448 202.33C121.13 209.512 123.812 216.693 126.495 223.874C126.927 224.999 127.273 226.124 127.706 227.422C126.408 227.076 126.062 226.297 125.629 225.691Z" fill="black"/>
<path d="M152.105 359.973C150.029 359.886 148.125 359.281 146.654 357.637C146.135 357.031 145.616 356.339 146.135 355.474C146.481 354.868 147.519 354.782 148.385 355.214C148.644 355.301 148.817 355.56 149.077 355.733C151.067 357.118 152.97 357.377 154.96 355.56C155.999 354.609 157.469 354.695 157.815 355.474C158.248 356.512 157.642 357.291 156.864 357.983C155.566 359.108 154.095 360.059 152.105 359.973Z" fill="black"/>
<path d="M175.639 355.473C173.735 355.473 172.005 354.781 170.794 353.224C170.275 352.618 170.015 351.84 170.275 350.974C170.448 350.282 171.313 349.85 171.832 350.109C172.092 350.196 172.351 350.282 172.524 350.455C175.466 352.791 175.466 352.791 178.754 350.888C178.84 350.801 179.013 350.715 179.1 350.715C179.792 350.369 180.398 350.282 180.917 350.888C181.436 351.493 181.436 352.186 181.003 352.791C179.878 354.349 177.802 355.473 175.639 355.473Z" fill="black"/>
<path d="M154.874 338.948C154.874 339.554 154.614 339.986 154.095 340.333C152.278 341.544 150.548 342.755 148.731 343.966C148.125 344.399 147.433 344.399 146.914 343.88C146.308 343.361 146.222 342.322 146.827 341.717C148.558 339.813 150.634 338.343 153.23 337.737C154.095 337.391 154.96 338.169 154.874 338.948Z" fill="#151515"/>
<path d="M160.93 376.758C158.508 376.758 156.691 375.98 155.479 374.076C154.96 373.297 154.874 372.519 155.566 371.913C156.085 371.394 156.864 371.394 157.383 371.913C158.94 373.643 160.757 373.903 162.92 373.124C163.526 372.865 164.218 373.211 164.564 373.903C164.824 374.595 164.478 375.46 163.699 375.98C162.834 376.499 161.709 376.585 160.93 376.758Z" fill="#151515"/>
<path d="M179.273 363.174C178.494 363.087 177.802 362.222 177.889 361.444C177.975 360.665 178.927 359.973 179.619 360.232C180.311 360.492 180.744 360.924 180.83 361.703C180.917 362.482 180.052 363.261 179.273 363.174Z" fill="black"/>
<path d="M154.182 363.001C154.787 363.088 155.393 363.347 155.479 364.126C155.652 364.991 155.047 365.683 154.182 365.77C153.403 365.856 152.624 365.078 152.797 364.299C152.884 363.434 153.403 363.001 154.182 363.001Z" fill="black"/>
<path d="M146.308 364.645C146.395 363.953 146.568 363.347 147.433 363.261C148.298 363.174 149.077 363.866 148.99 364.645C148.904 365.424 148.385 365.856 147.606 365.856C146.827 365.943 146.395 365.424 146.308 364.645Z" fill="black"/>
<path d="M151.326 370.615C151.153 371.393 150.634 371.653 149.942 371.653C149.25 371.653 148.731 371.047 148.817 370.269C148.99 369.576 149.336 368.971 150.202 369.144C150.98 369.317 151.326 369.75 151.326 370.615Z" fill="black"/>
<path d="M181.349 368.625C181.349 369.317 180.657 369.923 180.052 369.75C179.446 369.663 179.1 369.231 178.927 368.711C178.754 368.106 179.446 367.414 180.052 367.327C180.657 367.327 181.349 367.933 181.349 368.625Z" fill="black"/>
<path d="M195.972 498.408C187.666 498.408 179.619 497.023 171.919 494.168C171.053 493.822 170.102 493.476 169.236 493.043C167.852 492.265 167.592 490.707 168.89 489.669C169.929 488.804 171.14 488.112 172.265 487.419C182.388 481.882 193.03 481.103 204.105 483.699C207.133 484.391 210.161 485.256 212.93 486.814C213.968 487.419 215.093 488.025 215.872 488.977C216.91 490.188 216.91 491.832 215.872 493.13C214.92 494.341 213.622 495.12 212.238 495.812C209.296 497.196 206.181 498.321 202.807 498.494C200.644 498.494 198.308 498.408 195.972 498.408Z" fill="black"/>
<path d="M255.585 504.983C254.893 505.069 254.201 504.55 254.201 503.858C254.201 503.079 254.547 502.474 255.325 502.474C256.104 502.387 256.537 502.906 256.71 503.599C256.883 504.204 256.364 504.896 255.585 504.983Z" fill="#393939"/>
<path d="M256.796 510.866C257.661 510.866 258.181 511.299 258.181 511.991C258.181 512.683 257.661 513.203 256.883 513.203C256.364 513.203 255.844 512.943 255.844 512.251C255.844 511.559 256.104 511.039 256.796 510.866Z" fill="#4D4D4D"/>
<path d="M251.778 497.888C251.086 497.802 250.48 497.456 250.48 496.677C250.48 495.898 251.086 495.552 251.778 495.552C252.297 495.552 252.73 495.898 252.816 496.504C252.903 497.196 252.297 497.802 251.778 497.888Z" fill="#4F4F4F"/>
<path d="M261.728 518.653C261.641 519.259 261.382 519.605 260.776 519.691C260.084 519.778 259.392 519.259 259.392 518.567C259.478 517.961 259.824 517.615 260.344 517.442C260.949 517.442 261.728 518.048 261.728 518.653Z" fill="#343434"/>
<path d="M82.6282 199.042C83.6665 199.129 84.6182 200.34 84.6182 201.725C84.6182 202.676 83.6665 203.628 82.8013 203.542C81.6765 203.369 80.7247 202.157 80.8113 200.859C80.8113 199.908 81.6765 199.042 82.6282 199.042Z" fill="#2C2C2C"/>
<path d="M70.6882 202.157C70.6017 203.023 69.5634 203.974 68.6982 203.888C67.5734 203.801 66.6217 202.59 66.7947 201.206C66.8812 200.254 67.833 199.389 68.6982 199.475C69.823 199.648 70.7747 200.946 70.6882 202.157Z" fill="#2A2A2A"/>
<path d="M96.9043 199.302C98.1156 199.129 98.8943 199.908 99.3269 201.206C99.5864 202.244 99.2404 203.196 98.3751 203.628C98.029 203.801 97.5099 203.801 97.2504 203.715C95.866 203.196 95.2604 201.206 96.1256 199.994C96.2986 199.562 96.7312 199.389 96.9043 199.302Z" fill="#323232"/>
<path d="M24.9181 71.1633C24.9181 72.2881 24.8316 73.3264 24.2259 74.2781C20.0729 76.2681 19.2077 81.0268 23.0146 81.8055C23.2742 82.9303 23.2742 84.0551 22.9281 85.1798C21.9764 85.1798 21.0246 85.2664 20.0729 85.1798C16.3525 84.7472 14.3625 81.8055 15.3142 78.1716C16.612 73.4994 19.8999 71.1633 24.9181 71.1633Z" fill="#F8DB5E"/>
<path d="M101.317 368.192C102.096 368.711 102.182 369.404 102.096 370.269C102.096 370.961 101.922 371.653 101.403 372.172C98.2886 375.806 97.6829 378.748 100.192 382.641C102.182 384.804 105.556 385.15 107.892 384.458C111.699 383.42 114.295 380.911 115.506 377.104C116.112 375.114 115.506 372.691 114.555 371.394C111.613 368.106 111.18 367.933 110.921 367.154C110.921 365.943 111.613 365.25 112.738 365.25C113.862 365.337 116.631 367.587 117.842 370.528C119.659 375.2 119.227 379.7 115.939 383.247C112.045 388.006 105.383 389.909 99.5864 386.708C93.0973 382.814 94.1355 373.989 98.7212 369.836C99.6729 369.057 100.365 368.365 101.317 368.192Z" fill="#F6709E"/>
<path d="M92.3186 80.1616C91.7129 80.2481 91.1073 80.2481 90.5016 80.3347C90.069 81.0268 89.9825 81.892 89.9825 82.6707C89.9825 83.3629 89.9825 84.0551 89.896 84.7473C89.6364 86.5642 88.5982 87.9486 87.3868 88.1216C86.2621 88.2947 84.7047 87.0833 84.2721 85.2664C82.8877 79.4694 85.7429 77.2199 87.7329 77.1334C91.0208 77.1334 88.4251 74.4512 87.906 74.3647C84.4451 73.6725 81.2438 74.4512 79.5134 77.566C78.129 80.0751 77.8695 82.7573 78.0425 85.526C78.129 87.9486 79.1673 90.0251 80.8977 91.669C83.2338 94.0051 86.089 94.8703 89.1173 93.7455C92.2321 92.6207 93.7894 90.1116 94.049 86.8238C94.3086 84.4012 93.7029 82.1516 92.3186 80.1616Z" fill="#F8DB5E"/>
</g>
<defs>
<clipPath id="clip0_1_32">
<rect width="313" height="606" fill="white"/>
</clipPath>
</defs>
</svg>
